<mxfile host="Electron" modified="2024-02-14T08:34:54.083Z" agent="Mozilla/5.0 (Windows NT 10.0; Win64; x64) AppleWebKit/537.36 (KHTML, like Gecko) draw.io/21.2.8 Chrome/112.0.5615.165 Electron/24.2.0 Safari/537.36" etag="uxS6-l6QtJLdmyopzHk-" version="21.2.8" type="device">
  <diagram name="Page-1" id="2XWkQP5S-hDbL94sL5Vg">
    <mxGraphModel dx="1419" dy="814" grid="1" gridSize="10" guides="1" tooltips="1" connect="1" arrows="1" fold="1" page="1" pageScale="1" pageWidth="3300" pageHeight="4681" background="#999999" math="0" shadow="0">
      <root>
        <mxCell id="0" />
        <mxCell id="1" parent="0" />
        <mxCell id="OFI7zE9tUY9UPtECGpIP-1" value="Connect Signals to Other Signals" style="rounded=0;whiteSpace=wrap;html=1;fillColor=#dae8fc;strokeColor=#6c8ebf;fontSize=30;" parent="1" vertex="1">
          <mxGeometry x="600" y="70" width="850" height="120" as="geometry" />
        </mxCell>
        <mxCell id="piBSQISlN4lMEyWF8Jys-1" value="" style="shape=image;verticalLabelPosition=bottom;labelBackgroundColor=default;verticalAlign=top;aspect=fixed;imageAspect=0;image=data:image/png,iVBORw0KGgoAAAANSUhEUgAABvkAAATdCAYAAABliDrgAAAAAXNSR0IArs4c6QAAAARnQU1BAACxjwv8YQUAAAAJcEhZcwAADsMAAA7DAcdvqGQAAP+lSURBVHhe7P0NcFTXne/9/gTMY0s6ByO1ZAvZkhq/CMQJBqTYIaMgGwZnyiFEKjuopPNUpexMyLVVOUCRoQqn7CIu+wZueUIRP/PIPiFnoHLrHFRikkeKQ1yJPTDgKMF2JHDIGCRjIyRbIkEtYZ8RMnfA3L32Xi11t7pbby2hFt9PVbvXXr1Xr713i5mq/Oq/VsqDq9dc0wh6Az22BQAAAAAAAAAAAOB6m2XfAQAAAAAAAAAAACQJQj4AAAAAAAAAAAAgyRDyAQAAAAAAAAAAAEmGkA8AAAAAAAAAAABIMoR8AAAAAAAAAAAAQJIh5AMAAAAAAAAAAACSDCEfAAAAAAAAAAAAkGQI+QAAAAAAAAAAAIAkQ8gHAAAAAAAAAAAAJBlCPgAAAAAAAAAAACDJEPIBAAAAAAAAAAAASYaQDwAAAAAAAAAAAEgyhHwAAAAAAAAAAABAkiHkAwAAAAAAAAAAAJIMIR8AAAAAAAAAAACQZAj5AAAAAAAAAAAAgCRDyAcAAAAAAAAAAAAkGUI+AAAAAAAAAAAAIMkQ8gEAAAAAAAAAAABJhpAPAAAAAAAAAAAASDKEfAAAAAAAAAAAAECSIeQDAAAAAAAAAAAAkgwhHwAAAAAAAAAAAJBkCPkAAAAAAAAAAACAJJPy4Oo112w7pt5Aj21NlhTlfXO2bs+UBt68qnfeGPGSEig49zV99NOr6vyL7U5qWSpbf58qihcod77t0lnVPvaqjtojAAAAAAAAAAAAJK9xVfJlVczRir+fo6UrU2xPPCkqdM5d8fezlXer7Yp0a4oyM71m6hdmKctrYpzKNlWqZm1owAcAAAAAAAAAAICZZFwh36WAV2mX6nPf4rs1Ram2ORCrSu4v19Tb6zUH3vxMk103OLNl6fYcr9W8p15Vj9XaF1V8AAAAAAAAAAAAM8U4Qz7byExRmm3GlGVDvt5ruuR2RHNNnf90Rcf+4coUL9U5g3W36EATcSkAAAAAAAAAAMBMNK6QTz3XNGCboxY35AMAAAAAAAAAAAAwWrP9C+78vm3HNDAQEc+lpyhnaYr+KlX6378LhncpyqqYrXv+epZuuXxNgQtup9IWzdJtd6Ro4L1r+nOH6UlR3jfnaPHfzNIdzrmRL9/s4HmR7LjlUu/xa/qP4Hxfna0FwbG3Otdz2nwWTYrSFs/W4nXO+XZuc/7V3mu6kjXL3RPwf79zTZ/029NDpC2epQXOuHsGrznFzqWwucxehfd+dZbSLn42eP+uW525nWf2HxHf7Z2fopQz0ecdn0vK/Nx9uu8/dev1f/lQF20vAAAAAAAAAAAAZo7xVfL9ZaiSL/VW23Bk3p2i1MwUZRam2B4pzee1B+w+fhNmlgi9NUWF35ytu818tttIvXuW7v3mrChLiJqAcLbu/Yq5PtvlMOff/Y3Zuj2kL5wXLN77FS8EHOJ8z93O9/39bOWF3P/QXoVD9+9+x1edc515lq4M73evpfeaArH2KpyI+RnKt00AAAAAAAAAAADMLOML+RwDvbYRtHiWBnOwYXv1XdPA4PZwQ/vvhb7++OZoQ8AUN5jLzLymj351dWj8r+z4zFm6Y7HXDDIVf16Qd029oWN+elW9veHBX6i0lbOijjvmjPvIvf8U3e5cS5ZpOoJ7Fab6vHfXrSmDAWHUfpYxBQAAAAAAAAAAwBiNM+S7ZkO+FKXahCvNDbCuqfeM85bpLWc5WK3mGEhktVrvNZ35h6vqfHcoGLz07lWdMXM7wirpbp2l2+82jWv66KdX1RY65i/X1PZPwcAugjPuni+Y7xk+zlQydg6OS9HtwQq9dz+T2xUacmY5zyDkuYT3mwpH7zAxsuRf/7AqljvN7j5FXfUUAAAAAAAAAAAASW/clXzhS1OmyHeP8957Tb1u/1D4F6tKbvyu6aNfXtVgYWCI4DWFsWGaznymzrEEjSOOu6bOY/YZOPceDO/c8DMkzMsyS5cGn8tg+BkMRRO0jGnBCu3aV6O6fZXauXaBcrvPqvHlY2q3HwMAAAAAAAAAAGBmmUDIZxtWcH+5nlZvv77Qffmu55KUQ2Ga9z5aoxrXY/cmHAz1hiocM90lQ1OGnov7PUPhp7dX4TX1vusdJ1KX8/rIawIAAAAAAAAAAGAGGnfIFwy43H3m7H58vW3X3KUsB4OvW2013HUM+aZaeIWjF366QeHg8zL9Kco0S4gm6rmcO6Ytj9Wq6rF61R7sU+78Bap5YoX89mMAAAAAAAAAAADMLOMP+ULCvCy7H9+Au4bm8P3nErvv3Pi4YeQ4xB0XXNIzJKy7ZCsZQ8NPd0lO53n19jr9ZmnPSQs/e3T0wH7VHnea8zOU73UCAAAAAAAAAABghhl/yOfwlqYMVqc5x3bvOq+aLUWZf+2FWQnZd26cgqGb7p4lu1JmuFud6zdJXITQcXl2H71wKcpbYe/7vZCwLkr46S3J6fQH9+uz4eB0CD8BAAAAAAAAAACQfCYQ8gVDq1m63Sw9eeYzuYV8jsFqNjc8c9rBD64HW0FnQrm7vzlbWSGBXdri2Vr6jdlutd0wf/lMH5mKRGfc7c45hYu9QM91a4rynO+63d7fR2+Eh5jBMC/ThJ8h1Xo9ZjlTR2ah+a9zXc5zAgAAAAAAAAAAAMZqQpV8ocKq0mw1W2pmeIXf9XFNnb/8bLC67u5vzNGKv/de934lRam9dnnRKHoaruojGxBmfmX24LgV3wgJ+H56dTDc9Njw04yJ3HfP3ZfP9E/mc8nS7TnOW3efOrwOAAAAAAAAAAAAzDATCvm8ZTmN4VVpwaU8p4W/fKZ3fnpVH50JvUbnmt+8qj/+01V9GHM50Wvq/Kcr+uOvPrPVgEHXNHDGGfsPV9UZJagLVuwZvSHtwaU8jYTvxwcAAAAAAAAAAIAbRcqDq9fESrgG9Qau53qbGJssVe+oVLlatO2pY2q3vQAAAAAAAAAAAJg5ErZcJ6aZ+cVaX5plDwAAAAAAAAAAADCTUMk3A/nXV2vn2gx7FHRWtY+9qqP2CAAAAAAAAAAAAMmLSr4ZqP3Afm07eFZd3bYDAAAAAAAAAAAAMwqVfAAAAAAAAAAAAECSoZIPAAAAAAAAAAAASDKEfAAAAAAAAAAAAECSGXfIl5/vty0AAAAAAAAAAAAAU4lKPgAAAAAAAAAAACDJEPIBAAAAAAAAAAAASYaQDwAAAAAAAAAAAEgyhHwAAAAAAAAAAABAkiHkAwAAAAAAAAAAAJIMIR8AAAAAAAAAAACQZAj5pkSONhc/o3dKn1Fj/hLbN1bB76jR5nTbNSGJ/j4AAAAAAAAAAABMFUK+qZC+WKtSvaY/r0jrvOYksMFd8WoV2R4AAAAAAAAAAADMPIR8U6H/XR0e8Jrtnaf0itfEOPhLV2jrjmrV7auxr2rt2lQov/18ZFmq3mHHOuPi8eYKzuPNtXX9WOYCAAAAAAAAAACYHIR8U+K8drc8p6VNz6m846Ttw9h44dzODcUqmZ9h+4wM5S5fo507HlZZge2Ko2xTpcrn24M4/Our7Vy2w5WhkrVmrhUEfQAAAAAAAAAA4Loi5JtRsnWnXRZ0yhQMVbvtWp9lOxNvMJzrPqvGPfWqeqzWvupVe7BPMp+dc0+NyQR3NculroMtarZ9UTn3tHGtCRL71HywXtuCc21/Xc3dTvf8Yu0coQoQAAAAAAAAAABgMqU8uHrNNduOqTfQY1tD8vP96uhot0czy7pFz+h5n3Sk7TltvGA7jfQcd6+7U/3nvWPLOz+gvSdqtbvf7Iu3QY/HCNvaO/eovCN8fDhnjuwy7cxbKL/9jvZAk37SeUjKC53H+0zZlWoMOTeuQIOWng5WEgavc+i61y16RN/y+Qar1My8204f0il7HE3Zpho3OPP0qXH7fu0fIWwbs9KHVbdhgdM4q9rHXtVRr3dsgt9x/HVVNWRq17PFyjXtH7XZE4YE76nrYL22HIj82y/U1n1rVDJZ9woAAAAAAAAAADAKVPJFceZSwH0vSM1x3z052rxwg+qWbVBjfnj/XWnO28Bp/ToYvI2bF7zVFYaHdn5fqZ5fVqNvmXmiGFXAF0/aEr3ozPt8SMBnmHnrile7web1VPZ5E/BJzXvGGfAVrNCuYEgYJdQLV6gvuKHlWTUMC/iMNh0wlYPK0B13eD0AAAAAAAAAAABTjZAvilMDXrjjT8t2313pi7XKhmlR+y9dsBVvQ/vvhb6qOr3gMJ51i4IVgAEdadszNPZEg44M+KKHeRfqQ+ZxzjN9A02qGuwLeQ1W8YXy6fHCCj1gKvpC52xr9T5OLdWTIbcb6WhDi7eEpaPr4GuTUNk2FLq92eS8FRSqelO1uzyo+9pRra3rC+PskVeoraZqb7RVgAWZ7sqfOv5+2Lmh39/eddF9n587ecuTAgAAAAAAAAAAxEPIF82FU15YlpY9VMWWliW/WnXEZHXD+qX2S6Hreo5D+mp9y2ca3vKZGy8MLel5qv+kNrbs0d4B25FoA616uqlWu0PnvFCvp20uGV7RGOHcMb3wlLdn3fClLROou08dpiLv2TUqX272y7PmZ6hk7ZoYe+RlqXpHcGnNUVYB3pGhXOetq6vXO3aX56zRztA9Bz/sU5fzlpub6R0DAAAAAAAAAABMMUK+qC7oAxOopWbpbq9D63wLpYEevWaW8kxdpL9N9/qLnHOMcwPx9tkbBRsWKvDG0H57UyKgva31esUehQouW3pdBSvrtEAbTUVe91nVbvdCRfPatuesG7hp+RptLXVPHFS2qVLlzuDmPRPYO6/0LpXYJqEeAAAAAAAAAACYLgj5ojqv9y+Z94V6yF2q0u67d+mCXnGX8vTpTrs/3t1ppvyuVa9NsJAvGBZOuCJwppqfodzjr2vbU6/qaEhg1970qrbsOeu2Sz4/VM3nX1+tmuVmCdF6vWCW+RyjwUCv6W01usuR9qn5DyPt5wcAAAAAAAAAADA1CPliCFaxeUtVZuvOVBvAXepR+2D/Ej1kMr6BHp1x3jAJzvXK2/LvrGp/1OY++2Hs8pnKybR75xVq/VpvSc/ctZVD+/cFX+4efY7la2zfwypzz3YEv2tQj/a7y5HuHwoLhy3pCQAAAAAAAAAAMLUI+WI4FTjtBkr+tGwpu0gPOG13Sc7+d3V4wOnPWqyi9GwVmJMvXdAp854A7nwTFbLMaPLr1Ydeyjc1gqHi8ruGgr8I/tx57nt31yTuQQgAAAAAAAAAABAHIV8s/RfkrgqZlq117lKawSU57VKeJkiz++glYonNYKgoX5HWuT0R0r1qwtHJ0l12z8BJV7BCW3d4FXK71ntLjiZWj37f0ue8L9AXIvbcC/Lfv8CrrGs5Yyv92vSC3bMv6mt7i1etd/x12/eqjrrjjDa9edy8L1BF1PsJVgme1ZvjWAYUAAAAAAAAAAAgEQj5YrqgDwact9QsPWT23QtZkvOVQKvzX6ffLNWpgA4HzpvGxNgKQbMP4PPFlVoXEtIVZVeqcVmFW00Y30m95q4y6tPjC1eHfYfSc7Qu2ywxmlhlFcUqme+1c9c+pGq3tDGx2g80q9l5L9lQra3rC+2SnEaWytZXa6cbuvXp7bcSU1l3tMELAc1Sn7tC5yso1NYda1Ri2sffDwkGAQAAAAAAAAAAphYhX0y2Yk8L9YAJ80KX5HT35fM5/Qudgx693+91T8x57W5t8irRUhfq+WXP6J1S71VXuFD+gVYd8bYJjOuVzuB3lIZ9xzvLNuj5wrLoVYLTXpte2HNWXcpQydo12jm4v16lamzA17xnv/a7pZcJcO6YXjxoqgdN0Bcy37NrvECzu0XbftTmfg4AAAAAAAAAAHA9EPLF4VXseY4ETtqWI7iUpxFS4Tdh/YdUfqJBewOhaV5ARzobVNVSr5cujSLls99xZCD83PaBVu1tO6pX7HGimKq3ZrtnXtfB1xIXtEVqelVbtr+uxuN93lKbVlf3WdVu368XErx0ZvuB/dq2x9ybF/Z5+tR88HVte+qYXRYUAAAAAAAAAADg+kh5cPWaa7YdU29g+DKI+fl+dXQQdQAAAAAAAAAAAABTjUo+AAAAAAAAAAAAIMkQ8gEAAAAAAAAAAABJhpAPAAAAAAAAAAAASDKEfAAAAAAAAAAAAECSIeQDAAAAAAAAAAAAkgwhHwAAAAAAAAAAAJBkCPkAAAAAAAAAAACAJEPIBwAAAAAAAAAAACQZQj4AAAAAAAAAAAAgyRDyAQAAAAAAAAAAAEmGkA8AAAAAAAAAAABIMoR8AAAAAAAAAAAAQJIh5AMAAAAAAAAAAACSDCFfTDnaXPyM3imt0eZ02zXlgtfwjBrzl9i+RJkO9wcAAAAAAAAAAIDxIOSbztIXa1Wq1/TnFWmd15xGbFBYvFpFtgcAAAAAAAAAAACTj5BvOut/V4cHvGZ75ym94jUxIVmq3lGjun3Oa1Oh7YvOX7pCW3dUe+e6r2rt2rRCZQX2hBi8ccEx3rit6wvlt58DAAAAAAAAAABMFCHftHZeu1ue09Km51TecdL2YSLKNlWqfL49iKNsU7V2bihWyfwM22NkKHd5sWqerVZ1jKDPvz44zna4MlSydo127lhB0AcAAAAAAAAAABKCkA8TkK077XKiY1YwVO22a32W7ZxcJoCrWS51HWxRs+2Lyrm2iuUm3OtT8556VT1Wa1/1qj3e5/RnqLwiShWgM27jWjvuYL22Bcdtf13N3U73/GLtHKF6EAAAAAAAAAAAYDRSHly95pptx9Qb6LGtIfn5fnV0tNujmcjsN7dBj6cGtPdErXb352jdokf0LZ9vsBqrPdCkbacP6ZQ9HiZ9iTbnrdSq0DEDrfpJa71e6bcdg4Lz2cMI7Z17VN5x3h5FV5RdqZ15C+WPE7wNfc8478+Zo3GEOQYFGrT0dPQKxLJNNW7g5ulT4/b92n/OHk6G0odVt2GBdPx1VTVkatezxco17R+12RNC2HO7DtZry4HIv32z3KepBjyr2sde1VHbawTvKfq4Qm3dt0YlU3GvAAAAAAAAAABgxqOSbzTSlujF4g16PiQAM/y+UtUVr1aRPQ5VlF+jd5ZV6PHIMakL9fyyZ9SYn2N7EmPdohrVFY4yfIs0xvsb1xzXU8EK7TIBn86qNlqoNyY9+ihq1lqoL7ih5Vk1DAv4jDYdOOhVAd5xh9cDAAAAAAAAAAAwXoR8I/Lp8cIKPWAq3tr2uPvjmVdVW6v3cWqpnsz2moOyK1WX53MaAR3pbFCVHRMcZ+of/XmPaHO6e7Y1tP9e6KuqM2A/j8OZzwR0Zr7wa2xy55Ja9bTtG14NOMb7u1A/eM7SpgYdMX0DTWH3OPiKUcVnHG1o8ZawdHQdfG0SK9sKtdVU7ZmAL6LyLqamt9XoXFvu2vtUNmzvPRvmdfepw+vwFGTK3Ybv+Pthc4SGpu1dF933+blTszwpAAAAAAAAAACYuQj5RmPAhGS12n1hKCA7daFeT9v8rSA1tCovR5vzFrqtI2212thxMmy5SzOu3A3QfFrlS0w1X1GqFxqZ+cKv8ZCda6EeigwiQ43p/hLk3DG98JS3Z93wpS0TxSytGVwic5QBn6tH+58y++/NU82zNdq1aYXKCpxn7Ly875Oaf3nMBqjWHRnKdd66unq9Y3d5zhrtDN1z8MM+dTlvubmZ3jEAAAAAAAAAAMA4EfKNKKC9Zg89exTqzKUoVXbpi7XKLGc50KSXLnhdw1w45VbA+bMWR13qczLEDurGeH9JpGyT2TtPat4zjj3wCjL1hZwMt5m7vFg1z1aqznmVz+9zvq9eLzS5H8VWepcbBhqEegAAAAAAAAAAINEI+RItLctbojG1VHWlz+idqK8KPeCenBinBrxKuAcKK7UudAnQ9CV6sdCrKjw3EHUjuRnLv75aNcvNUqCjCOQilT6sumdNxd5ZNW6vV9Vj9dq2xywvavbUk+Z/PjNsGc5Qg4GeXfJT6lPzHya6DyAAAAAAAAAAAEA4Qr6ZYHBpzYV6fllImLjMhomBhthVhTNSodavtVV4aytVt68m/OXu0edYvsb2Pawy92yjUFs3LJC6W7TtqVe1/5wJUHvU3mSWF92vqu3NejtnjXbuCB3jsEtxDjFLfprlSPcPhYzDlvQEAAAAAAAAAAAYH0K+RLvU4+3VFmjQ0qbn4r9aDoXt1zcx3tKaYfvEOX1HOhtUdTp8X8CES83S3baZ9Owym10tZyKepXWuTftfblHX/AWq2VRoOx3neuUW7i2/Kzz8C+HPnee+d3dN1h6EAAAAAAAAAADgRkHIl2j97+rwgPPuW6nNoUtnTqbsSj3vk/aeeE7lYUFirTZ2THLA58rSXWO914IV2rrDq6zbtT7LdiZKm154zFTRxXhtb/Gq7o6/bvte1VF33JC4++jZirxwbXrzuHlfoIqo9xOsLjyrN8e6fCgAAAAAAAAAAEAEQr6EO6/dna3Ou0+PL6vRi/lLVBQWgOVoXX6lGksrtc72TFRRqgmVfLrTl+N1TJmTes0tIHTudeHqiP0AnfvMjn09ZRXFKpnvtXPXPqTqAq993TW9r2bzvnyNdm0qlD/surLkL12hXWY5T0fksptHG7zw0CwRumu9M9brlgoKtXWH2ePPcfz9YYEiAAAAAAAAAADAWKU8uHrNNduOqTcwfHnB/Hy/OjqiLmg4Q+Roc/EGPZ4a0N4Ttdrdb7tDFOXXqC7Pp/bOPSrvOG97PcHPYhpo1d7W+qjfGyreHIPSV6txWelQqBRFuzPf4c6j2n0h+B0Tu79Bcedu1dNN9XrFHoUq21SjmuX2QH1q3L5f+8/Zw8lWsEK7zL58ppLvR222M0Tpw26QN7xaL4S7Z9+xYUt6+tdXa6fdD3CYGGMAAAAAAAAAAADGikq+SXKqo1ZLTzRobyAQHuoM2H3yWkYO+Eat/139xJknHn/qQj1euEEvZtuOROk/pHLnPo849xXKhIp7245GDfgMU/XW7G5iJ3UdfG3qAr7RaHpVW7bXq/bgWXXZawzq6j6rxj31McO69gP7tW2Pubc+22P0qfng6wR8AAAAAAAAAAAgYajkS3q2Ik9Nqmo5FGP/vRytW7TB3bcvblUeAAAAAAAAAAAAkgKVfMkufbFWpUrtPe/GCPiM8zpzKX6lHwAAAAAAAAAAAJIHId8M4c97RC9m56jIHgcVpS/R5kXB/QFb9ROq+AAAAAAAAAAAAJIey3XOAOsWPeMuxRmX2SOvNYH7AAIAAAAAAAAAAOC6me1fcOf3bTumgYFLtjXkllvm6eOPL9ojXE9tPUd15NM5yk5Ll/4qTfNsv9E+0Kr/5+z/o//P+2/ql/9hOwEAAAAAAAAAAJDUqOQDAAAAAAAAAAAAkgx78gEAAAAAAAAAAABJhpAPAAAAAAAAAAAASDKEfAAAAAAAAAAAAECSIeQDAAAAAAAAAAAAkgwhHwAAAAAAAAAAAJBkCPkAAAAAAAAAAACAJEPIBwAAAAAAAAAAACQZQj4AAAAAAAAAAAAgyaQ8uHrNNduOqTfQY1tD8vP96uhot0eIL0ebizfo8VSpvbNB5R0nbf9kGc18wXMC2nuiVrv7bfdI0lercVmp/PZw0ECTqloO6ZQ9BAAAAAAAAAAAwOShkm8qpC/WqlSv6c8r0jqvOXmmer4ZK0vVO2pUt2PF8FATAAAAAAAAAADgOiLkmwr97+rwgNds7zylV7zm5JnM+foPqbzpOS0dfDXoiP0IAAAAAAAAAAAAU4OQb0qc1+4WLxSb/KU6jameDwAAAAAAAAAAAFOJkA/JpWCFtpolNPfVaNf6LNs5WTJ1x3zbBAAAAAAAAAAAmEZSHly95pptx9Qb6LGtIfn5fnV0tNujmacov0Z1eT4daXtOGy/YzmFytLl4gx5PbdXTTfV2Wcxgn3swTHvnHpV3nLdH0eRoXX6ZvpW1UP7B7wioPfCGtnWe1Kl+2zVovPMFxwW090Stfq0lenLhSj2Q6vM+HgjoSOfPnXuPd63GEr1YWqEHBppU1XJIp2xvXOlLtDlvpVb5fIN73bUPtOonrc4zHHZ/4co21ahmuT1Qnxq379f+c/YwEUof1q6vLlDuaMK946+r6kdt9sDjX1+tnWs1dF0FhaquKNF9yzOU652iLmfci844919PwQrterZYud0t2vbUMa8vjNkXsFLl8+Pca7Q5us+q4eVXdTSRzwYAAAAAAAAAAEwbVPLFcCpw2g1cHshbrSKva7jsMjdca+88mqB975boxeINej4vNOAzfPL7KlS3rEYv5ufYvsS5M6/G+e6KoYDPcNoPFG7QO4uW2I7EMOHpO85cj4cEfIY/daGeX/aMGifh/sZqVAHfKJjAr+7ZNSoPCd8M005UPB5zjvkLVPPsVFQ7AgAAAAAAAACA64FKvpjCK912R6kwW7foGT3vi/15qGBlYLxKvuA5GmjV02FVbTkqyi7TzryFUs9IlYCekecLrwBsDzTpJ52H7JymmvARPW+uxRG/mnEMlXzZlXqn0LkHmSrBN/RSx8nB84ucz3Y6n/mdz+I+T7Nc5xPFKpkvdR2s15YDw/82E6dQW/etUUnMKrvhvEq+DDUfP6uS5Quk7rOqffltHT0XvM4s+Qt61B6ssJtIJV/pw6rb4MyhPjUfbNaBA7Y60OF3PtvofJY7GdWOAAAAAAAAAADguqOSL6bz2t3Z6rz79HhelGq29NX6lsnABk7r1yMEfGPV3nM0YtnK8zp1oV7lLc+NKuAbKzcIPB0M+IzzeqWjVlWdAffoAV8iqvlytNmElI4jbbXaGBLwGe79tXnPe5UvTjXfuWN64Snn2h6rneSAb2JMwGdCyKqnzJKZodcZEvBNSJaqv2oCPql5z369EBLwGe1Nr2rLnrNOK0P33U81HwAAAAAAAAAAMw0hXzwXTumIefcVaZ3bMaTIt8hdbvJI5yj3oRuF4BKh/rxH9GL+EhWle/2TK6DDgejBYfB6lJYde8nS0UpfrFWmanCgSS/Fqgq0z9uftXji811vx1+f3BCy4G7dZ5YV7W7RgSava5im99XsvOUW3x22NCoAAAAAAAAAAEh+hHxxndRLbjXbQj2U7fV4cvS3WaaMr1WvxVzGchz6D6n8RJOODPj0QJ7Zg+8ZvVPqvIrNXnxTFfpFkZqlu21z3NKyvKAptVR15p6ivir0gHty8uvq6rWtSXKH3YNvfrF27qtRXdTXGpW4JwMAAAAAAAAAgJmGkG8EwWq2B/JWD1WXZZe5e9m1dx7VK7YrYfoPaWPLc1p6Yo+e7mzVkYGA2lOHQr/GRUuSv8oNAAAAAAAAAAAAE0LIN5L+Q/qJKeZLXaS/tZV063xmb7nYy1wmRL/ZF69eG1tqVd5kQr8GHRmQ/L4K7cyPs2ddIgWr7wZ6dMbtmIBLPd7Sn4EGLTX3E+/VkrglUBNifobybXPa+LBPXeb9+Ovu/oRxX08dC9uvDwAAAAAAAAAAJD9CvlF4JdDq/NenVT4Tri3RQ2alzoHT+nW/+TRxirLjVOn1n9TGTnMdkj8tbO3QCfLpzjTbDJOjzXkmzJTae94dOXQbaUnP/nd1eMB5963U5oksO1qwQlt3eMtR7lqfZTsn2zzdXmCbiXauV93mPUaQ6F//kMrN3nuRzp3R22bg8hJVT9a1AQAAAAAAAACAaYuQbzQuHNVeU0WXtVjrsovcfeOOdCa42ix9tXYWVqiutMZbkjM9vFqvKH2JXiy0odulRG4EKD1Q+IwazZ5/9ljOXJuLN7hLkpp9B3/SEa9i8YI+MOGdFupbEd+xLizMO6/dbkjp0+PLou0xmKN1+ZVqLK3UOtsTTVlFsUps6JW79qFJDrja9OZx856h8idWqCx0roIslZUmImTs1YduyrdANZsKvcpJw/n+6k3V2rk2w3ZE6tH+X5513p1re7ZaW9c7Y8OehXN96x/Wrn0Pq8z2AAAAAAAAAACAmSPlwdVrrtl2TL2BHtsakp/vV0fHjbMIYFF+jeryTAmf0aqnm+rHtB9fcHx75x6VxwjNirJX68m8Uj3ghmsxDDSpahTLWY48X44N8gJqH/DJH3XOgPaeqNXuESoWw59NCLM05+mT9sAT89yggVbtba2POWfZphrVLLcH6lPj9v3af84eToaCFdr1bLFy7WG4s6p97FUdtUeGf70XzHUdrNeWA8P/3URV+rDqNiywB+HM9zTkVjr3HP1eg/PF1H1WjS+/OrnPCAAAAAAAAAAATDkq+UbpVMcbOmLb7Z1HxxTwjdapC4e0seU5VbU16ciA2QhwSLsJv9r2jCrgG5OB09rmztnqzGH7HO2BJj09ioDPONVRq6pOZ7w9dpnrDQyvODTnmv0F9wYCEecHdKSzwbm/2AGfcbShRc1u5ZsJwF6b/PDq3DFt2f66M2ef7fB0mfBsz9thAd+4Nb2qbXvOOt9pjw3n+2u317pBYUdX+Nyh2g/sV5VzfY3H7R59Qc71Nh98XdueIuADAAAAAAAAAGAmopIPAAAAAAAAAAAASDJU8gEAAAAAAAAAAABJhpAPAAAAAAAAAAAASDKEfAAAAAAAAAAAAECSIeQDAAAAAAAAAAAAkgwhHwAAAAAAAAAAAJBkCPkAAAAAAAAAAACAJEPIBwAAAAAAAAAAACQZQj4AAAAAAAAAAAAgyRDyAQAAAAAAAAAAAEmGkA8AAAAAAAAAAABIMoR8AAAAAAAAAAAAQJIh5AMAAAAAAAAAAACSDCEfMJ0VrNCuHQ+rzB4CmD7866u1a1OhPQIAAAAAAACAqZXy4Oo112w7pt5Aj20Nyc/3q6Oj3R4hvhxtLt6gx1Ol9s4GlXectP0JkL5ajctK5beHgwaaVNVySKfsIZJQ6cPatWGBcrvPqvblV3X0nO0HwsxRdWWGyudJXSc+0Za3Ltv+JORL165H05RrDwddvKRt9f2abv8fx4R8O9dmSMdfV9WP2mwvAAAAAAAAAEwNQr5RsSGdxhmchQVxrXq6qV6vuO1YxjAfIV/Czbn9h/LlzrdHo/DpLxQ4Wacr9jAhTAXfs8XK1VnVPvaqjtrucEPhTlgIcs9c1a26ybTUfPiCXnjPbUblvydd65ffpJJ5s22P1NV+SQ3N/ToasB3Xnb1PTc+gZ6Ki/gYXL6vhXz4Z3W8QFoxdVu2PnXFuOwldl5BvYv+OgkFf18F6bTkw/P9XAgAAAAAAAMBkYbnOqdD/rg4PeM32zlMjBHxj1H9I5U3Paengq0FH7EeYIgMfJTbgU5aqnzABX58at8cK+CJcvBIlALmqD3ttc5g5qv5ypnauSgsLl4xcf5pqHs3U1ntsByaN//4Yv8G8m5zfIFu7vnzT8AA/UuCy3r7oNbtOXE7egM8I9GvLjy+oavD1iZrtR1NizP+OnP+bfmC/ao87v9nah1RdYDsBAAAAAAAAYAoQ8k2J89rd4oVwCV2qE5Piykff1Z/f/q9hr0BXt/vZpx+E97uvM2+4nyWKf/1DKp8vdR18TfsnZYlOW7nkN8HSVTUf7tO2wVClT7UnLqtLs1WywKtiwiS5Z652Lhv6DYaCrQvadviSmi+awDVdX/R5p8d2RfvrvXFJvVRnEjv6o9fVLOff1BMrRg5lAQAAAAAAACBBCPlGJVt3ptrmlJjq+SagYIW27qhR3b4a7VqfZTtnnjmpZvnObl21FZmTp1DrzR5f3S16ccSl/67oI1vBFab3qrpsM6p70rylCc3Sjj/r1QvvhVYvXdHRtz7Rlp/1qeo30yUwmq073OudWcpsiGr20TO/Qaj29/r1Qn2ftjm/z/5ps2zqTDXOf0dh2nTgYJ80v1jrS20XAAAAAAAAAEwy9uSLJbtSjXkL5R9N2BZo0NLTwQo9u59ejHHtnXtU3nHeHoUY93yRlujF0go9MJY9+dKXaHPeSq3y+QarUNoHWvWT1nq90m87YijbVKOa5fbAXV5y/yRVnxl+3Xz3f1N6xnzNsT1X+n6h/q46fZr6Xd12Z676/+27+vdL9kNrjq9K6bn36eabg/vsdTvj3vbGRZwb3Urdct+TulnN+vjtH+pT2xuLt6efhq4lzRl/V8XQ/J863/O+8z3R5i59WHUbFox6f6+yL2erxvnRuk70actbNiga3Ncs2v5sQ/uPjbRfX5jgd8bcGy34vVfVGDWYmqOy+9NU4b9JuYOB3VV1tffrxebLao88/5652rU89Nw42j+JGkh6e92ZpTBtR3A+59zI6/eeo3lel3T7l+eGVDmaENQsbRrZ5w6bkKi/3YiGfr9oRvNdfufZbhzh2Q59j51vcD9E53d0nkWF8yyC++aZPRxf/E2c/fJ8N6m6JF33hY65eFlvH7+k/RHh5nA3aeu356pk1HvyjfHvzBr7v6MogvtoHn9dVT9qs50AAAAAAAAAMHmo5ItjVIFbAk31fEZRfo3eWVahx0MCPsOfulDPL3tGjfk5tuc6S6uS774f6JaQgM+Yk/E13fJffuj0lzhHXboSGZz5vivfnV8LCfgM5zuC43yhdx1D2u3enH1vjRjwGV7Vn3ctJvC77b88GT7/zc4rRrhY9vkFzn/79PZbIwd8RsfFq+57d19IWBK4IndxUeezDrcjhO8m3eeGH5f1ZgKCqtG5SVsrM1SzLDJYmq1c/1ztNPv/3R/6q3pGFfBFZYKpbLvXne1y2fm+nanqqEtgzlGFCbTcMM+YrZLl6ar+ckTfqrkqs0cTcfSsF0zmLktT2YhLciZGmbsP4yjD01DzZivf+dtxf8eQsM4wezjurEyPskylCUczVfeoF5CGjZl3k8pXZSR438fx/Z0ZY/53FM25M3rbDFh+V0L+PgAAAAAAAABgJFTyjco4quMimDCtLs8Xu5IvzETmG8PY7Eq9U7jQaQR0pPMNvdRxcvD8Iueznc5nfuezvSdqtTtWRZ9ZrvOJYpXM16irz8YuWEnn+PQX+vj9oQq8Ob7v6pY7S7wQzvkscLJOQ/8zvV//ackPlH5ztz794P/Sx4Hg36vfGfeoHdcdtfovjDPHbc65V7q+p8BHI/3N2znlXEvX7fKZcX0v6eOuN2wA6dfNPudSB68lVJaqd1SqfP5Z1T726siVQ8Y9c1W36qaIqrzI6qsQ9vxY1W8xTaCSz39/prf33MXLqv2XT3R08LM58t+T5laVqT1eBdrYqrkG53Or7kKWwjQVZX8zd2ip0pDqrGAllxnjXX/wfqL3jakKMo6heR3O82kcVXXbcMF7jlvJF/ztzf04zyU4j6l43Lhq5MpPT+TYuW5oaAx7JnY+U7XX8C+XnN89eF2m2m6uatzfaKQqudH/9hP6Oxvrv6MY/OurtXOtJrmiGQAAAAAAAAA8VPLdsHK0Oc8EfNKRtlptDAn4jFMX6lXe1uq0fFrli1PNd+6YXniqVlWP1U5SwCfdfLcN+Ppe0p9Phi+xeSXwQwU+aPYOBj4KCfhCfPq2+sNCtXZv3Nvf08cjBXyOOTd7NUhXPh3N/8yfp9nuxd6nW+7M1acffE+BM8GAz2iPEfAZmbrDFPx1942ucmjQVX3Ya5uhLobutefxZ0SvZJoKZlnHoeDFcK7vvU+0pf5CnIBvjHzp2mgDPhPMhe11F7is/fV9anT3X7tJFVGqusz+eF5AeUW/b/equ0L7ou7dNgFHf3NB205c9vZ+s9Vtdd82FWc3aRQ1pmMS/O3NcqOhQaLZ/2/LYRP43qQvxKusM+HZjyPHfqJa+0c2P/Jvy/ls28+c37beBG6hv6/Z97HXjpuj2xNcxTj+v7PR/zuKL0N33GGbAAAAAAAAADCJCPluVOmLtcosDzrQpJcueF3DXDilI86bP2uxiryeqZdWpfQM591U6Z15w+uL4dO+yM/bdWXAebv5a7rl7pWak+b1Dmkf1Z583vKb3bpqvmskwaU9b56vKx98N6R6cJK894mqTPASEWrsr78wtkq9SdT+vhdi5S6b64VXk7k0ZaZdFrK9P+KZBDnP5rhdJtM/PEgLW67RCu0LLuuYSO1vfaItP76gbYcvqdkNEWerxHlWZlnRrfdMbSg7LKgbdFWNpjrOHoWK90wG98DzzVHZPena+uVM7arMVN23gxWMs3VHpnvGhE3o7yxB/47auxKcAgMAAAAAAABAHIR8N6q0LC/gSC1VXekzeifqq0IPuCdfP3My7nNDsyu9xxSrBsertIsewn165nv6uK/b+Z4n5fsv/0u33fdD3XL7Si+IG5WVusmEjNH2+4sm1Qv5zNKeH0cNma6v9mBgNW9OwivFYgr0a8vPTIBlw6tHs92Qp67SVqwlMPQLVqt1xQvjeq/ayrnZync7pgdTUfeCCZV+9oka3SpCs/9f4vatC/727p6Coc/c7LVnl9yMFnJOhFkKdGul81s/mqEas0ei2ZvPee6TYgr/zgAAAAAAAABgOiDkw7QWrKK73BerIs6vmzPNObFCuHZ9eua7+vO/fU8fdzXriubr5twn5XPDvlHEXMHKvL639KnbEd/NGSXOf+Nd73V2vQKuQDDA6lPtictqvuhch3MNwTBm15eHV9XdsMyyor/p1bYTXlBZsjw9Mc9mcGnNm1QTDMDM69G5Mn+1Zp/GAwnYZ3CQu19fmkrMfn4Xnd/8hDO/8/tvc15VP74wuMxnQl3nvzN/7uDmhQAAAAAAAAAw6Qj5xiI1S3fb5pSYzPku9Xj7TAUatLTpufivlkNh+/VNL3YPvE9j7McXdKndOcXsw/df9ed/e0mffmrCvv+m/zRsCc8Iwcq8gU7vOC6/5pglUEdb9TdMrz7sdt7mZ0xeABe4rLfj7Ek36QJmP7ZP9EJ9r7tEpalaM0tU5vrnauNI1zOGYDJutVhwSc+LV8e49+HUCi4/mVhecBj+vVfdAG7bby6Pce+5eILVgVfVeLhPVfXOb/7WZXdvvvaw/fkmyUT+ziasTx9+aJsAAAAAAAAAMIkI+cYkS3el2+aUmMB8IwWE/e/qsFne0rdSmydyTwUrtHVHjer21WjX+izbmWjzNdsNzyL5dfPdT8pkfBqIDPlWevvw2aMwl95wq/pif+8QbylQ6cqno4k/Rhk4xtSjj86b93m6vcDtmARX9Ht3KUhv77LqWEsY+m5Sdeh+cIErMvljrKDNf/9clccoYvLfE6d6KnBZLwT3yIsXzLnm6PYRllwcDMb86THubY6ql3tLU3a1JzLUGruyL4+w514wjEyUe+a6++A1/uyCF3wNvnrdAG5SnsXFy/r9e9H+NTi/pW2NyigC3sT9nY1Xlr5YbNb2vaiPznk9AAAAAAAAADCZCPlG5aRec/dX8+nxhau1LjQUS8/Ruuwce5AoE5nvgj5w96ZbqG/lL1GR2+dIXxL+PTqv3Z2tzrszx7IavWjODfvcmSe/Uo2llVpne6IpqyhWiVkt05G79iFVJzicujLgRku6+c7v6uaQqrs5virdsuQHusXdL0/6tO8Nr2HNub1CN5t9+Jb8ULf4/OFhX9pK3ZLrLlA4ouByodH2+xsmuLTnsMBx9I7+4azz3wzdd/9kBaZS+1ufqNGt5put8kftfmXuJ8Yc+e+Zq12PzlX5qtAQ8Ko+tBWANaFLHvrmqPrLmdq5LEZw4kvXRud7dn4701sq0Tk/lD9kP7jY++hd1ptuAuVc79+kR+wnN0dlYWFkvxqC55p7C/3MBJeVGTaMvKyGt6agoiwW57lU+L0993ZVmj3yIp6L+Q3sc2k+3p+QAM7br3C27rgrfK5JNS9NG6P9fZnfIWYiF2ro764i9Huc3zL87yARf2cTVHC37jP/5+L4+zrq9QAAAAAAAADApEp5cPWaa7YdU2+gx7aG5Of71dFxPetgplj6ajUuK41RKdKqp5vq9Yo9iqYov0Z1eT61d+5ReYdbrhXfBOYLzjWMWZrz9El74Il5btBAq/a21mt3vz2OULapRjXL7YH61Lh9v/YntIplpW65z1brRfq0Wf29uUrPlfr/7bv694glMufc/kP5cm0CGU3fSwqceSNOIBecu1kfv/3Dkffk831Xt91Zoitd31Pgo/H+2yjU1n1rVNLdom1PHZvESrM5IYFXNFfVfLhXL4Tu0XbPXNXZoCRS14k+NczLUI3/qhp/1qv9bkjt8d+TrvXL7d5ssVy8pG31ccIsX7p2PZoWo7Ltsmp//ElIsDLyvUVeY9mXs90qt+bDFwbv2X+/F16O1Dduzj1t/Zv4z6Wr/RNt+Y1XgRZP8LrM77AlVngZ9xl6ui5e1tvHL2n/YPVd8FkOf2ZBseYO9kflzGP25KtZdtOIzzLm9zjPpirk2STk72wC/OurtXNthpr31OqFJtsJAAAAAAAAAJOISr7R6j+k8hMNOjIQ/r9yt5sQrO1o3IBvXCYw36mOWlV1tob/D9lmXOCCPRhizl3qzLM3EIg4P6AjnQ2qaokd8BlHG1rU7BXbqevgawkO+Iw39PG/vaT+PjuJ8Wm3Pv3gewqc/JmUaUK86HvgXfnou+7+e2ZsaOxxJTg+bsDnCFbm9b01csDnGNvSnrG06cDBPml+sTZO2vKnxhXtr7+gbYcvqTmssumqutovqfZnEQGf8d4nzvmX1eVWVlkmrDHLP751RR0xKqTa3+vXC1Hn8kIls2fbiMFLoF9b3H3Voo2/FFE5FXpvtstl7s25hx9HD6umnHNPL9Q79x75TB3mvmp/1jeqgG/UApfVYJdqjSV33k0qX5WhrffYjglof6s36t9LcI++o86f+Wi433MiYn9C8z1nw+8lIX9n41ao9WszpO4WHSDgAwAAAAAAADBFqORDErOVdp/+QoGTdfEDu6SSpeodlSqfPxmVkbgx2Yo8xatkm6OyL5tqTMWvCMQwXkUz/14BAAAAAAAATC0q+ZC8ErAH3vTUo/0vt6hLGSp/9mGV2V5g3Hw36b55Ulf75TiVbLGrMRGbWabTLFk8OZXMAAAAAAAAABAbIR+SV6oX8l0Z6PSOZ5Jzx7Rlz1l1aYFqdhD0ITFyl83V1nvmDNvr0++7SdVfDu59d1kNVPGNSnAfPh1/XVsODK94BwAAAAAAAIDJRMiHpOXtgdety30zdNnYple1Zbup6HMUuD3A+AT61eD+M5mtklUZ2vntbNWFvHY+Olfl/tneXnc/+yRij0PE03X8dVX9qM0eAQAAAAAAAMDUYU8+JCm//tOSHyj95mZ9/PYP9antBRCb/550rV9+k+bPmy0TkQd1Xbyst49f0u/fuxJnOU8AAAAAAAAAwHRCyAcAAAAAAAAAAAAkGZbrBAAAAAAAAAAAAJIMIR8AAAAAAAAAAACQZAj5AAAAAAAAAAAAgCRDyAcAAAAAAAAAAAAkGUI+AAAAAAAAAAAAIMkQ8gEAAAAAAAAAAABJhpAPAAAAAAAAAAAASDKEfAAAAAAAAAAAAECSIeQDAAAAAAAAAAAAkgwhHwAAAAAAAAAAAJBkCPkAAAAAAAAAAACAJEPIBwAAAAAAAAAAACQZQj4AAAAAAAAAAAAgyRDyAQAAAAAAAAAAAEmGkA8AAAAAAAAAAABIMoR8AAAAAAAAAAAAQJIh5AMAAAAAAAAAAACSDCEfAAAAAAAAAAAAkGQI+QAAAAAAAAAAAIAkQ8gHAAAAAAAAAAAAJBlCPgAAAAAAAAAAACDJEPIBAAAAAAAAAAAASYaQDwAAAAAAAAAAAEgyhHwAAAAAAAAAAABAkiHkAwAAAAAAAAAAAJIMIR8AAAAAAAAAAACQZAj5AAAAAAAAAAAAgCRDyAcAAAAAAAAAAAAkGUI+AAAAAAAAAAAAIMkQ8gEAAAAAAAAAAABJhpAPAAAAAAAAAAAASDKEfAAAAAAAAAAAAECSIeQDAAAAAAAAAAAAkgwhHwAAAAAAAAAAAJBkCPkAAAAAAAAAAACAJEPIBwAAAAAAAAAAACQZQj4AAAAAAAAAAAAgyRDyAQAAAAAAAAAAAEmGkA8AAAAAAAAAAABIMikPrl5zzbZj6g302NaQ/Hy/Ojra7REwSW6dpaXfmKVUezio9zP98Z8+0yV7OD1lqWz9faooXqDc+bZLZ1X72Ks6ao8AAAAAAAAAAADGg0q+OLIq5mjF30d/Lf3mbBUuTlGaPXd6SFHeN53r++asaXZdN6ayTZWqWRsa8AEAAAAAAAAAACQGId84pWamKPMrs3Uvgdrk+stneucfrujY4Ouqeu1H01uWbs/xWs176lX1WK19UcUHAAAAAAAAAAAmjpBvFHp/FRoyeUHTH3/1mQbMh5mzdM/KFPc8YJjuFh1oGr7cLQAAAAAAAAAAwEQQ8o3LNV169zO98ytvO8NUn/s2LaRm2gYAAAAAAAAAAABmrJQHV6/xkqo4egPDK5Hy8/3q6Gi3RzOT2ZPv7ru9Sr62d21nqFtnaek3Zim19zP98Z8+0yXbPejWFOX99Sxl3p2iVNs10HtNH/3yqnr+YjuiSlHa4lm6Z4W3LKjnmgbOfKb3Gq6Fz7N4tpaucL5/NOHemas65owfJsZ19h77TJ3vRp5v9v2brdsVvOcU5znN0u2hY93rjPI8rDTnmu8Z4ZoH3ryqd96I9qeZosK/n63MWM88mnH/DhNTtqlGNTkt2vbUMc3sfykAAAAAAAAAAGCqUck3AWkLbWjUGxG8OdJWztaKb8wOC78ME9rd/Y05Whpric9bU1T4zdm69ysmBAs9xzm+2+n/+9nKu9V2WeOv3ktRXkXs67z9K7NVuNh2RHI+T7PXenfk2LtnxdyrMMuZz7s32zHJxv07JMr8DOXbJgAAAAAAAAAAQKLM9i+48/u2HdPAwPB6qVtumaePP75oj2amtEWzlJnp3P97nylwwXa6UpS1crb8X0jRXzlHpuIt7PPFs1WyyoRH19T75md6r+4znf3dZ/rQefVeTNHce1KUekeKUs5c0yf93hBPigqfnK1Mk0aZSrPDn+ndRm/ch7+7pk9ne+P0Uch8F67Zz71z0v7aVhb+31cH5xx8nbZjgpzrXOzcg6lqO3fgM7W9FjzXmyvTmSvVudZPneOhv4AU3bJ8luamOp8vdeZKda7zV0PXae7vNmeMnM//6uLw53KvM595LuFj5D6Tv3L6z/zDVbU5fX/u8IYMlyKfuceBa/rz8Wv6D9sb1bh/h8QoWHGf7pt/UW83nNE52wcAAAAAAAAAAJAIVPKNQuZX5mjF34e+ZuvuL3iVYQNnrkYs5ZmivBUmWDLLfDqfvRFe5Xfp3at2L78UZS70zgtKWzlLboGbuxTl1YilMq+p5w1n7E8j55sA51r++NMreseZq+cvw+c6c8Y7So2oHBzU64Vyoddp7m9wnC/i/uzehea5hI8J7m/oPJNYlYNjNv7fYeKy5F//sCqWO83uPsXMKwEAAAAAAAAAAMaJkG+cBno/05mfXtU7kXvc3ZriVv+ZoO7DWGHcu5+p13kzVXJDS1qmyGcq4EyV2y/j7DUXFsZN3KXgnnTOdWctnqXCitla+s3Zbphp9iM015Wa5Z4Rwe5pZ49CXQqM/xojg8FxG/fvMAEFK7RrX43q9lVq59oFyu0+q8aX2Y8PAAAAAAAAAAAkHiHfKPT+6oqO/YP3+uObXoCV2nstovrNyvIq/JQ5S/eGVf+FvmZ7FXsRgvvUDQSDtymQZoK9bzrX9I3Zuvsrs5Rp9q4L2wswcS4FvPfMr8xWVmh1oNnb7yvenAMTCAjDTOB3SJQu5/WR1wQAAAAAAAAAAEgoQr4xuvSGV/2lu2cpL9YylsnC7JFngj234s3sW3fVrU78o/MygWZw2c2EGVzKM0V3fyMkbPuGDdvOXI1ddZcMzh3TlsdqVfVYvWoP9il3/gLVPLFCfvsxAAAAAAAAAABAohDyjdk1fehW86Xo9q/OGr7MY881DZj3M15QFvf1T9GX5Yy5B95oZY5m+clg9dw1ffQr51r/ydu3zlQnXkrwkqDhvO92n9EgL2D8Y0P4vnkTkoDfYfx6dPTAftUed5rzM5TvdQIAAAAAAAAAACQMId84mGq+j0w5X+Ys3bHY6xv0l2vqNZ+NudLPGWer3KKGh0G3jm7/uFEHhb3XFHg3Wqhnl7tMpMWz3X3+PvrpFb0TFrR5AeOYgraRgsxx/w4AAAAAAAAAAADTHyHfuFxT5zEvGMtcERnIBT9L0e3fmK3ClSlKCwuZUpS1craW/v1sZdmeoJ7ffeZVn5l95L45W3mLQ/fGc75nsTPO+c57K2LtmRceFEbue5cV9n2WM9c95hrt4eA8zvy33227EiTNZ/6botSFsa5/dAbc9VKdewy9bnN/Yc95/L8DAAAAAAAAAADAdJfy4Oo10cq4wvQGemxrSH6+Xx0d7fZoZsqqmONWnvX+6orahu0Vl6I8E4RlSgNvXtU7b4Q/xrSVs3XvF+KEWb3X9NEvr6rzL/Y46NZZWvqNWXGq6JxxP40yLiju+Gs68w9XFfw1416jc31n3pPudj4Pv//gfce+juD3DnsuI96bCfCuqffYZ+qMWl3oiXndZmnOhgT9DhOWpeodlSpXi7Y9dUwz+18KAAAAAAAAAACYalTyjdtQNV/qF2YNqwa79MZVHfvpVX10xu4NF2RCLLP/3D/FCJb+8pne+YerOvOmM86tWAtyjs8445zP4gZSZrwzb68zTygTnn30q88GAz7DXOMffxUxj3uet0dfT8D2JcpfnO92nkc8qZkpuv0rs1UYuQxqCPe6zfOxxy5z3W22HWLcvwMAAAAAAAAAAMA0RiUfpoitANRn+uM/fRZj/70UZVV4+/ZFq45MLlTyAQAAAAAAAACAyUMlH6bGrSnKNEubvnctRsBnOJ8FkjnYi2J+sdaXsusfAAAAAAAAAABILEI+TCmztGnh4hSl2eOgtFtTlFcR3D/vmj5K6io+o0e/b+lzWyUbKlW3r8a+HlaZ2wsAAAAAAAAAADB+s/0L7vy+bcc0MDC89uqWW+bp448v2iNgBP3XdPXWWcrMTFHqPbN021/P0h0hr9uWztJc5zN3b70DV3W+345LYhff/ZP+8FdZWvyfM/Sf/7Pt1EW93XBG5+wRAAAAAAAAAADAeLAnH6ZU2uJZumNFilJN2Gf7jIHea+o99pkC78ZbzhMAAAAAAAAAAAAGIR8AAAAAAAAAAACQZNiTDwAAAAAAAAAAAEgyhHwxmEpFAAAAAAAAAAAAYDoi5AMAAAAAAAAAAACSDCEfAAAAAAAAAAAAkGQI+QAAAAAAAAAAAIAkQ8gHAAAAAAAAAAAAJBlCPgAAAAAAAAAAACDJEPIBAAAAAAAAAAAASYaQDyFytLn4Gb1T+owa85fYvrEKfkeNNqfbLiSlrPU/1Hf2/S99pdR2AAAAAAAAAACAaYOQD0PSF2tVqtf05xVpndfEFPPCte9qoT2Ob6W+su9/uWFc3Nemlfb80fLrnuL5znu3+j70egAAAAAAAAAAwPRByIch/e/q8IDXbO88pVe8JqaUDde6P1LA9sRVer/utM14+ro6bWu08pThZnxv671zXg8AAAAAAAAAAJg+CPkQ4rx2tzynpU3PqbzjpO3D1LLh2vmP1ON1xNf0Q/3jY/918FV3sNvt/mDPUJ95/c8D7W7/qBXcrgzzPtrrAAAAAAAAAAAAU4qQD9dHwQpt3VGjun012rU+y3YiWJn3wR/e8I7HyJeboCU27/BCvrFXAAIAAAAAAAAAgKmQ8uDqNddsO6bewPBanvx8vzo6xlgdlERm+v1JOdpcvEGP2z34IrV37lF5x3l7FE2OirLLtDNvofz2O9oDTfpJ5yEp7xk97wto74la7e73PotUtqlGNcvtgfrUuH2/9k/SspBmj7uqtVLz9u/q92aOgpX6yhMVunO+CcQc3c167eUfqjXK/Fml39XffrXEq65zdeuDgw1668AbcSvcspw57qlw5lg+36uIc/Qd/4V+/aO6iHHOtewIuZa4nOt8zLlOezSc2Z/vSd054nlBfi3c9N/0+Yhr/ENDnQL3m2c2360I/FWT/RAAAAAAAAAAAEwbVPJhHLyAsK5wKOAz/L5SPb+sRt9Ksx3ThFfd1qXec17g951nnwwP1UxzWMBnwrf/paoNoQGfMV93rn1SVTuqFL3+0ARnP1SVM0dJSHhmZCz/mqr2/VBfLLAdhlkWc1QBn2OkffqCS2wef2vkgK+gSv/nvh/ooSjX+NCz39X9Zl9ANet9Aj4AAAAAAAAAAKYlKvlimPmVfNEV5deoLs8Xt5Jv3SJTqWdaAR1p+7k2XvDOK0pfoicXVugBN/iLX8nnLtf5RLFK5ktdB+u15cBk7fzm1xd3/EAl+oXqfnm7G9r1HX9Jv254Qz1usOfXwlKptSn0tw5WxNmqvbeC5zoKVuqLTzzpXvfwKjc7l5vZOWP3/F96y/le786cedY/qs+vLVFGt3MtT0VW9Bl23pifj6D0u/qOub+D3xthD77g/TmcuV57uW6witGtXDTBpjkY73UAAAAAAAAAAIBJRyUfxiZ9tb5lAz4T4gUDPuNU/0ltbNmjvQO2I55zx/TCU7Wqeqx2EgM+I89W4t2nv92Qqw/2fE//80choZ3aIwI+aeEmu+Tl9u/qV2ZZztAqv3Nv6Pcv/0J9TjMj1+/1WVnr/5sX8Jlw7DFn7GDAZzjzHPih/uf2l9xQLeodByvxzn80rmAtKzfXfe/rih9Oe/fnOP6S/vGpoYDP6GlyrnFPs3t/470OAAAAAAAAAAAw+Qj5MDZpWXKjrcAbsav0ppNgcDZ/vvr2eMFbfCt1l7tXYIkeevZ/6Tv7orye/VrYEpeelbp/rUn4mvVavOq3c29E3fvPdYd3rR/84Q3veEz8umc0S2wWVOnz5v5MEPmj2POY6+jr6vQOAAAAAAAAAADAtEPIhzEpSvV2omu/dMF9n/ZscGaWsAxfWjOG0vu9KrexGst+eDEs/HyJ899u9X3oHY+NrVgcYd++rPvv855Hy7GYQeRoKwIBAAAAAAAAAMD1Q8iHGS0YnH3w1ugCq2DAZfbb+8fH4r/C9r0Lhonjrn7zKzPHvHepN1alXzyjXOrTl+smgXGexygrAgEAAAAAAAAAwHVFyIdx8adl29Z0Nv7gLHK/vclnK/HGWwk44ZAxaHQVgQAAAAAAAAAA4Poi5MOYnAqcllsD5ivSOrcnQnq27ky17XgKVmjrjhrV7avRrvXeEqCJN/bAqqery33PKF6hWFeVVeof/tmHH6nPectY+6gWej3DFayM+Z2DlXjjNLaKxfnKuMM2w/i1cNOT3nKlI1QEAgAAAAAAAACA64uQD2PT/64OD5jGQj1fXKl16W6vqyi7Uo3LKvSAPY6nrKJYJSaAc+SufUjVBV47oUa5hGWYprf0gXmf/zVV7ajSwpDryipYqS9u+qGqNvxA95fazqBzx/RBt2mU6KEd33XGhVQCOu2FzrjvPPuk/nb9CBWCyyv0xdKhc7w5neuwx9GNvmIx0OVepO7cYK7RbbqySqv0lR0/0EPLveOJVwQCAAAAAAAAAIDJlPLg6jXXbDum3sDwiCQ/36+OjtHtc5aMZvr9xVKUX6O6PJ/aO/eovOO87Y2QvlqNy0oVNa4aaNWRSwv1gC+gvSdqtbvf9kco21SjGhsoSX1q3L5f+8ezF108pd/VdzaUqO/g98L3zxuJHRdL3/GX9OsfvTE8OCyo0v/57NdiVuT1Hf+FM64uRuDo1xd3/GAw+Ixk9gj81eAeefHPHdT9C9U9FTnfSn1ln63Wi9TdrNdacvXQWql5+3f1+0T/HgAAAAAAAAAAIGGo5MPY9R9S+YkG7Q2ELoIZ0JHOBlW11OulSyMvjnm0oUXNXlGZug6+lviAz5GVm+u+93WNMaxt+qH+cftL+qDbXqBlQrrXtv9X/c9oAZ9xrk7/87Hv6bXj3e7SnYO6m9W853vOuFgBn9Gu3z/1PTU7Y0P1meDNmXMo4DPsMqQjiVrB+IZ+5dxb2DzOfX7gXF/dUz+0y5qOfQ9DAAAAAAAAAAAwtajki+FGreQDAAAAAAAAAADA9EclHwAAAAAAAAAAAJBkCPkAAAAAAAAAAACAJEPIBwAAAAAAAAAAACQZQj4AAAAAAAAAAAAgyRDyAQAAAAAAAAAAAEmGkA8AAAAAAAAAAABIMoR8AAAAAAAAAAAAQJIh5AMAAAAAAAAAAACSDCEfAAAAAAAAAAAAkGQI+QAAAAAAAAAAAIAkQ8gHAAAAAAAAAAAAJBlCPgAAAAAAAAAAACDJEPIBAAAAAAAAAAAASYaQDwmQo83Fz+id0mfUmL/E9o1V8DtqtDnddk1Ior8PAAAAAAAAAABg+iDkw8SlL9aqVK/pzyvSOq85CWxwV7xaRbYHAAAAAAAAAADgRkTIh4nrf1eHB7xme+cpveI1MSZZKlv/sHbtq1Fd8LWjWlvXF8pvz4jFX7pCW3eEjNs3ueMAAAAAAAAAAMD1R8iHBDiv3S3PaWnTcyrvOGn7MGoFJmyrVM3aBcq1Xa75GSpZu0Y791WrusD2RfCvr9bODcUqmW87XHbcjhUxA7vxjgMAAAAAAAAAANMDIR+SSLbutMuCThk3gPMq3Xatz7KdiZSl6idM2Nan5oOva9v2WlU9Zl/bX1dztzknQ+UVhe7ZYZxr27g2w2mYsfXaFjlufrF2bkrgOAAAAAAAAAAAMG2kPLh6zTXbjqk30GNbQ/Lz/eroaLdHM89Mvr91i57R8z7pSNtz2njBdhrpOe5ed6f6z3vHlnd+QHtP1Gp3v9kXb4MejxG2tXfuUXlH+PhwzhzZZdqZt1B++x3tgSb9pPOQlBc6j/eZsivVGHJuXIEGLT0drCQMXufQda9b9Ii+5fMNVqmZebedPqRT9jiask01qlluD9Snxu37tf+cPUyUgiyVqUdHo31vwQrterZYud0t2vbUMYX+RQavretgvbYciPw3Wqit+9aoJMo1j3ccAAAAAAAAAACYPqjkuwGduRRw3wtSc9x3T442L9ygumUb1Jgf3n9XmvM2cFq/DgZv4+YFb3WF4aGd31eq55fV6FtmnihGFfDFk7ZELzrzPh8S8Blm3rri1W6weV2dixHwGXdkhC/hOahQX3DDx7NqGBbUGW06cLDPec/QHXd4PZ7xjgMAAAAAAAAAANMJId8N6NSAF+7407Ldd1f6Yq2yYVrU/ksXbMXb0P57oa+qTi84jGfdomAFYEBH2vYMjT3RoCMDvuhh3oX6kHmc80zfQJOqBvtCXoNVfKF8erywQg+Yir7QOdtavY9TS/VkyO1GOtrQYpfMNJVvr01ZZZvfVPetf1i7NixwjvrU+HJ4FZ8KMuVup3f8fR11OzyhIWZ710X3fX5uyDKj4x0HAAAAAAAAAACmFUK+G9GFU15YlpY9VMWWliW/WnXEZHXD+qX2S6Hreo5D+mp9y2ca3vKZGy8MLel5qv+kNrbs0d4B25FoA616uqlWu0PnvFCvp20uGV7RGOHcMb3wlLdn3fClLRPMLM25z9v/b+ezlapZO086/rq2PRZl2Uxb4dfV1esdu8tsOuNC9w78sE9dzltubqZ3bIx3HAAAAAAAAAAAmFYI+W5IF/SBCdRSs3S316F1voXSQI9eM0t5pi7S36Z7/UXOOca5gXj77I2CDQsVeGNov70pEdDe1nq9Yo9CBZctnb4ylJtzl75YOoqKutK7VGKbYwrnxjsOAAAAAAAAAABcV4R8N6Tzev+SeV+oh9ylKu2+e5cu6BV3KU+f7rT7492dZsrvWvXaBAv5gmHhhCsCZ7Jzx7TlMa9qcNv2etUePKsuLVD5hsqhKrsIg8Fc09tqdJcV7VPzH9rcrnjGOw4AAAAAAAAAAEwPhHw3qGAVm7dUZbbuTLUB3KUed+83r3+JHjIZ30CPzjhvmDrt53p09MCr2vJUvRvC5a59SNUF9kPDLqk5pEf73WVF9+uFJts1bGlOx3jHAQAAAAAAAACAaYWQ7wZ1KnDaDfP8adlSdpEecNrukpz97+rwgNOftVhF6dlyc6VLF3TKvCeAO99EhSwzOvP16Pctfc57hu67P6Sa71yv3AK85XepzO0Yzp87z33v7grZS3C84wAAAAAAAAAAwLRCyHej6r+gc+Y9LVvr3KU0g0ty2qU8TZBm99FLxBKbwVBRviKtc3sipHvVhKOTpbvsnoGTrmCFtu6oUd2+mphLZk5Mlqo3rfD2K4wqS18sznBb4aFbm948bt4XqCLqdRVq/Voz7qzeDFboucY7DgAAAAAAAAAATCeEfDesC/pgwHlLzdJDZt+9kCU5Xwm0Ov91+s1SnQrocOC8aUyMrRA0+wA+X1ypdSEhXVF2pRqXVbjVhPGd1GvuKqM+Pb5wddh3KD1H67LNEqOJVVZRrJL5XnvYkpkJ4F//kMqXF2vnvmptLfVC1SB/QaGqd1Sq3J1/eOh2tKHFXXozd63Zs69waKwzbuuONSox7ePv66jbOWS84wAAAAAAAAAAwPSR8uDqNddsO6bewPBl+/Lz/erocGuzZqSZfn/GukXP6Hk3yHMEGrT09Emvnb5ajctKbfjTqqeb6vWK246tKL9GdXk+tXfuUXlHjFAw7HsjDLTqyKWFesAX0N4Ttdrdb/sjxfuOsGvN0ebiDXo8Nfb3jeaayzbVqGa5PVCfGrfv1363BDJx/Osf1sa1C9x98KLrU/OekD3zQvjXV2unW3kXRXeLtj11zKugjDDecQAAAAAAAAAAYHqgku8G5lXseY4EbMBnBJfyNEIq/Cas/5DKTzRob8Atx7MCOtLZoKqWer10KbQ/BvsdRwbCz20faNXetqMjhpFjZaremt1N7KSug68lPOAz2g+8qi3bX1fj8T63wm5Qt3N8/HVt2x494DPaD+zXtj3mGs2+fUF9aj7ojIsT1I13HAAAAAAAAAAAmB6o5IvhRqjkAwAAAAAAAAAAQHKikg8AAAAAAAAAAABIMoR8AAAAAAAAAAAAQJIh5AMAAAAAAAAAAACSDCEfAAAAAAAAAAAAkGQI+QAAAAAAAAAAAIAkQ8gHAAAAAAAAAAAAJBlCPgAAAAAAAAAAACDJEPIBAAAAAAAAAAAASYaQDwAAAAAAAAAAAEgyhHwAAAAAAAAAAABAkiHkAwAAAAAAAAAAAJIMIR8AAAAAAAAAAACQZAj5AAAAAAAAAAAAgCRDyHfDytHm4mf0TmmNNqfbrikXvIZn1Ji/xPYlynS4PwAAAAAAAAAAgMlByIfrJ32xVqV6TX9ekdZ5zWnEBoXFq1VkewAAAAAAAAAAAKYDQj5cP/3v6vCA12zvPKVXvCbGJEtl6x/Wrn01qgu+dlRr6/pC+e0ZsfhLV2jrjpBx+yZ3HAAAAAAAAAAASBxCPlxH57W75TktbXpO5R0nbR9GrcCEbZWqWbtAubbLNT9DJWvXaOe+alUX2L4I/vXV2rmhWCXzbYfLjtuxImZgN95xAAAAAAAAAAAgsQj5gJiydaddTnTM3ADOq3TbtT7LdiZSlqqfMGFbn5oPvq5t22tV9Zh9bX9dzd3mnAyVVxS6Z4dxrm3j2gynYcbWa1vkuPnF2rkpgeMAAAAAAAAAAEDCpTy4es01246pN9BjW0Py8/3q6Gi3RzPPTL8/b7+5DXo8NaC9J2q1uz9H6xY9om/5fIPVWO2BJm07fUin7PEw6Uu0OW+lVoWOGWjVT1rr9Uq/7RgUnM8eRmjv3KPyjvP2KLqi7ErtzFsof5zgbeh7xnl/zhyNI8wxKNCgpaejVyCWbapRzXJ7oD41bt+v/efsYaIUZKlMPToa7XsLVmjXs8XK7W7RtqeOKfQvOXhtXQfrteVA5L/tQm3dt0YlUa55vOMAAAAAAAAAAEDiUckHKW2JXizeoOdDAjDD7ytVXfFqFdnjUEX5NXpnWYUejxyTulDPL3tGjfk5ticx1i2qUV3hKMO3SGO8v3HNcT2cixHwGXdkhC/hOahQX3DDx7NqGBbUGW06cLDPec/QHXd4PZ7xjgMAAAAAAAAAAJOBkO+G59PjhRV6wFS8te1x98czr6q2Vu/j1FI9me01B2VXqi7P5zQCOtLZoCo7JjjOVI358x7R5nT3bGto/73QV1VnwH4ehzOfCejMfOHX2GQr1Fr1tO0bXg04xvu7UD94ztKmBh0xfQNNYfc4+IpRxWccbWixS2aayrfXpqyyzW+q+9Y/rF0bFjhHfWp8ObyKTwWZcrfTO/6+jrodntDws73rovs+PzdkmdHxjgMAAAAAAAAAAJOCkA/SgAnJarX7wlBAdupCvZ62+VtBamhVXo425y10W0faarWx42TYcpdmXLkboPm0ypeYar6iVC80MvOFX+MhO9dCPRQZRIYa0/0lyLljeuEpb8+64UtbJphZmnOft//fzmcrVbN2nnT8dW17LMqymbbCr6ur1zt2l9l0xoXuHfhhn7qct9zcTO/YGO84AAAAAAAAAAAwKQj5bngB7TV76NmjUGcuRamyS1+sVWY5y4EmvXTB6xrmwim3As6ftTjqUp+TIXZQN8b7mxEylJtzl75YOoqKutK7VGKbYwrnxjsOAAAAAAAAAAAkBCEfxiYty1uiMbVUdaXP6J2orwo94J6cGKcGvEq4BwortS50CdD0JXqx0KsqPDcQuUznDeTcMW15zKsa3La9XrUHz6pLC1S+oXKoyi7CYDDX9LYa3WVF+9T8hza3K57xjgMAAAAAAAAAAIlFyIfpb3BpzYV6fllImLjMhomBhthVhTeY9nM9OnrgVW15qt4N4XLXPqTqAvuhYZfUHNKj/e6yovv1QpPtGrY0p2O84wAAAAAAAAAAwKQg5MPYXOpRu3kPNGhp03PxXy2HwvbrmxhvaU137kEBHelsUNXp8H0BEy41S3fbZvLo0e9b+pz3DN13f0g137leuQV4y+9SmdsxnD93nvve3RWyl+B4xwEAAAAAAAAAgElByIex6X9Xhwecd99KbQ5dOnMyZVfqeZ+098RzKg8LEmu1sWOSAz5Xlu4a670WrNDWHTWq21cTc8nMiclS9aYV3tKpUWXpi8UZbis8dGvTm8fN+wJVRL2uQq1fa8ad1ZvBCj3XeMcBAAAAAAAAAIDJQMiHMTqv3Z2tzrtPjy+r0Yv5S1QUFoDlaF1+pRpLK7XO9kxUUaoJlXy605fjdUyZk3rNLSB07nXh6oj9AJ37zI59PWUVxSqZ77WHLZmZAP71D6l8ebF27qvW1lK7T6LlLyhU9Y5KlbvzDw/djja0uEtv5q41e/YVDo11xm3dsUYlpn38fR11O4eMdxwAAAAAAAAAAEi8lAdXr7lm2zH1BoYvv5ef71dHR/jiiTPJTL8/E8ZtLt6gx1MD2nuiVrv7bXeIovwa1eX51N65R+Ud522vJ/hZTAOt2ttaH/V7Q8WbY1D6ajUuK41TtSa1O/Md7jyq3ReC3zGx+xsUd+5WPd1Ur1fsUaiyTTWqWW4P1KfG7fu1/5w9TBD/+oe1ce0Cdx+86PrUvCdkz7wQ/vXV2ulW3kXR3aJtTx2LWBrVM95xAAAAAAAAAAAgsajkw7ic6qjV0hMN2hsIhIc6A3afvJaRA75R639XP3HmicefulCPF27Qi9m2I1H6D6ncuc8jzn2FMqHi3rajUQM+w1S9Nbub2EldB19LeMBntB94VVu2v67G431uhd2gbuf4+Ovatj16wGe0H9ivbXvMNZp9+4L61HzQGRcnqBvvOAAAAAAAAAAAkFhU8sUw8yv5koWtyFOTqloOxdh/L0frFm1w9+2LW5UHAAAAAAAAAAAwQ1DJh+ktfbFWpUrtPe/GCPiM8zpzKX6lHwAAAAAAAAAAwExCyIek4M97RC9m56jIHgcVpS/R5kXB/QFb9ROq+AAAAAAAAAAAwA2A5TpjYLnO6WPdomfcpTjjMnvktSZwH0AAAAAAAAAAAIBpjEo+THuvnH5OVW1NOjIQUGTs2m7CvbY9qmoh4AMAAAAAAAAAADcOKvlioJIPAAAAAAAAAAAA0xWVfAAAAAAAAAAAAECSIeQDAAAAAAAAAAAAkgwhHwAAAAAAAAAAAJBkCPkAAAAAAAAAAACAJEPIBwAAAAAAAAAAACQZQj4AAAAAAAAAAAAgyRDyAQAAAAAAAAAAAEmGkA8AAAAAAAAAAABIMikPrl5zzbZj6g302NaQ/Hy/Ojra7dHMM9Pvb8qlr1bjslL57eGggSZVtRzSKXuIRJmj6soMlc+7qsaf9Wp/wHZPmqmeL9HGef2+dO16NE259nDQxUvaVt8v/i8IAAAAAAAAAGCyUMkHXHcmYMpW3bedV2X6UBB6z1yvz3ltvcf2AePG3xkAAAAAAAAAzCSEfJga/YdU3vSclg6+GnTEfoQQF69Eqf66qg97bRPTS6BfW358QVWDr0/UbD+a1vg7AwAAAAAAAICkR8gHAAAAAAAAAAAAJBlCPiCeghXauqNGdftqtGt9lu1MtCv66KJthuq9qi7bBCaOvzMAAAAAAAAAmElSHly95pptx9Qb6LGtIfn5fnV0DF/wbaaY6fcXLkdF2WXamZclf6rP9gXUHnhD206f1CnbE6koe7WezCvVA6m2YxRjhizRi6UVemCgSVUth0Zx/vjmK8qvUV2etPdErXb3Ox3pS7Q5b6VW+XyDe5K1BxpifkfZphrVLLcH6lPj9v3af84eJlDZl7NV41xQ14k+bXnritfpS9euR9OUq8uq/fEnOur1Rpgj/z1p2rj8JuXO83q62i+podm52RLznVfV+LNe7Q94n4Xy35Ou9cvTVGLHmeUau9r79eJvLkdZyjFoIvPNDRsXTdj9B/luUnVJuu7zz3aehafr4mU1/IvzTKLMY/jvz9TOZRq6lmjf0f5JyL2a/eoyVD7Pu/7f6yat/5t059nMdj/VxatqPv6JXngv4tqGuUlbvz1XJRcvaVt9f+znGPxtY54Xfj3Rnud4nsv4/84AAAAAAAAAANMNlXw3uvQlerF4g+oKF4YEfIZPfl+F6kprtDnddg3K0ebiZ5wxoYGbEW/MRCRmPhP4vbOsQo+HBHyGaY8mZJxMHRevuu/dfSEhUuCKus2781mH2xHJC4J2rgoPznL9aap5NFMVMcM0My7bGRca8BmznbFztfPbmaoO/VMYNN75TLiUOWzcaJiwru7RuSoPCbKM3Hk3OXNma9f9c2xPbDG/w3lFC+HuKHGu1Tl/MOAznHbJqgzVffkm23F9jfe5jO/vDAAAAAAAAAAwHRHy3dCW6MVlFV5wNtCqvW17tLTpOfvao6c7W9Uun+5M884OKsp/RI+7YVtAR0LHnGjQ3gHT79Pjyyq1zjQTYOLzOfeQV6m6PJ97n0+fCL/Pqs6T9rzhjja0qNlNQKSug69NShWf0R4augy6qg+jLa9olX3ZVHqZ1lU1H+5T1Y8vuK9tP/tEzRdnxwzU/PfPjTquyhnX6M43W+WPzlWZaYYY73y6Z65q/CYwu6rG0HGHL9llIk0FmdcXVsXnjNu5zBvXfOITbbPneGMvu2Nzl82NEUgas3VHif2Oi84cPwu51x/3aVvzZXteqNkqca7VVCfW/mzo3NoTXjgm/1xtvcdrXjcTeC7j+TsDAAAAAAAAAExPhHw3sKL8lXrANNwlM+u1+8J5t99zXq901Kv8xB5tvGC7jPTV2mnCMgXcJTA3ho7pP6ndLXts8LZQ38rPcbsnJEHzPeBbqPbOPVrq3Ocr/eH3ecos4xnLuWN64alaVT1Wqy0Hhi9bm1hX9WGvbYa6eGV4xZkvXRVuOaK3nGPoMpLtgct6ob7PBnYRnHEbbUAUOU7OuP2D425SRWg12Hjnc/gzvO9pPtyr/aHj3uvXlsMmaLtJXxgWnM1R9XKvas6Me+Gt8CVE29/7xI6drfvuil3NV+K/yV2asqreLGEZGnA5zzTGkpbuUpa/6Q9Z8vKKjr7Vq2026CtZcD2r+RLxXMbwdwYAAAAAAAAAmLYI+W5YOfrbLBuetcbZEy8sEHOkZXlLXQbe8Pa4G+a8dne2ui1/1mIVua0JSNR8gQaVd0Tcy3Ty3ieq+nHk3mtXtL/+gqp+E6XiLNMu09jeH32/tlhGHOfMedybL9d/09CypuOdb5Tm2yBwkO8m3WcqAy9e0oH3vK5h3rusZuct7DojtX8yfI+/uK7q7fejn9/+vlclp3lzYs832Sb6XMb6dwYAAAAAAAAAmLYI+W5Y2brTXQKzR+/Hq2SLUJSa5b63Xwot74twqcerCHLOvdvtGL9EzRd3fBIKVsd12T3WRmtU43qv2jBrtvLdjvHPZwSXiCxZNVdloUtI+m7S1lVeVVrYHnFGMFScl6ad385WXdTXXJW4J8c2nusdUchzmXIJei4AAAAAAAAAgORHyAdgcr33iWrdFPYm1TwaEkY9asOo9k9iV6UBAAAAAAAAAICoCPlueFm6K902x8Cflm1bUQSX2Bzo0Rm3Y+Kmer5kkTvP7K83dnHHBavFLl5Vh9sxZLzzmWUwDbdCcNBVNZ/4RNt+E76vnCtYTdhulpe8EP9V3z81e8nFeS5TZjo+FwAAAAAAAADAdUHId8M6qdfcfbl8enzh6th72aXnhH12KnDaCw58K7U5ajiYo815C91We8+7sff6CxphSc+EzzdWBSu0dUeN6vbVaNd6b+nQ6WBwfzj/TSpzeyL4ZusOs3dbhKFx6aoOXTpz0BxVL/eW0OxqHwrfxjuf6565qvFLjT+7oC1hQVSvXngrSsBnBC7r7YvOe8zrnCzOfWTaZpjozyWmkZb0DFxRt3mPcZ7//rkqj/Y8r9tzAQAAAAAAAABMN4R8N7BXOpu8sCK1VHXFldqcneP2e3JUlF2pxmUbVLdoie1z9B/ST4Lh4LIavRg6Jn2JNhdv0OPuXn+t+knHebc7ugv6YMC8L9S38pcMBYnOd6wLDfMSNt/4lFUUq2S+185d+5CqC7z2dRcMe8wSmJXhe93575mrXcGlMCMF+tXg/uizVf5oprbe4+215/LdpOrKDBsuXVbDWyH75I13Poe3n99s3XFXyFwjuqL9xy877/Y6779J/rBQa47K7nfm/bZzLbYnUUpWZWuXmc8ex30uw1zVh/Y5VUR8R9h+hCHn1Xw59Lw5qv5ypnYui1Uxef2eCwAAAAAAAABgekl5cPWaa7YdU2+gx7aG5Of71dExYj1L0prp9zcofbUal5UOhQzDBLT3RK1299tDV05IuBZNtDHDFeXXqC4vLKHwBBq09PRJe2CMf77gHO2de1Q+jhCwbFONapbbA/Wpcft+7T9nD683X7p2PZrmLSEZ6eJlNV+8SSX+q2r8Wa/2u0Fp0JyQ0CqaaGMc450v3jiryxn/9vFL2v9eeIDmvz9e4OVwxjX+yyfDrjU4rutEn7bEDeWCgs/kqnMts5Ub9dnEeC4RYl6zWWLzNyags+6Zq7pVXnVgJHPdDfMyVBP19xv/cwEAAAAAAAAAzByz/Qvu/L5txzQwcMm2htxyyzx9/LFbijIjzfT7G/QfZ1XX2aaPUv6T7vw/sjTvr2y/AmoP/EZPHD+oX/6H7Rr07zrWfVRHPp2j7LR8+Uc1Zriej9/WkZQcff4WZ17bp4FW7T1/Sscu/bvtMMY/X/Yt9+nrt6Tp4ictqvs49DtH59z52VqwaL5y/7PUdfAV/fB3w/8tXDcD/6Fft1/VX6XN0aJ5waJcs8/dv+vF31zSu76btSZHaj01oD+5VZNBn+lP/3ZJf/gkRRkZf6Xcm223M7ar/d/1/67/d/027HxrvPMNXNOA7//QfYNjhvvPNzvfuSBVCz65pN/12k7HxY8G9M92zrnOeOdn8Fx05j3tzRvtWufdnupcyyz97/Of6tcffWZ745mlJf8lVYs+/dS5/4t6/ZM5Wpwxx7ku79Ou9kv6//7LJzo4itDMXPMfZjvjc5zxts8N3U79//Sn3pBr6b3s/Abh85jzag/26cdnPlNKzN9v/M8FAAAAAAAAADBzUMkXww1TyQdMKlshp0vaVt8fYy+7OSr7sqla8yrYRld5BwAAAAAAAADAjY09+QBMHt9Num+eqYS7HCPgM66o4+JV2wYAAAAAAAAAAKNByAdg0uUum6ut98wZtvej33eTqr8c3F/ushqo4gMAAAAAAAAAYFRYrjMGlusEEqPsy9nuUpxxmT3r/uUT7R/FnncAAAAAAAAAAIBKPgCT7OhvLmjb4UtqvnhVXbYvqMuEe4f7tK2egA8AAAAAAAAAgLGgki8GKvkAAAAAAAAAAAAwXVHJBwAAAAAAAAAAACQZQj4AAAAAAAAAAAAgyRDyAQAAAAAAAAAAAEmGkA8AAAAAAAAAAABIMoR8AAAAAAAAAAAAQJIh5AMAAAAAAAAAAACSDCEfAAAAAAAAAAAAkGQI+QAAAAAAAAAAAIAkk/Lg6jXXbDum3kCPbQ3Jz/ero6PdHs08M/3+kkeONhdv0OOpAe09Uavd/bb7Rpe+Wo3LSuW3h4MGmlTVckin7OFkK8perSfzFumBVJ/tkdoHWnW486h2Xzhve4BRKlihXc8WK9ceDupu0banjmmq/i+yv3SF1n91gUrmZ9geqav7rN7+5dva3zT8/x8CAAAAAAAAwPVAJR+A8cmuVF1haVjAZ/hTF+pxX7Y9CmUC22f0TvFqFdkeJB//+mrV7XtYZfZ4xil9WDs3FIcFfEbu/AUq/3ymPQqVpeodNarbsWJ46A4AAAAAAAAAk4iQD0hG/YdU3vSclg6+GnTEfjQ1lujFwoVuq72zQVWh13Jij57uvOB+hpkmS18szpC6+9RhexLq3DFteaxWVYOv19VsP5oahdq6YYHb6jr4uraFXsv2etU29LqfAQAAAAAAAMB0QMgHYOzSs1Vg3geatK3jZPjyoP3n9YrzwkyUqTvmO2/ne6ds6cwpVZApc3tmedAXD7SF3+O5Hh11XgAAAAAAAAAwXRDyAZgi2boz1TbHqmCFtpolEffVaNf6LNuJKVd6l0qct+Y/tHnHcNjgEwAAAAAAAACmWMqDq9dcs+2YegPDqxfy8/3q6JiRtRyumX5/YdKXaHPeSq3y+Qb3lGofaNXhzqPafSGyIsvsq7ZBj6tJVS2HdMo5XrfoEX0rdGygSdtOm89iyVFRdpl25mXJP7ifW8AZ94YzLqIqLDhfakB7T9Rqd//Y5yvKXq0n88zecbYj5lxDivJrVJcnO6fTEe0ZBRqiXu+6/DJ9K2uhc2+2Kzhfp3Ou+a5JsUQvllbogYHg7zIKMX73n7TW65Uo11mUX+n8Zs592eOYnOey1HkuruxKNZoxown3QsdFKNtUo5rl9kB9aty+X/vP2cOEMXurVar8/Ouq+lGb/KUrtP6rZm8279Ou7rNqePlVHY05b5ZznQ+pYnmGcm1P1/EWNTQc09E7HlbdhnlRr9vscbdzrYY+KyjU1idKhvaEc+atjTGvv/RhbfzqAuUOhkx9aj7YrAORVWiu8Ptzr3f9fapY64z3TnCu93W96Hw2NNa5lh0h1xKXc52POddpjxLDmX/fGpV0t2jbU8dGVz3oPL/qihLdF/o7xPnt/OudZxjyDGJyno333BzOc98V9tzjCB0HAAAAAAAAAAlEJd8NLUebF9XonWUVejwk6DH8qQv1eOEGvZhtOyKlZunu9CV6sXiDno8c6ytVXfFqFdnjMHZMXaEJfoIBn+F8h69CdaU12pxuuyKljXU+ExA+48wVGvAZo5grhAn8oj4j5xUeptnrGxZq2fmW1ejF/Bzbd33FvCfnd39+2TNqjHqdWWHnjtaoAr7poOBu3Tdf6lKmqjdVa+eGoYDPyJ2/QDXPVqvaXac0QsEK7dpXqZqQYMnIXV7sjtn6ebPP20V9FCVkys81AZr3mQn86p5dEx6qmWsYNs6EbzXONUYGTRkqWbtGO3esGP5bBe+vq3foeiPCrdzla7QxtFLSLF85qoDPMVn79I1B8PmVR/4O7m8Xqwp03sgBXxSjCvgAAAAAAAAAYBJRyRfDDVHJl12pdwoX2uqtoyH7qJlqtEf0fJ4J4Vr1dFO9XvE+cAQr6+yhAtrb9vPBir8i5ztNgGccaXtOGy+4TctWm5mmM+fesEpBWwGXt1DnwsaNfz6vGs/cQ8D57OfOZ3YuU8G2sMJ+Z+T9eYJjjwRa9YDP+X7nep+OeEZF6efDKvMG53PPDa2GC1YuOt/Ts0flHcHvSCT7bEdTyWd/d/e5dL6hl0L21DPPc6cJYM1zDlYxRpO+Wo3LSuUfS+XgeKoNg8xynU94oVvXwXptOTAJe6OVmmo7E8YZfWre85oONPV41WNudZ0J35z2sMosW21mmt0tqn352GDFmFtpZ4I4cxC1Gs1W18n57JcZbmjnVtM1tKnd/Y4slZVKR53rGBKcz1btvRU812Gq2JzrLHeus3lPrV5osv2Gvb+u7j5pfoZy3QrBt+0+c6YK0YSUTjNm5dk4quombAxzDv5+w6sZh36HEapATfj5bLHzbMZyj9fjuQAAAAAAAAAAlXw3tgv1qjrxnMpbTCAVGjyd1ysdtXo6YNpZuitWtZsJs5pqw5b0POV8pzdOKkgNrwYryl9pAz4T8tRHLAVq5qxX+Yk9EcFgiLHMl75aO23AZ8KqwYDP6D+p3S17tHfAHCzUt+JU15mAr71zj5ZGeUaxlt5s7zFhoD1wOec611ne4jzrSQn4xiJHm03Y6DjS5jyXkIDPcK+zrdVp+bTKNz2qDl3njumFp2pV9Vjt5AR8Dn/uPK9hwprH9uuFYMBnnGvTCy+3qMu0czLDquTKNtmAz4RjTw0FfEZ706vasuesd3C+N0oAFNzPbYE2bpin5j312mKWyxz8jp6IgC8431nVbneu0QRZoYGVc5377XXOzw2vWgveX66pzDvo/Nt/yixfGfxuZ54Ge3+xmKo+8x71Pq63LFV/1Qtom/fY5+IeeYZ+hwzddz97OgIAAAAAAACYGQj5bnCDQVV6jtZlr9aLi2rUWFyjd0qf0fPuapo+3ZnmnhEhoL2mWs0ehTpzyaZuYXL0t1k2dGuNU8UVFqSFGuN8aXZpycAbMarRzmt3pwmzJH/W4uhLixqBhlEHc6cCp91gwZ/3iF7MX6KiUSwFOuXSF2uVqWAcaNJLscLUC6d0xHmL+1xmIG/ZzD41vhyjGutcr7ptc1DBClWY6jcTDI6w71rzH6J8HgzO5meo24RTEYHecIX6grs3obf8ZN2+KC9TieaeG867PxOCxa+EdJfzjOYObwnMqPdxvdmlSM3vcCC0ejFU0/tqdt5yi+8e17KzAAAAAAAAADDdEPLd4IpMsFf8jN5ZtkHPm73rzB5tYXvlJUq27nSXx+zR+7GWgEygolSvWqf9Uqwky3HJVmqZ/QXdjuHijo/Uf0jlJ5p0ZMCnB/LMHnzOcy11XsVmL75pEvoFw8/UUtWZa4v6skuq3lCydLtbuBh937xY/Pd7S3F2tZyJWd3mVdD16cMPveMwNjgzS5CGLa0ZS+ldXtXgmAXv76zejBEkBu+luyv652XuvoIx7uN6s89R84u1M1rw6b5sxSUAAAAAAAAAzBCEfDcydz+7Uj3gVna16khng54+sUdVzmtp03ODy2BiDPoPaWPLc1rqPMOnO51nOhBQe+pQ6Ne4aMkNVR2XPOyymcff11GvY7goy1UGq//efitWZVyWvlhszokeHgaDs9jjwwWX3DT77ZmlS+O9wqv17P1196nD6xgmeC/RQ7zxhaAAAAAAAAAAgMlDyHfDWqIXC83ebAHtbfP2nDP7s5l9507FXDIzEeLs8TcJ/GnZthVFsKptoEdn3I4Ecp6h2WNwY0utyptM6NegIwPO9fgqtDPOHoCTLli9GGhwg9y4r5Y4y6pORJzKyevGVsjFXKrSUVbhLYM5tuUq44Vr4w/OIvfbG1GwAjDmfnojXcsoQtDr6cM+bz9Bsy9ilMAz7PVUjOVYJ2p+hvJtEwAAAAAAAACmAiHfjW7gtH59IVqol6O7bCsxTuo1tzLQp8cXro5dzZaek5BKt+D+ePKt1OaooWKONueZkFNq73k3IWFWUXacKr3+k9oY3AMwXvCYbpdPLX1GjeMJA0cK0Prf1eEB5z3mc5kK4wh6C1Zo6w5v2cVd68cYcI1CsEIu1lKVKn1YNe5eeGa5S7cnRIbuuMM2w2SpbJNdIjJquDZydV2k9q6L7nu8feX8pTa8DjFYARgzoBzhWoJVjOM10d9vpADt3Bm9bTZMXF6i6gKva+rN0+3XbW4AAAAAAAAANyJCvhtdaql2mv3i7KEJv4qyK9VYvEGPJ3hrvlc6m7ygw+wHV1ypzdmhIZadd9kG1S1aYvsmoP+QfhIMFZfV6MXQudKXaLO5P3ePwFb9pCMBlYvpq7WzsEJ1pTXekpzp4QFdkTOnVzkZf5+/dXl2+VSHP++RMQRxF/SBCe+0UN8K/T2dedeFfcd57XbDRvtchu0VmKN1+c7vUFqpdbYnccKD3rDrcp7XurC/h3Cmiq7Epky5ax9KeJDjLVUplWwwIVRhSEhmgrpq1W0wy2qaZTJfDatk6+jqc99LNjysspBr8peaUKvSBoMxKgSjLP85oqb31Wzezd5zO1aEz1lQqGrnWnduqNT6UttpxV+K0xGsZIyzt6DLhGilQyGdN6dzHfY4lvH/fr360IR3WqCK0N/FmTf03s1en/t/edZ5z1D5s9Xaas4N+9z5Hdc/rF37nN/J9iROm948bt6duZ8I/01U4Mwb8rwAAAAAAAAAIJFSHly95pptx9QbGF7dkp/vV0fHqP+n6aQz0+/PKMqvUV1ejCRvoFVPOz/783kLdaTtOW0czKVybEAW0N4Ttdrdb7tDBL+3vXOPyiMDtPTValxWGrMKyV0+NOx7JzJfcKw9HGac9xBDUfZqPRkS0kU10KSqOMtgrlv0jJ4f/EliX180MX9PszTn6ZP2wBP3tzec339va33suYO/4wj3M0zc39/5m2uq1yv2KFTZpprBwMyEVY3b92t/wvaGy1L1jkqVO9/bpQzlxihZ6zpYH7HPnVGorftstV6k7rOqbZmnmrWKfr2lD7vhYfTvjcOOi6Xr+Ot68UdtIWGdvb/5zvU8Fh5SBvnXV2vn2gx3r78XhlUqGsHvsIcRYo/zTOT3C17bMGZpTuc+Q8U8N8j5TRpffjX23AUrtOvZYuV2t2jbWJb1DI6zh+FiP3cAAAAAAAAAmAgq+W5gpzpqVdXWqna3Aswy4Y7do++V0P5E6T+k8qY9erozYl4F1B5oUFXT6EOtkZ3X7pbnnHtscvfDGzIZcznP88IhbRyczy1ZG9Run+tIgZipdgxea3vnz8d0fe7vaZ6rPXaZeQPDKwfNuWafwL0B51nYPpdz3Uc6nWfj/P6JfDaDzO/v7k8Y7fkcjRrwGUcbWtTsVnSZsO21BAZ8hl2q8nyztjxVr9rjdn83q+t4i2q318YI4tr0wvbX1eiMGdTdp+Y99dr21Kt26cvo+9yNuERoLE2vqsqZs9mZJ9TgdYYFfMbIy4KOWOlnKuWcZxN2n44uE2Q6c8YL+IyJ/H7tB/Zr28GzYb+JG9b9YXh1pDnXPBtzneHnO7/Jwdfd3ySxfzvWuWPaEu03Mde5520CPgAAAAAAAACTgkq+GG6ESj4ADluFpbFW1AEAAAAAAAAAcB1RyQfghua/f4G7zOKYK+oAAAAAAAAAALiOCPkA3NBGXqoSAAAAAAAAAIDph5APwA0sS7fnmPfo++YBAAAAAAAAADBdEfIBuIFl6o75zlt3nzq8DgAAAAAAAAAAkkLKg6vXXLPtmHoDw/eqys/3q6Oj3R7NPDP9/gAAAAAAAAAAAJC8qOQDAAAAAAAAAAAAkgwhHwAAAAAAAAAAAJBkCPkAAAAAAAAAAACAJEPIBwAAAAAAAAAAACQZQj4AAAAAAAAAAAAgyRDyAQAAAAAAAAAAAEmGkA8AAAAAAAAAAABIMoR8AAAAAAAAAAAAQJIh5AMAAAAAAAAAAACSDCEfAAAAAAAAAAAAkGQI+QAAAAAAAAAAAIAkQ8gHAAAAAAAAAAAAJBlCPgAAAAAAAAAAACDJEPIBAAAAAAAAAAAASYaQDwAAAAAAAAAAAEgyhHwAAAAAAAAAAABAkiHkAwAAAAAAAAAAAJIMIR8AAAAAAAAAAACQZAj5AAAAAAAAAAAAgCRDyAcAAAAAAAAAAAAkGUI+AAAAAAAAAAAAIMkQ8gEAAAAAAAAAAABJhpAPAAAAAAAAAAAASDKEfAAAAAAAAAAAAECSIeQDAAAAAAAAAAAAkgwhHwAAAAAAAAAAAJBkCPkAAAAAAAAAAACAJEPIBwAAAAAAAAAAACQZQj4AAAAAAAAAAAAgyRDyAQAAAAAAAAAAAEmGkA8AAAAAAAAAAABIMoR8AAAAAAAAAAAAQJIh5AMAAAAAAAAAAACSDCEfAAAAAAAAAAAAkGQI+QAAAAAAAAAAAIAkQ8gHAAAAAAAAAAAAJBlCPgAAAAAAAAAAACDJEPIBAAAAAAAAAAAASYaQDwAAAAAAAAAAAEgyKQ+uXnPNtmPqDfTY1pD8fL86Otrt0cwz0+9v9O7V159+RIWB3+p/vPS6/mx7RzbecZjecvTgk0/or32n9Yvn6/Qn2ztTfa7yO/paYZYCbT/Xf6//o+1NYkuq9L3yRfZgSFvj9/XPJ+0BAAAAAAAAACApUMmHuG5bVaZC9eh3Px9bUDfSuNuWrNHXn/yOvvf0972X0/76khz76eS4bZWZr0qfs8fwjO253Kosn/MW6NEFr2Pmum2NSguz3KbPd6tuc1vJ7bYs737CndZpAj4AAAAAAAAASDqEfIjttjWqKM2S2o7qX8eU8MUfZ0Klvyv/kgp9IYGD0y4sf0Lfe3LNJIUpOSpa5Mx3I4RTYzLG53LbrTIZnwJ/mfnVmX/+k1oDptGjttN/mhH3++fD/6gfPP99+3pZvzP3x78JAAAAAAAAAEhKhHyI6XMPfEk+ndYvxrhMYdxxwQDQBCeNLw8FDnt+7gUOvi/p7yrvdU9NrGAF2g0QTo3J2J7LbYsXuSFf26kZsHTliM7rX18yf5//qH8+fN72zST8mwAAAAAAAACAZEbIh+iWVOlrhVKg6V/Htu/aCOOCIVGg6Z/1zydDgpM//9ENVH7R9Fv94sgkBEhLFsu5rBsknBqDMT6X7GwvoO35i3eMJMa/CQAAAAAAAABIaikPrl5zzbZj6g302NaQ/Hy/Ojra7dHMM9PvL74cPfjkE/pr/Vb/46Wx7MU38jh3qc7SLLU1fl//PI59wG5bUqWKLy2SzySFrh61NR3VG4f/GDHfvfr6k2XhS4LGdFq/eL5ubGFmNLet0f9rw5fka/u5fhC1+tE+H1/kfLY/4I0z+xWu/JJZztT7NBA4raafO+cnpNxqIs8l8vpz9LlVD6q01AtujYBz7w3OPcS61NH/fhPnPcdFIffa41yf8yyPvB79WTrX9r3yRfYgRGC0/w6c51H5dXcfv6Hn8VtvvlvNd2fpd3v+MWQJ2/Df3R0/puc51vnCef8WFfccAAAAAAAAAMD0RSUfhlvyoP7aJ7X9diwBn2MU4/7c4wXGhV8a6957Jpz6vv6uPDQgMrJUWPqI/i5yLz+zd9yogixHovYku9ULWwIXYpW5BZdHjJjvts9podMfcD5/sDK4X6H9zOHzLdLXNnxHDyZis8IJPZeQ6zeB5tNP6GshgZThK3xEFaty7FGoMf5+E7Wkavi+j85cvsIvuc/y60uGX+NtWdGfS2A0+/EFn0dI4GZ481Xp60UmPOxRT+gXBX938/cy1ucZdz7n/qLNF2GwKnNM/8gBAAAAAAAAANMFlXwx3LiVfPfq608/osJRVy8FjXZcsBrMaQZO63e//Vf9a+iynVHZ7w5Wfb37R/05OMFt9+rBRx7xwsWY1YHjvaexGbFKMValX1gFmdmr8J/1hvNM3Ot07u/rzv25oV/MCsHxGuNzsddvQj75suRzfr9fDFYYmqoyEzo5zWHXOdHfb6yCf2PesxxaFjZHty15UBUmaHSuZcQKNvu7jHxdwftzHk2wks5+r1u56M7niHzO9vsDYc/zX52x5npH8zwdznf+4uejnC+M/Y6E/00BAAAAAAAAAKYKlXwIc9uqMjeM+d3PxxaGjX7cef3rSy/rF20m2Fikvy5/Qt97skqfi1PG9blKE2ic1i/2/KP+2SzrGDqB2cvv579VwGn6sqJVkDlM9Zp5D/xlTPc0ViPuVxej0m+wgsyEMs879xgM+Azn/v7Z3p98tya22m2MzyW4n6JbCdj0sn7wUugSouf1pyP2OiNM+Pcbr8BpNywd4jzXk3X67887f3+jWKLS+11G3n/Quz9nuraf67/Xhy8F6s7XeNptR1YEBn/38OcZvN6RnqfDBHQvxZ4v7u9qf/vYVacAAAAAAAAAgOmOkA9DblujitIsqe3o2PboGvO48/pT/T/qB3t+rjY33fGWo/z6Eu/TcPdqkZtomHO+r+89HeVlquPcc2Ow4VrbqcmsWMqxS1me1qkYz+Bz7hKKzik94ZWLwXAwZkD6579EDXsmbIzPxbtO5/zG7+u/Hw6/h1DhwVECfr8xO68e9+/qS6qovFe3DUtGnb+/Ef9Oc1S0yLnfOL+ny/nbL3UTvt+6e+fFE/13N8/z5dE/z5D5/scI88X9XYOBc8Q1AQAAAAAAAACSByEfBn3uARO2nNYvxrh833jHuVVqL31f/6PxtAJmb7byKPvOLVnsVS1NgBeujVyRNSF2f7XY1VM2BBx2HSH9IwZPiTW25xK8ztM6HWPpymClX1hwlIDfbzz+VO9Vi5o97f7ODRe/o6+vuncMlZDB/QfjVzkO3nOcffuiVwSGPs/oQVu05zn++cJ5v33s3xIAAAAAAAAAMP0R8sGzpMrd/yvQ9K/6k+0alfGOC2GWGGxoMvs+Zmnh4vAlG4NLGprqsR88H/8VvRpqikK0GEtxDgmGRpGVYba/7d3Yz29Slhsd63MJXn+PLngdw0RbrnTiv994BatFX9YvmmyIXPqI/s4N+0axLKgNJ0eqcgzec+u7sa7dVgQOe87je57jny+U/e3jzA0AAAAAAAAAmP4I+eDI0YNfWiR3ycExBS3jHTfcn3tMyCf5sm913yONf7+2UYRoCRAMs2Itf3hbsKItMqiz/fH2RvMqJUcOnMZmjM9lxKAxfmiY8P32RuvP5/Wnw2Yfvu/b5WFN2Pf14RWjEUZTDTcqgxWeEYFarL+HQeMNp0cOD4fOSWRoDAAAAAAAAACYaoR80G2rvq6/9kltv42xJ1wMox+Xowef/L6+9+SamMslDoZkEWHXYPi36HOxxy7Jib0MYzCcmmTRqq6Cblv1Hf1duVkecfj9jRQOBislE7604hifS3CZyNhBY/RwacK/35jdq6+bffjsURizPOxvTzuNLGVFz5IHDf6eo/oHMbwC1XXbvXrwEbvfYESgNljhOMbn6Yl1/Tn6XOUjI4SHjlEEywAAAAAAAACA6Y+Q74Z3r1aWZkltP9c/jylEGsu48+oJOG++L+nvnqzS524LDURMMPEd/Z35LkVZhvDku/9/9v4GSKrqXvh/f4R5Lm9ecZjBYQaBxugAHiECByEZQfBgcokvTBmhBp9bzyXHw4kzZSAlD1VAmRIrFlDlHyp6UgM5HE+459YTpiCxBqLxydETFRxFyQwGjcLEhAF0xgnTjPiEF+uP4a6199rde3fv3S+7e1565vupaqZ7d6+991pr7256//q3lrTqv1bZxaqstdRSpoMouuzSR2T+dLMwSOUCWTg9vl27rFqfeZwfpfKNO10BJrWNB2s3WXVrbbWDXYnBPDuYpHZv6Sb5nmfOOLtdNprgYOv+hp7JRMywXVIFMS1O4Chxrrh89V+GyhYtkEo9D1/to/JgYvBQ94fOPE3LyaKbKlWuoT3Lps/w7L/2/oc6aKiqV/WI1X/62Hbq9b1VD1hBcC0xmBe2Pc+etY+jyqX6PLLuWsqmL1bH2iMmIJxZAE8HXmPrUPt9q+s4AAAAAAAAAAD0f0MW3rX4qrkf6FzUvrDsNnFiRE6fbjOPBp6BXj+HlWVWJfLmrp/IaxllLdnClNNBq/sr7aBWsi5p3f8T/4Dh9JpYsMtPtPV5adx7LCBzSWcRPhILtiTSc8VlF9wMELiPXVYbfXiLX3uZfVOv0XPGlQTsY7RpZ57nq9OyaRfntcflwFP+wUb7eCj1b8+c+i97zr4EUtt7Ls32gtbhV79bl2+KBdfcoq1vSNPZqXJ/UL+Has8Z8uDjJlsvUVSt73ipz/YSBawj+oY8tyO7bF4AAAAAAAAAQN8ZGpl84yZzP9ClSxfNvbjRo6+T8+c/M48GnoFeP0vZYvl/V0+Vka3/W/5/72RxaT9kub/84R1p7S6Sa8aOlJKRI83SLom2tsgrzzfIa382ixL95X05dOKclEXGusrZQZRXnv93eUntwwWzLNlfpe13x2XouIhMKHGVjR6XV/7XT4K3mS21j93j9Pxr8Xq1Nv1vafyPX8kf1M5Nvv3b6rnTcvSl9yWeY3Wj/P3/a5qUfPy/5cf/39dV+YiUqvLOGmL1e/+vZkk+ZdMuZj/Vc2/87s++bW3Xr0tOHHpH2hJfkFP/Ze9C2zvW9ob+P8fKSHd7Rrvk45f/Qxpf/VPaQNaFttNWfyT256G3k/f1L394zT6uv6Jfe1E+/rhFmp7/tarXX+SWJQtkwsiAfg/Vnp3ygalbrN9UvVp1vV48LBcn3y6zJnYlbC+RXkeR6o+Jqj/sJbrf333jHfnDX3riWAMAAAAAAAAA9AQy+QIMhkw+OwMpOJsoSNhySFC2WL636g6RHsnUQ98zGXNkyAEAAAAAAAAAegBz8g1W02usIQajTa9lF6gLWw5Jym6ZKnq0zMR5+jAwWPMDqr9J8xQCAAAAAAAAAJAHBPkGpXGy8I6poufgaswqgyxsOfgZO1bP+dYlXcHjKqI/05mYjz8qDy6aIWVmkaVshixc7szpd1yaOFcAAAAAAAAAAD2AIN8gVLboQflGiUjrG9kNIRi2HPyMk1KdxqeDfDRmASuVyqoH5OHHN8lG57bqAflGpR3AfXMXQ9oCAAAAAAAAAHoGc/IFGAxz8qEvMV/bwDBObl3+oFRVllpDr1rU+2Xr8YNy6NVj9CsAAAAAAAAAoMcQ5AtAkA8AAAAAAAAAAAD9FcN1AgAAAAAAAAAAAAWGIB8AAAAAAAAAAABQYAjyAQAAAAAAAAAAAAWGIB8AAAAAAAAAAABQYAjyAQAAAAAAAAAAAAWGIB8AAAAAAAAAAABQYAjyAQAAAAAAAAAAAAWGIB+AwjNpnmzfskQWmIcAgkWWrZDtayrNIwAAAAAAAAADBUE+5MXw2m1StuPnUlI73ywpcHPXWvVJvI2ea55H36laItufnCUV+v4ka8kAUSorttRJw+462b6MgAzyq2LmYmkg0AcAAAAAAAAMKAT5kLsJNTJqRrl1t6hsvBRZ9wpbUbkVQkrQLF+8be4ihHHyg1k/lN/PukummSVZ0xl8qyZLhZyU+g0vycFTZnlemWDblnkSMUt6xaSbZI59GknFPV8lSxF507Zvj6x/sVtk5mLZvqzULAUAAAAAAABQ6AjyIXdnDssXnfpOh1x+97BcsRYWtiuNa6Wz9iFz2ygXdP06PxkQdStcpbLiEZ3B1y37n3hJDpqlA8apj+RIh323/cU/Dbz6oU/pQF/9UR1AvltWDKgMWAAAAAAAAGDwIsiHPGiTv27SwbC1cr6xzSwbSCbI0DL1hyBfn4osu1uWlusA2Muyp0cy+Ppal+zZUC81K+vlsX2tZhmQPwefeUWapViWPtLLWaoAAAAAAAAAegRBPiCdubfLcPXncssh+zFCGis3jjB3s1Ypy+4pFulokWf3dZllPWWM3GCGzQQGllbZp4ftLJ8ly6rMIgAAAAAAAAAFa8jCuxZfNfcDnYsmX1SfODEip08PxKwt20Cvn1vR3BoZtWSODC9zIhsdcuXYEbnwQoNcPmMWuc1dK2UrZ5sHLp0HJLqpIYNst4gMr/2+NY+fM3/flWMH7O1V6HVXyIXNa+WvsW1H5JpNm2VU5w7p3KEDbap89Xdk1Ldmu8rvkPPqOf9tZ7s9r6LqbVLyLUn5mnyYNna5bJ0wRSIpAmFtZ3bJ0tOfmkeqzMQ6aZgg8rN36+XHF9SCUdPlBxPmy6KSklimTlu0UdYff08+NI9j/F576YT824m98iu9riDZlFN12p+mTjFqP7+m9tNX1RJpWDVZ2l/cK49lFOQrlQXL5kj1rMlSEQvYdUv70WZ5trFV2hIzAdX6t9/rfm0KR1+Rmme8mXaRZStk6z0i+5/YY2cZTqqUFdWzZc7MYnFmd2xX5Z5V5ex3FT3v33IrM9FPcD1NOWmR9RsOq3Wpeq65W6o922lR29HP+Yuouq5OU9fM29nfgjV1UjfzpNSvPCLj1f4tVfun27951x55uknVIWmZVczLrw07TkrjzlRzMWbZ7zFhyykB+3nkhSOypym4DUP3Q6h2cdHzWj45Syp8jmMAAAAAAAAAhYVMvsFu7lopWXm/K8CnlUvRjPtl9MZtMnpu8qBuReXOpWWvK5nMxzehRkp2bJbRroCbZm9vrYyepYOH7XLFHUybME+Glan1d6iFTnlXgE8rmlEro6t9BqBLuT1VP7/tJSgq122T+jW5um9qnTRUZhgMC6ADfr+/rVq+6wq+afp+YoAv8LUjpshTt/1Q9k8cZ5Z4hSmXS50cC/5+svq3W468k0ngqVLWbVkudfckBlCKpWLmYtn65ApZt6zULItLFWzJhg74NTy52Apiuc8UfT9vPxsoL5aJk0w9E7czc5Zs3eI/HOOCNStk66rUgaX8uU6qdUBS7Z+tWGbfO09WrElYtmqJLDCPHIFtWD5Z6p6sk+0+/Re238OX08HK4P1cumq5rAvIlgvbD+HaJYEz9+PMrya1OwAAAAAAAIDCQiZfgMGRyWcy5Mo65PLuf5Hzbzv1jUjR3O/I6JU6kNaRPoPNZPZd3v2QWodZ5mu+jN5Raw19GcukM+stUuuwt6ckZgSa9V/p7BApK5eizmY5/9wvVVm9vzpLTwfx1N1jTqafI749vc7zz2W4PQ+zjqR159HY5fL7yinqTlR+1vq8/Pisnak3bexdsrWyStXwhDzetFd+ZS31sjP5SuT16Am5s0St45J67YmD8qsLTrbfOJk26lP50J1h59re62cOyY7T8Sw/K5tQBxv1vjjZgY6w5WKmy7NV1XLnpSapafltcmZhICfrTWeGvSQHzdIgdladHtpTvd6T3VQqkao5VvaUtKTKVKuUdbsXy+wOJ1suPWebzUdPyuyZav3Wto+obTvbUNue1JU6I0xx1pM2ky8WHOqW/btejmWM6ewwHTzSmnfVezPkTDZkcpl5snrVLKmQzNo3E3Ymn76ntmVlN7r3O3mZZ19d+9n8YrPs2+dkP9r1W62DY7F1mCeUsP0e+ngx+2ln0Xn7esGyu6VOr9OvTcP2Q8h28WPX2ZV5CgAAAAAAAKAgkckHkc4jciEW4NPa5Mrb2yRau1HOZzBEpZ3Z1yFfttuPgwyvdQJ8OyS6wzsUqLW93c32/YSMQCdzsEhnG/5mo3Ru2mYCfFqbXH7hgG+AztmeFfzbFLw96fwkOANxwngrEGhlEfaQaSPs7JvXW+tjAT7tw7O/laWtJ9S9KXL3WHtZEB3g00N5fq1FD5kZX4dIQoBPxskPJuhAnb291a5Anfbh2b1mmyWyqMSdlRe2XD6YOfI6uuW0vSAj7S068GIeWLqkrekleWxDfYoAX250gE8H6Go26GCRexvpA3xZ00GplXs8Q0Lq+tUfte+XV3izuiIV11l/9fCY3jKH5bFdJ9W9yTI3z/O0tb/4sgkidclbLd1Jyz5xH6qWUlmhg2qKNYynK5ClWf1n7WuxzLndP2stbL9nXU49t/4J9ZxPXx/ct8f0w3UyfpK1MCZcP+TeLsmK5YYbzF0AAAAAAAAABYkg36DWJlc61Z+y+2V07XwpmmAvjWvzBMb8RWT4beVWoDDlayfUyCidbacz6tJkxF3pcF++1kE+K/1HLu/eKNFG73NunkCca3vRNNu73JLi+QonyBe83d4waUSawFm00TNXX6BRt8giPXzmpSbZcdZelOTsh/K6+hMpvUWm2UvCl+sDbe+cFB1vrrjnblm3rFIiCUGWHnX0lR4LIHp1y36ddWYeuZ1ut4NpYSQGBnPV0Z7cFu5lSfs66SaZYwV0W2Sf3zx9WtOfRIfnK2bdpN594sL2ey7HSyxwO6lUFlTNk3VrVsj2LSukYbeTyRgukJbUDzm0i5+29s/MPQAAAAAAAACFjCDfIHd5x0Y5f6zDmtOuZOPPpWzHNhldPd8exjIjE2RomfqTKhtOKZo9xw6WpZi3zz8jMCJFev3SLF94sg3jYut2BeLCb89ruDVnn962/bgnfHjJDnrcWblc7htl3bWNmi7PWsNjipy6lDqA13YxKPKWYGSpHQAYUSUNVT+U3/vequVO68UuYcv1hVOH5bEnWqS5o1hm36PnVKuzgi4NW/Tcaj0b9GtvP2fu9T9OYMeaA8/dBnpuP2sYSG8Ark/cYOaaK58lW3Wf+d4Wiz4rk4Tt9xyOFz3E5rot6rVPLpe6VbNktp4rr9yZb9BfqH7IpV0AAAAAAAAADFgE+Qa9Nrm8Y610bt4o53/TLFekXIZ/q1ZKrGBfunwQZe7t1pCYKbPhFDsbr0O+aA7KiDMZgdIuVzwZgemDiM663cG68NtzMwHGNAHMnJ3dK49H9Z0p8tRtrqDZbSZoFm0Mzp6Dv1OH5ekN9VLzxF6pf/GkNHd0S3t5PIizfU2lHbQcTJqcoTwnS50TyNK3J01w6OgrwVlihSJsv4cpV6XnP5wls623GlXmxVekXpVfr241K+tjw6Ym6Qf94AwZCgAAAAAAAKCwEeSD7UybXG7U8/A9JJ2bd8jlTh3s+75ckzSEp1em8/GlNWGeDPMLqJkgYnCgzcn0SxWs85NJBmJmWYr5YUX5PPNs6WWvn2mUmuPe+e9ycrHL3ka0Ub7W9KPUt5bfxrcbtpyfEaVyk7mbmXPycYf6U14sE+0FmTul50d7SZ7esEceW6mDOK9Is1pXxczFsnpZmqEpw2yv3zPz4ln/OrqtANX6Z7zzvPWJj7vtfTv6ihUoS3nbcDh4f8P2e8blnKy7btm/y56DUc+Tp+fma/PMzxcky37IV7t4dMvHH5u7AAAAAAAAAAoSQb5Ba749D5955HHmkJx/Sc/uVC5DrTHigtkZc5kG2Mpl2GyfPJoJ8+Wah++39yUhoGYHEVNlCqYKxAXtf0SG19amCR4qJsDomeuvJ4xdLk+ViPzs3R/JUk/ArF5Wn85jgE+78IG8ekn9LZkvP3APDZpO2HK+SuWrWa2jSz6xRiu9TsZnMNRmpCpFlt6pVnn6hZPW3YqKMdbfYJltr2BULbHmidv/RL0dwIrd9lgBqj4P8GmnPpIjOqA7c7asyLLtw/Z7TsdLx0l5q8kvqFcq4829JGH6IYd2SVYqX5+lhxT9TD5x5hQEAAAAAAAAUJAI8g1SRdXVMlzPw7dpm4yeG/EG+ybMl9FLMpndycmimy2jXEN7Fs2dL8MTMgAvt+igoXruW5ulpFo/r8rq4F7tNinZWCujrPUkB/P8huL0cAJxCXPvXenQV8RFhq9c69mXork1MnrTZhk9w36cSQCv6LZ58XWo/R6u2iufpo3QGUIlcmPJOHtBj/pUfnzmhPpbIt+9rU6enThdpnkCbuPkvonLZX/VcrnPLLGFLef2nrxsJSyqdUy5K2H+QVV+bHD9D/5OB1qKZc7tabLvJs2T1asWy9bdK+whFid5Xx9xzXsWPH9eq7xtDadYLEsfmZcwb1qpLKhKsw/9lD1EY7HckK4N+1SX7LGCaqrtn/SbE0+1/7Ilsn33EllglljC9nuux0v5LFmt99E81PsXqVL7t2W5LJ1pFiUI1w8h28XPpJtkjn5bPfonOWgvAQAAAAAAAFCghiy8a/FVcz/QuWhypsLEiRE5fbpf5H70iIFeP62oepuUfEtf7Q1wbIdEdxxKOVRl0Dou735Izr9tHhjDa38eC665XTl2QC50zJHR3xK5sHmt/DUWd4vINZs2y6iyZjlfu00um6VuzvaTtzdfRu8w2XqJOtX63q3w2V6igHV0HpDopoaU7ZKVUXfJ/tuqgrOJlLZLJ+TVMwflx2etlLaYaRPrpGFCibSd2SVLT3ufS8UpF0ht72cn9sqPL5jHRthyMSnrekIeb9orvzKPvCpl3e7FMrujRdanGY4wUjVPlt1r5koLkm49k+bJ9idniX8i60mpX/mSJ0ASWbZCtt5TLO0v7pXH9mUyXKO/9OsplRU6gFTeLfuf2CN7fDKxAteRsk629o6TcuSFI7LHNzstcwvW1FnZas276uVpM7+cs1/plmnO8kBqP/fvfMlT/7D9Hrpcqn1U+1ffIlJ3z+SkuuXSD2HaJVFQmwMAAAAAAAAoPGTyDWJXGtda8+9dONbhzYLr7JDLuzemDfBpVxr/Rc6r8nGq7G/UOhMCfNrlHQ9JdPcBuay3p7dx7ICc36y3c1iKbtNX2BOH/Uw/J15wpt8htW67bjFOvTZtM+tLN8yoXofa307zULnS2SwXXvJmDebswgfyb1F7Tr4gkRFT5LuVq+TZsWZBjj48XS9fe7dRfqa26wl0XTLzALb4B+rClou58FtZqsq/rl7vpoOYP2s9GBDg01pl34vdJnMqdQZUW9NheXpDvazf1SLNHfbcZw4dPNFzqKULFMqpw/KYNR+bX/kjhZkBdeojaTzqrU+iivLJsnTVcllXZRb0kbZ9e6z58Par/fWc2qo/rHnrNiQHssL2e+hyah/X7zqpXmMWaOb1eo6+g0HZxzn0Q5h28aqUZTpI2NEi+wjwAQAAAAAAAAWPTL4AgyGTr/8wGXP5zpArCOPkB7NWyXelSWpafhsw/944uW/qKmvevmwz9gaW9FlsCGLaTlJlMJbKgjXLrQy8XDMSEaRv+8HOsOT8AQAAAAAAAAYKMvnQ56z5AdXfxHn1BoVRt8iiESJtXR8EBPi0T+Wji6kz/QaHLtmzs0XarXnJMph7DHFmHrb2lo9SZDB2yen21BlmyFEf9oMeptMOHL5MgA8AAAAAAAAYIAjyoedNqJGSHdtkdPV8KTKLLBPmyzW1zpx+zXKhcfBmTkYmPCDPjh0n08xjx7RR0+UHU5158E7Ivw3aLD5DD6Oph0iUyVK3hUBftiruuVvWVZUmzYkYmVQpK9Y4872dlEay+HpUb/dDbC6/o6+QoQkAAAAAAAAMIAzXGYDhOvNIB/k23u8N8Hl0yIXNa+WvKefHG7jum/pDayjOlPScdSfSzHc3mEyaJ9sfKZbGnS/JQbKSMmIP1WgeBNFzyqk2JdOr5/RFP+gg3+qKZnnsmVazBAAAAAAAAMBAQJAvAEG+fIvI8Nrvy6gZ5fFgX2eHXH63US40Hhp8w3QmmDb2LqmdMFUmjSjxZPe0XTohr545KL85+2mK4TyBzESq5smyeydLeXmxVJhlWnvHSTnywhF5q6krxTCSyBf6AQAAAAAAAEA+EOQLQJAPAAAAAAAAAAAA/RVz8gEAAAAAAAAAAAAFhiAfAAAAAAAAAAAAUGAI8gEAAAAAAAAAAAAFhiAfAAAAAAAAAAAAUGAI8gEAAAAAAAAAAAAFhiAfAAAAAAAAAAAAUGAI8gEAAAAAAAAAAAAFhiAfAAB+Js2T7VuWyALzEECwyLIVsn1NpXkEAAAAAACA3kCQD3kxvHablO34uZTUzjdLCtzctVZ9Em+j55rne9i0sXfJs7Pq5PdVP4zd9s9aLj8YO868AuGMkx/M0u1ZJz8YZRahlzhtr47lidPNsn6saolsf3KWVOj7k6wlA0SprNhSJw2762T7MgIyyK+KmYulgUAfAAAAAABAryHIh9xNqJFRM8qtu0Vl46XIulfYisqtS/sJmuWLt83dnjR2uTRUVsmdI0rMAltkxBT5bslY8wjobSZIN+sumWaWZGXULbJohH03MmGa3Gff7Z90Bt+qyVIhJ6V+w0ty8JRZnlcm2LZlnkTMkl4x6SaZY79dS8U9XyVLEXnTtm+PrH+xW2TmYtm+rNQsBQAAAAAAQE8iyIfcnTksX3TqOx1y+d3DcsVaWNiuNK6VztqHzG2jXND16/ykF+o2XZ6tnGLdazvTKDVNP5KvObd3d8njZ85azwEF58IH8uol+27bmQ/lV/bdfqhUVjyiM/i6Zf8TL8lBs3TAOPWRHOmw77a/+KeBVz/0KR3oqz+qA8h3y4oBlQELAAAAAADQPxHkQx60yV836WDYWjnf2GaWDSQTZGiZ+tMbQb5RY+2RAS81yfrT78mH1kLjwqfyK3UDCtOn8uMWO2C9VB3b/VVk2d2ytFwHwF6WPT2SwdfXumTPhnqpWVkvj+1rNcuA/Dn4zCvSLMWy9JFezlIFAAAAAAAYhAjyAenMvV2Gqz+XWw7Zj4FBaazcaIbbHLgqZdk9xSIdLfLsvi6zrKeMkRvMsJnAwNIq+/SwneWzZFmVWQQAAAAAAIAeMWThXYuvmvuBzkWTL3ZOnBiR06cHYtaWbaDXz61obo2MWjJHhpc5V5w75MqxI3LhhQa5fMYscpu7VspWzjYPXDoPSHRTQwbZbhEZXvt9ax4/Z/6+K8cO2Nur0OuukAub18pfY9uOyDWbNsuozh3SuUMH2lT56u/IqG/NdpXfIefVc/7bznZ7XkXV26TkW5LyNbmYNnG5bJ0wJX3GQ7RRvnY8OQNq2ti7pHaCnsPPLJCotEUPyXr1Wk8moMu0iXXSMEHkZ+/Wy48vqAWjpssPJsyXRSUlsf1oU9vT67hp6g/lqRKR11t/JKvdo4WOGmfNzfZhQnbhfdbro/F1O/y2cemEvHrmoPz4rH+GYjb76a2r2rexC+x2Ne3SFm2SfzvzW5EJAfuXo2ljTT+mCIS1ndklS0/H6xq+fkpAe/7bib3yq1T1yqacqtP+NHWK8Ryfev6+VfLdgHKJ7RBnykmT1LT8VtV5nDqeHpB/8rRHk2oP/Zy/MP0QU7VEGlZNlvYX98pjGQX5SmXBsjlSPWuyVMQCdt3SfrRZnm1slbbETEC1/u33ul+bwtFXpOYZb6ZdZNkK2XqPyP4n9thZhpMqZUX1bJkzs1icWUTbVblnVTn700vP+7fcykz0E1xPU05aZP2Gw2pdqp5r7pZqz3Za1Hb0c/4iqq6r09Q183b2t2BNndTNPCn1K4/IeLV/S9X+6fZv3rVHnm5SdUhaZhXz8mvDjpPSuDPVXIxZ9ntM2HJKwH4eeeGI7GkKbsPQ/RCqXVz0vJZPzpIKn+MYAAAAAAAA+UMm32A3d62UrLzfFeDTyqVoxv0yeuM2GT3XubQeV1TuXPLzupLJfHwTaqRkx2YZ7Qq4afb21sroWTp42C5X3MG0CfNkWJlaf4da6JR3Bfi0ohm1Mro6eV9Tb0/Vz297CYrKddukfk1uSmMBjOzogMgPpaHSHeDTSiRSUi0NVXXyg1FmUQo60PT726rlu65Aiqbv60DKRxej1uNJI8ZZf21q21NWScNtq2T/RO/yr45Ufy4dl9/EAkbqtVMDtjFiiny3cpU8O9YsSCHdfsbZgaKGSm+gJ1JSJU/dVif/pPcvz+5T9UvcXrYyr1+K16r2fOq2Hyb0SVyYcrnUKbQRpXLTqOnyrOrHpxL3VfVjw6y7rABzolz7YcHfT1b/dsuRdzIJPFXKui3Lpe6exABKsVTMXCxbn1wh65aVmmVxqYIt2dABv4YnF1tBLPc7sr6ft5+nlBfLxEmmnonbmTlLtm7xH45xwZoVsnVV6sBS/lwn1TogqfbPViyz750nK9YkLFu1RBaYR47ANiyfLHVP1sl2n/4L2+/hy+lgZfB+Ll21XNYFZMuF7Ydw7ZLAmftx5leT2h0AAAAAAAD5QyZfgMGRyWcy5Mo65PLuf5Hzbzv1jUjR3O/I6JU6kNaRPoPNZPZd3v2QWodZ5mu+jN5Raw19GcukM+stUuuwt6ckZgSa9V/p7BApK5eizmY5/9wvVVm9vzpLTwfx1N1jTqafI749vc7zz2W4PQ+zjqR195BRd8n+26okcsnJZAqmAzYNE0rUvai83vq8rHay4XSm1pRqk0V1Qh5v2iu/sp6Ic8q+Hj0hd5ZMEbmkXnfioGvOv3EybdSn8qEO1I1dLr+vVK9xZ2o5+6nv+y13LzPl7Wwx7zbum/iAPGXVIQ/7adiZhPqet12mqXapVe1iB0TzmMnntI9ep9qek5WoMyy3Vuo28q+bFqZ+7u29fuaQ7HDN3Whlsekgl1/9wpaLmS7PVqn2y+DYDOLUN20mXyxIl9imy60gnpaUWeqqX7b9YHOy3nRm2Ety0CwNYmfV6aE91es92U2lEqmaY2VPSUuqTLVKWbd7sczucLLl0nO22Xz0pMyeqdZvbfuI2razDbXtSV2pM8IUZz1pM/liwaFu2b/r5VjGmM4O08EjrXlXvTdDzmRDJpeZJ6tXzZIKyax9M2Fn8ul7altWdqN7v5OXefbVtZ/NLzbLvn1O9qNdv9U6OBZbh3lCCdvvoY8Xs592Fp23rxcsu1vq9Dr92jRsP4RsFz92nV2ZpwAAAAAAAMg7Mvkg0nlELsQCfFqbXHl7m0RrN8r5DIaotDP7OuTLdvtxkOG1ToBvh0R3eIcCtba3u9m+n5AR6GQOFulsw99slM5N20yAT2uTyy8c8A3QOduzgn+bgrcnnZ8EZyBOGG8FAq0swv5k1F2y1QqO2UGZWIBPu/Ce/Lhll/zskn4wRf4pIKtL04ElHXD5WoseqtEddHEFls5+KK/rvyPHxrOnRurswxPyuk7yS1queuWiK/pydq/UvPsjWeqzjV+drpfHrUTBUvlqiqzDjPZTU+3yTybAl9guH6p2WR1rl/yZNsLOanm9td4z7OiHZ38rS1tPqHtT5O40mYoZ108HwSY4QS5VP1egTvtQtbW9zRJZVJKQeRmqXB/SAc+mxDbda46XxMzSfPSDmSOvo1tO2wsy0t6iAy/mgaVL2ppeksc21KcI8OVGB/h0gK5mgw4WubeRPsCXNR2UWrnHMySkrl/9Uft+eYU3qytScZ31Vw+P6S1zWB7bdVLdmyxz8zxPW/uLL5sgUpe81dKdtOwT9yllKZUVOqimWMN4ugJZmtV/1r4Wy5zb/bPWwvZ71uXUc+ufUM/59PXBfXtMP1wn4ydZC2PC9UPu7ZKsWG64wdwFAAAAAABA3hHkG9Ta5Eqn+lN2v4yunS9FE+ylcW2ewJi/iAy/rdwKFKZ87YQaGaWz7XRGXZqMuCsd7suKOshnpWXI5d0bJdrofc7NE4hzbS+aZnuXW1I8X+EE+YK32ydMME2ihwKyrj6VH5/RgQ3VQ6W3+A5taIk2BmRUuZ2VP+vAmB5C0V4g91lZZ13ysh7Kc8RU+ZYJ0DmBllOXvOuMBapGjZP7xt4lz06tk/2z6uT3VU7WXYncmGoYzYz2U0nbLn0jMSCVJNP6jbpFFukst0tNssOdxeZmgrKefg9brs9E5Wd6jkDzyM0ZPjaMtP2QhbZ3Tor+XUPFPXfLumWVEkkIsvSoo6/0WADRq1v266wz88jtdLsdTAsjMTCYq4725LZwL0va10k3yRwroNsi+/zm6dOa/iT6ZyAVs26y31OMsP2ey/ESC9xOKpUFVfNk3ZoVsn3LCmnY7WQyhgukJfVDDu3ip639M3MPAAAAAAAAPYUg3yB3ecdGOX+sw5rTrmTjz6VsxzYZXT3fHsYyIxNkaJn6kyobTimaPccOlqWYt88/IzAiRXr90ixfeLIN42LrdgXiwm/Pa7g1Z5/etv24v3CCaZ6MuUQXu+wsDFdwLlHK8jGfyp8u6r9OJpSZd0+V/dUlfSE9HqC7aaQ99ObLCavVQyY+O+uH8vvbVslTeg5BPc/aCCu6l5HM9jPDdsmzD602ELmzcrnc585G1HPKmaElE4OeiTLeXyeIOaJKGqpUe/requVO68UuYcsVkHz0Q1ZOHZbHnmiR5o5imX2PnlOtzgq6NGzRc6v1bNCvvf2cudf/OIEdaw48dxvouf2sYSC9Abg+cYOZa658lmzVfeZ7Wyz63T9J2H7P4XjRQ2yu26Je++RyqVs1S2brufLKnfkG/YXqh1zaBQAAAAAAAH2CIN+g1yaXd6yVzs0b5fxvmuWKlMvwb9VKiRXsS/c7fWXu7daQmCmz4RQ7G69DvmgOyogzGYHSLlc8GYHpg4jOut3BuvDbczMBxjQBzMHAyZ6yM6HGyo0jTGDKBBLt5dPlbh23u9QlH6k/MdY8alX2XHiXTsjrZxrl8Xd3SY26fa3pR7HhFwtWbAjJKfLUba6g2W0maBZtDM6eQ/70RT+cOixPb6iXmif2Sv2LJ6W5o1vay+NBnO1rKu3g6mDS5AzlOVnqnECWvj1pgkNHXwnOEisUYfs9TLkqPf/hLJltfaSpMi++IvWq/Hp1q1lZHxs2NUk/6AdnyFAAAAAAAAD0HIJ8sJ1pk8uNeh6+h6Rz8w653KmDfd+Xa5KG8PTKdD6+tCbMk2F+ATUTRAwOtDmZfqmCdX4yyUDMLEuxL0VGpphkzMneSgy6hfBh9LgVzLO2N3aaFTSxsqIufCCvXlLL9RCPo8aKlTBy8axrvjcniyoqP2u155zT88Hpeec+9Mw9l18p26VH2JFKb0g5agU0a45757/LiZOdGW20AqQpby2/jW83bDk/KTJD+14u/XBOPu5Qf8qLZaK9IHOn9PxoL8nTG/bIYyt1EOcVaVbrqpi5WFYvSzM0ZZjt9XtmXjzrX0e3FaBa/4x3nrc+8XG3vW9HX7ECZSlvGw4H72/Yfs+4nJN11y37d9lzMOp58vTcfG2e+fmCZNkP+WoXj275+GNzFwAAAAAAAHlHkG/Qmm/Pw2ceeZw5JOdf0rPulMtQa+yuYHbGXKYBtnIZNtsnv2HCfLnm4fvtfUkIqNlBxFSZgqkCcUH7H5HhtbVpgoeKCTB65vrrJ5ygm5TMlx+4hyaMGSc/mGAPUdjW9UHuQaYLZ8WaFmrkWLnPGhLTGZLTDOWpAz8mqOg79OSl4/Kbs35BvXHyVXMvH+LtMk3us5YkGGVnIebV2OXWvII/e/dHstQTMKu3App5C/BpJqga3O8BwpbzVSpfzXkdPSDnfuiST6xD9DoZn2LoREekKkWW3qlWefqFk9bdioox1t9gmW2vYFQtseaJ2/9EvR3Ait32WAGqzAJDPezUR3JEB3RnzpYVWbZ92H7P6XjpOClvNfkF9UplvLmXJEw/5NAuyUrl67P0kKKfySfOnIIAAAAAAADIO4J8g1RRdbUM1/Pwbdomo+dGvMG+CfNl9JJMZt1xsuhmyyjX0J5Fc+fL8IQMwMstOmionvvWZimp1s+rsjq4V7tNSjbWyihrPcnBPL+hOD2cQFzC3HtXOvSVSpHhK9d69qVobo2M3rRZRs+wH2cSwCu6bV58HWq/h6v26nMXfiv/ZiUtlch3b6uTZ8fq4TKNUdPlB7NWyXetYNYJ+bfT+ciYOyt/1kGiEaVyt553z5Ud+KvoCfWvWm5NsReVV6M+2xtRJVsnTpdp5qEO7k0bu1z26/20yuWJE8zSQzbO8s7NZm3PGboxj+x5AEvkxhJXH/SYT+XHZ3R7m37XbeoJuI2T+yaqelapupsltrDl3N6Tl51jbspdCfPeqfLuY7AP5KMfDv5OB1qKZc7tKbKwtEnzZPWqxbJ19wp7iMVJ3tdHXPOeBc+f1ypvW8MpFsvSR+YlzJtWKguq0uxDP2UP0VgsN6Rrwz7VJXusoJpq+yf95sRT7b9siWzfvUQWmCWWsP2e6/FSPktW6300D/X+RarU/m1ZLktnmkUJwvVDyHbxM+kmmaM/vo/+SQ7aSwAAAAAAANADhiy8a/FVcz/QuWjyL8gnTozI6dP94jf5PWKg108rqt4mJd/SV+ECHNsh0R2HUg5VGbSOy7sfkvNvmwfG8Nqfx4JrbleOHZALHXNk9LdELmxeK3+Nxd0ics2mzTKqrFnO126Ty2apm7P95O3Nl9E7TLZeok61vncrfLaXKGAdnQckuqkhZbuENuou2X9blUQuNUlNumETdbZeLJjnJyo/e7defnzBPHSZNrFOGiaUSNuZXbI0wyDgfVN/aGVKWfSwj8ffs+87+2w9OCGPN+2VX1n3bc62fF1Sr1dvL09NmCKvt/5IVickAYbZT+/+JNBzAl6cIneWBLdN1lJtz2hT2331zEH5cUI2Y6j6KSnbVFPb+9mJvUn1C1suJmVdk/s+Ufr6Osd0iGM3h36Iq5R1uxfL7I4WWZ9mOMJI1TxZdq+ZKy1IuvVMmifbn5wl/gnTJ6V+5UueAElk2QrZek+xtL+4Vx7bl8lwjf7Sr6dUVugAUnm37H9ij+zxycQKXEfKOtnaO07KkReOyB7f7LTMLVhTZ2WrNe+ql6fN/HLOfqVbpjnLA6n93L/zJU/9w/Z76HKp9lHtX32LSN09k5Pqlks/hGmXREFtDgAAAAAAgPwik28Qu9K41pp/78KxDm8WXGeHXN69MW2AT7vS+C9yXpWPU2V/o9aZEODTLu94SKK7D8hlvT29jWMH5PxmvZ3DUnSbvvKZOOxn+jnxgjP9Dql123WLceq1aZtZX7phRvU61P52mofKlc5mufCSN2uw73wqP275kdS0NsnrVvaaIypt0UapacpTEMuwM/Zsr0dNgE9zhvLUfOb/+/B0vdrHE9Lm3kcdTDJz9P3Ks+95cOG3svTdRvlZ1J6fzWbmZVPb23HRvTwPLnwg/+bZVrLIiCny3cpV8myepgrUbfo1U0dPAOlSvJ5+fR+2XIxp29fV69108OxnrQdTBvh6XF76oVX2vdhtMqdSZ0C1NR2WpzfUy/pdLdLcYc995tDBEz2HWrpAoZw6LI9Z87H5lT9SmBlQpz6SxqPe+iSqKJ8sS1ctl3VVZkEfadu3x5oPb7/aX89HiOoPa966DcmBrLD9Hrqc2sf1u06q15gFmnm9nqPvYFCWew79EKZdvCplmQ4SdrTIPgJ8AAAAAAAAPYpMvgCDIZOv/zAZcz2ZIQf0CJN5JqkyL8fJfVNXWVmQ2WbsIVP57If0WWwIYtpOUmUwlsqCNcutDLxcMxIRpG/7wc6w5PwBAAAAAADoDWTyoc9Z8wOqv4nz6gH93qhbZNEIkbauD1IMrfqpfJTv7EF45bUfumTPzhZpt+Yly2DuMcSZedjaWz5KkcHYJafbU2eYIUd92A96mE47cPgyAT4AAAAAAIBeQJAPPW9CjZTs2Cajq+dLkVlkmTBfrql15vRrlguNZE6ib+h53n5f9cMMb8vlPlPOEZnwgDw7dpxMM48d00ZNlx9MdebBOyH/RhZfj8pbP+hhNPUQiTJZ6rYQ6MtWxT13y7qq0qT5ESOTKmXFGme+t5PSSBZfj+rtfojN5Xf0FTI0AQAAAAAAegnDdQZguM480kG+jfd7A3weHXJh81r5a8r58YCeo4N8dgAoEyfk8aa9sfnn7pv6Q2sIyJT0nHUn0sx3h5z0SD9MmifbHymWxp0vyUGykjJiD9VoHgTRc8qpNiXTq+f0RT/oIN/qimZ57JlWswQAAAAAAAA9jSBfAIJ8+RaR4bXfl1EzyuPBvs4Oufxuo1xoPMQwnSho08beJbUTpsqkESWerJm2Syfk1TMH5TdnP00xjCTyhX7oHyJV82TZvZOlvLxYKswyrb3jpBx54Yi81dSVYhhJ5Av9AAAAAAAAMPAR5AtAkA8AAAAAAAAAAAD9FXPyAQAAAAAAAAAAAAWGIB8AAAAAAAAAAABQYAjyAQAAAAAAAAAAAAWGIB8AAAAAAAAAAABQYAjyAQAAAAAAAAAAAAWGIB8AAAAAAAAAAABQYAjyAQAAAAAAAAAAAAWGIB8AAAAAAAAAAABQYAjyAQAAAAAAAAAAAAWGIB8AAAAAAAAAAABQYAjyAQAAAAAAAAAAAAWGIB8AAAAAAAAAAABQYAjyAQAAAAAAAAAAAAWGIB8AAAAAAAAAAABQYAjyAQAAAAAAAAAAAAWGIB8AAAAAAAAAAABQYAjyAQAAAAAAAAAAAAWGIB8AAAAAAAAAAABQYAjyAQAAAAAAAAAAAAWGIB8AAAAAAAAAAABQYAjyAQAAAAAAAAAAAAWGIB8AAAAAAAAAAABQYAjyAQAAAAAAAAAAAAWGIB8AAAAAAAAAAABQYAjyAQAAAAAAAAAAAAWGIB8AAAAAAAAAAABQYAjyAQAAAAAAAAAAAAWGIB8AAAAAAAAAAABQYAjyAQAAAAAAAAAAAAWGIB8AAAAAAAAAAABQYAjyAQAAAAAAAAAAAAWGIB8AAAAAAAAAAABQYAjyAQAAAAAAAAAAAAWGIB8AAAAAAAAAAABQYAjyAQAAAAAAAAAAAAWGIB8AAAAAAAAAAABQYAjyAQAAAAAAAAAAAAWGIB8AAAAAAAAAAABQYAjyAQAAAAAAAAAAAAVmyMK7Fl819wOdi3aZe3ETJ0bk9Ok282jgGej1y9wMefDxB6Qy+oY8t+MV6TRL0wtbDgCAbIyThbWPyDdKjsuBpxrkfbO0t9y6/FG5v7JUoq3Py0/3HjNLfUyvkY1Lp5oHca37N8kv3jMPQipb9Kg8XFWal3Ulyrh+BWrA1a8HjzN/fXv+5ZPvedTr7VkoBk6/AwAAAEChI5MPKZUtWiCV0iVvPp9doC65nL4YsEk2Pl4jt1qPU9MXWjY+vkkenG4WIC27zTJr33zo7e2hf6Df/XH+9aXrpbRE/Yl2yVl7Qe8pWyxVlaXW3ZKS66XMuuevrNR+nddxOZ5zoGCcTJuq190lXX+xl+RNFvUrSAOwfj13nAXpw/Mvr/zPo95vz0LRd/3O5y2yQf8BAABgMCDIh2Bli6W6qlSk9aC8llWEL2S5GOdCCxdRMmfarNcutvT29tA/0O/+OP/6VNn1oq81S/QvvZ813vm+nIjqO13Sevz9lNvvfPUnsvmpTea2U97U5fLSh87F9uPyYb4bIIv6FaQBWL+eO84C9OX5l1f+51Gvt2eh6LN+5/MW2aD/AAAAMDgQ5EOgW++8Q32BPy4Hshy+KmW5TL5kld0qU/SVg9YPGP4nY87Fqd662NLb20P/QL/74/zrS2W3TLUuNrd+2BdDLX4qr+3QF/9/Ir949VOzLBN57MMevdgetn6FYqDXr+ffK/r2/MujjM4j3nsdfdfvfN4iG/QfAAAABgeCfPA3vUbur1TfiZpeyy7QFljOfMnKxPWlA+OCUW+afouoZu+9Nuvt7aF/oN/9cf71qbFjS9W/PTBUZU/KZx+az8zo2UJqAPSKXnivKMjzz08m5xHvvTF91u983iIb9B8AAAAGiSEL71p81dwPdC7aZe7FTZwYkdOn28yjgWeg1y81M5m+vCHP7chmLr5U5WbIg48/IJWtz8vmWIbfOLl1+UKZevYD+cWr8S9fty7fJPdX+k/kXza9RqrvmColsYBhl7Q2HZRDqnzuv9A0+1+SuG21n9OvV3//Iu+/5/6lv1+dNF2vB615fpzdjLa+IU2vvyLvX18jG5eWypu7fuIaytRsN+qsR5VftFCqquxfSWtRtY1G9Vy8jmrbtQukskRfZEnHvy2zk4ftlal63eltFz0s1ptvvCavedo1f8rKZsi0OxfIlIS+aNyb4rjOej/D9J8Wtlxc2PMh83bp7eMsFzm2Z1b9zvmXntpeVu+DYXnft89OXyzz77hDtZX9bFTVsel51R6J2ylbLN9bdYeUJL1/O7zrjbWnOuc2Lp1qHrhEs/u81HMEPVwlWbRBcHuevUWvq1Ra92+SX+Q6xHXo+uX+fhZGmdXfU13nRpfajupzfZz5bSjn/sv2uM61XXI7j7I/zrKVeJ70dP16rj0zOY/CtGeYz+mk7ajP7AcfcH0GqPe1A37va73G2+89+77L52162Z5Hucvq/9dhP2+N7N7ne7v/XO9Jr4ssVG3yDVXOer06B15T+5O0rM/OWwAAAAxkZPIh2fSF6ouWSOsbmV+wtGRbTr3+/kr1pW3q9VJmFukvZ1Otn1wmDtWpv7RtkoeXui+UaKVSWfWAPFy72LWOPNP7ufQBuf+OWz3bKFukvkSqv55fh+ovso8/ourl+mKolFTeIfevelQenKYvLnZJl7uBzPCk1q/HnfKuC1ZaSeUDUr1onHmk6GGlMvoCq+RjHooct6cvcn1vVXK7SMlU+cbSR+R77rrlhb7g8ag8vOoB64t1Yl88/PijstDngAm1n2H6TwtbzhL2fMiyXXr7OMtFDu2Zdb9z/qUW5n0wNJMl3tolpdY5Eb/QrJWoOuptJp3vabN2nCG+vO1ZVurfD9Es53OLZcFkUihle9bIfD3fkORnDtvQ9cvp/SwkdVzb/e3eZ9VGznE23edcz6X/0vRD3j7fHXk4j7I6zkJxnSe9Ub8ea8/MzqPs2jP8/1vd29EBv43qM9tznOv19VifZqIX33f5vE0tD+8T2Qnx/+uQn7eWbN/ne73/zL7LLfKgaROLev2UO/W6vMu+cecM+z4AAACQZ2TyBRi8mXwz7Oy0LLMS0pbTX0JX3SHStFN+aua90Rl7VSVd6kvU8XgZ9eVK/8o+6npdbN3qS6r16+cPjkmns4GyGbLwAfUFSn3Byj2Lwe+XpM4ydddTN7Pck7Xo7KeiXnvg+fgvTPWXxmp9oUc/SGwjp876PFNfTEuiavvPv6bK6vrrL9P6y6a6G/gL2LB9FlaW2zP107y/sB8nZYsWysNV9gWI/P3K2NVn+pjZ/ws59N6nsW3GfvUf0A9aVvsZtv9C93vY8yFku8T09nGWpRz7QQt3fHL+eTnHp6L2MeP3wbDMZ4u1zsTj2sp+Ufuin0zodztTJkXWjrPepPMvgWnf7D5/TBulW7ell9szUab1M68L/zmWLef9zO7zX8SyK9RxPX2haZcMjuuM+y/eD7EMmUz6IXS75KPfsznOQnL+b+epn/r/k7VDPVC/gmlPZ3vZfk5rrv9fvlFqBQmt9+7XnXWoek6XhJElelmfve+adk3ZT/mU5fbM8akNyM9b59i0Vpr5/yPD93uu7/O90H/uc0GVeU6Xca0naVlSHQEAAID8IJMPHnZ2mvoCo74opv0y5JJ1OfWlqKqyS04cty/UjHUWW7+yV8s/iF+8uHW5/gJ7XA6oL1V6WM/YhRKt85i89vwbElV3S0rz/OtYzfrVuPpy2erdz9ivyV2//rf3U9Ff4NSXSeeLttb5XoP8dP9x+0HC5O9OZoH1y9OmnaqsvkDm1P9Tef91u36B9K9W9d/emlQ+q+2pL9jmi67+cv/T2Bdm7VPpfLVBnmtSbSulMuWW/PRf2aIH7QsQ+kv9U+qYiV2A0FR7qm3+dNfz1sWQ+PLw+xm2/8KWC3s+hGsXl94+zrIUrj3zcHxy/nmEfR8Mq+wW10XMxONanQ+/MOeDlLgzxjOYTyrDee6cz6zA9fgxfZhu3Vom7WnVr4eOv0zrF/b9LGfR49ZF5jjV/7pdntppvUemu5Ceaf2cftAXfn+6N/i4TswIDNsueTmPsjjOwnLOP2/97Od6on492Z5pz6Osz9uw/291MoOmSvVSHRjZab93x9ah6uk55ntfn73v8nnrkZf3iSyE/X9kzv0e9n2+N/rP7LvVJk6Zv3SZ9xPXMqMn348BAAAwuBHkQ1zZYqmuUl/EWg9m9wvTTMo5X+C67C9pt955h/UL7A/196WYcTJND5ekl8fWY4bvFD30zybZ+LjPLfZr4vxz9vN4wngu1nL1hTUWjLSCluqv+UKXSuLk7/aXX/2l0p29mCzwi6Fp216bVD6L7TlDmurMzKAsic4P7ItrJWP1vIe5miHz9bGoL67tSBFw7jzmuRiSy36G7b9w5cKeD+HaxaO3j7MshWnPvByfnH9xObwPhuVcPAz8gUnnX+yLbR7jzNBg7s8ar1utIc7US8xnlj+/z6wMmD5MvW4lw/a01tUjFw4zr1/On2NZ+1S6rAP3DqlePkPKksY9/DT4vSwmw/q5+kFndqSS2Keh2iVf51Gmx1kO4vXb1Cv168n2THseZdyeOf6/1QlMlJRKdL8dSOlv+ux9l8/buHy9T2Qs7P8jc+n3HN/ne6H/nB8eeKaqcLbrWua8riffjwEAADC4EeRDjB24Ul/e0nxZTJR9OfsCiPWLd+vXjqVSqr+4+WTHyfRbrC9dfSO+n94Yn7mA4wpqOr9qTvwVv5t/xoD58qva73jAhZzYugO+GNpfjtNnIuRLNttzLgS5MzN7lHNxLGlOx9TC72fY/gtZLuz5ELJd3Hr7OMtOuPbMx/HJ+RcX/n0wLKff1fqCNujHfNYE/7rftd6U++nMI5RdloTdh/pYtR8Hybw9vcd1/mRav7Dvg7l5f+9OOdDaZc3B9rAVTHlUHlw0I3Ces2SZ1S/8cR2uXfJ1HmV6nIXnrp+1IEl+69fT7ektlyjj9sz1/61OMDFFsKFvud4fU504ifLwvsvnbVy+3icyFvb/kTn2ey7v873Rf0459zb8tmu/riffjwEAADDYEeSDbXqNNY9JtOm17L68hShn/1ryuDQl/Arb/sLq/YLlXHjRvxLf/FTqW6pfdWfG/GLUcO9nZ5cr5dBcwHH/MjT9l0OTMaC/9Hm+5ToXGX0mmzf8vkDGhbzYElo228vwtc4FrXxkeIRaVy77Gbb/wpULfT7k3Ma9fZxlK0x75uP47O12yWZ7+ahfdsK/D4Zl+j3VRUe/4brS1tk5ntJkePl8FqRn+iXFserIvD176MJhxvUL+z6Yq0/l/b0/kc27dsqBJp1hUSqVVQ/Iw9ZF4AyGw8uwfuGP63Dtkp/zKPPjLLzerl9Pby/VeZR5e+b6/1YnQBC8v33N9EOvv+9m8/mXD9lsL8PXFvLnbdh9z7nfw77P90b/OVm77nJ+6zKv69H3YwAAAAx2BPmgjJOFd0xVXz7ekMasAmWZl4v/mtQM9+K5OFAqpdebL6wBX/J6ZL69lMyX48T9LIvX+VBWF1UDLk45v/jO5Beuvi/I4GJLXuV7e6Y9lXxmeORfwH6G7b8c+733z4fePs6ylPN5FCTd8cn5lx2z//m60GUuJKe66GhnmqsmcwVynIvwQXUuS3s82eKfa/bjzDhtkHrdmclzeybIuH49dv5lqNPMBaUDJ7uel9aovgj8oCxMk+oRrv98xDJV8v35HiSTfs/ncRbAL5Djkef6FVh7hvuc7uFzJR/67H3X9AGftxnK5Ljuefn6vM3+fb4X+s95D/Rsw2e7ad8rAQAAgNwR5IM4E6l75hPIQPbluqTrev1lrkvefN188Y/N2+H8ytH7BcjJoCuZemvg0Cxl08dlMTxXhqYvVHVz7afjep8hRWPsYGWycfHJ8RPq53z5Dc4kSPMl3fni2Fuy2p6TGTlVpk63FiRxT+KfXdA0gJnsvqRqodxqL0lWljjMT/j9DNt/YcuFPh9CtYtLTsfZOFm4/FFrHqLvLZ9hluVXuPbMw/HJ+ecj+/fBsJzhyoKUmUzzxAwdv2wfR9miR+XhpeZCXpqMhdh6sqmMuaCZbt1xvdeeiTKtX86fY1mbIQ/q+ZnMI4/OY/KLN46rO0HtFpdd/5XKlFt8gjbqfXPhA2Z+tbx+vufY71kfZ9lzzr/eql+htGdu/2/N9Vzphc/bvnrf5fPWRy9+PoT8f2T4fs/xfb43+s8vS9HvvSKPGZwAAABAEIJ8g56TWfd8lnN/hCs3VQ9D5JOtVzLtFusLUNLFm/c+kFb9t+QOebh2sdzq+rZXpi+uLddfEB+R+QFfysIK2s9StVzPP5g41OjZs/ZFncqlNd59nL5YHqx9xFzwSP6Cl+rLr8X5sphizg1L5QJZOD1+AdJuG9Ve5nHeZbi99z/UX8J1uzwqD7peb10Y1X1nTeLfJW8+n12AOVDn+3LCfFG/v1b3hXub+qLHo7Jx1QNSnTDET9j9DNt/ofs97PkQsl2ShDjOrAsjlbq+ard1ed8rNrkJ2555Oz45/yxh3wfDsvtdX3R8RL7nmaPHPqadi4et+xt8fslfKt+401VGtcmDtZusNmltteuROtvCybiZKlWu86Zs+gxP3YPoAEDsdfocdPeP0dvt6ZV5/fL2OZYhayhtPT9TrX1ce3ZH96PJtkgt8/o555FznOn3T+f99nvqfdO68Ksk/v8lbLvks98zOc7C6u36FUx75vL/VicwETIw03uft/HzIb6J3njfVfi8tfT650NO/4/Mvt/z8z6v9GD/OT88cO97pssAAACAfBuy8K7FV839QOei9n/A3SZOjMjp023m0cAz0OvnKNO/oqwSeXPXT+S1LL51Zlvu1uWbYl849Twl8cDgOFmovozaF8mOy4GnfC4KTK+RjeaigZ9o6/PSuPdYXr40B+6nex/U9jar7XmpL5yPm1/NJoqqeh0vlfuT2supe0C9Fbud1ZdgT5u5udsvWXC5sLLfnrtNk6kvzFkee2mVLZbvrTKZFT6irW+o4yX5Ikv2+xm2/3Ls97DnQ8h2sYU/zpy62Hqgv3Nsz9yOz/DtEk722+vd8y/M+2BYpi3U50arTJVK3zbpUm3yC9UmCRfWAs8huz0+vEUfL+n303tsx6Xu94A2ir4hz+1IPP96sz2TZVa/3M6/sIL2LUa9Dz6X5v8F2fRf0Hmk3zebzk7N8+d7Pvo9m+MsjN6uX4G1Z9jPaVMu2rQz1DzT3mO6Bz9v++R91zkGzMME+Xx/sWW/vYH7eWuE+X9kDv0e9B4dk/J9vuf7z369d7m9zP0+lf69CwAAAMgHMvkGM/VlrVp/eWo9mN0XwLDltFTD1ATNm/Beg5l/wRts1l8mD+zaJD9NcyEvHO8wQ27+Q0Udk1+ofXzT/CLVova3df9OeW5Hgxl2qSthWLD0wzKl/eW6fCqv7djp3a4S1V/wVdvk94KHlv323t+7SZ7bf1y9xizQdNs0qS/nT+XzgofR+Yr89KmdckDto3uT+qLHm6o/fhoQyMp+P8P2X479HvZ8CNkutvDHWecHqk3N/eRzIB9ya8/cjk/OP68w74Nh2f0ePf6a/EK1ife4Vvet8+Enqk18LpSrc0i/Ps7bHrHjJc1+dr76C9/1pB6KTbfRG+r8NQ8V3X9vvuGX5dab7Zkss/rl43Mse52v/sR6H9Rt4zm0nfbJ4P8F2fSffR6pftPb09uwji/9vvm+lOr5e5P6IZd2yUe/Z3OchdHb9Suw9gz5OZ1rxk9vfd72zfsun7de+TiusxTm/5E59Htu7/M93X9+82eaZapM/H0q/XsXAAAAkA9k8gUYDJl8yb82zEzYcgAGK+fX//nKIgGA/sBk0+QtQw7IFZ+3AAAAADDYkMk3WE23J8aPNr2WXaAubDkAg9f0hdaQSa1vcMERwMBhzRul/uZrvkEgZ3zeAgAAAMCgQ5BvUBonC/WE5dE3pDGrOT/ClgMwaOk5XPR8LK3P98BwWgDQg/T71+OPyoOLZkiZWWQpmyELlzvzRR2XJv5PhP6Az1sAAAAAGJQYrjPAQK6fM5F5tpPUhy0HYDAaJ7cuWihVVfYFRz0HEQAUFB00WXWHWFMv+eqSN3fle64tIFt83gIAAADAYEaQL8BgmJMPAHrKrcsflaqSLml6vkHe5wI4gII1Tr2fPShVlaXxYJ/6f3Hr8YNy6NVjDImIPsfnLQAAAAAMbgT5AhDkAwAAAAAAAAAAQH/FnHwAAAAAAAAAAABAgSHIBwAAAAAAAAAAABQYgnwAAAAAAAAAAABAgSHIBwAAAAAAAAAAABQYgnwAAAAAAAAAAABAgSHIBwAAAAAAAAAAABQYgnwAAAAAAAAAAABAgSHIBwAAAAAAAAAAABSYIQvvWnzV3A90Ltpl7sVNnBiR06fbzKOBZ6DXL3Mz5MHHH5DK6Bvy3I5XpNMsTS9suQI3vUY2Lp1qHsS17t8kv3jPPBhoymbIwjsXyJTKUikxi6Ktb0jj3kHU7wluXf6o3K/aI9r6vPx07zGzFAAAAAAAAACA/CGTDymVLVogldIlbz6fXcAmbLlCV1Zaau65HZfjAzbAt1i+t+oB+YYrwKeVVN4hD9fWyK3mcSEqW/SobHw8RB1Um1Sp9tBKSq6XMuseAAAAAAAAAAD5RZAPwcoWS3VVqUjrQXktqwhfyHIDQOerP5HNT20yt53yZlQtjHbJWfvpAWacLHzgDiu4pzPWnovVe5M8t/+4tB5/Td63X1iAxsm0qeoYDtN3ne/LCd3v0qXa4P1Bm80IAAAAAAAAAOhZBPkQ6NY7dQDnuBzIcrjBsOUGnuul1IqA/WVgBnrKbpUpun5mSEp3HTvfa5BfvPqpeVSIcum7T+W1HTrY+ZMCbwMAAAAAAAAAQH9GkA/+ptfI/ZUi0aYss7HClhuIpt8iqimk9cOBGewsu2WqlcU3IOs3wPsOAAAAAAAAAFD4hiy8a/FVcz/QuWiXuRc3cWJETp9uM48GnoFev9TGycLaR+Qb8oY8tyObOfUyK6fnOnu4SuTNXT+xh/MsmyEPPrBAKkvMfHbR43Lg+QZ532cFZdNrpPqOqVKio0uWLmltOiiHXvVmknmNk1uXP2jNk+YUi7a+IU2vvyLvX18jG5eWxvdFs+aZu0NKWp+Xzb7ZiKaeJWo/n1L7aZYmSqpnWlnup5FLe2ZHrbfWtd5ACe0Suj3N8qhTTrXPooVSVWUHFzU9TGhjQhahW5lqi2l3LpApCW3auDfx+My0blrCfqpjcuPSqeaBSzTD86dM1etOb7/rPnvzjdfktff8MgFzbxcAAAAAAAAAQOEjkw/Jpi+Ub5SItL6RTYBPybDc2LE6kNIlXepFOkC1cdUD3uCKjlQkrUAHYTbJw0vdAT6tVCqrHpCHaxdLmVnioQNMjz8i97sDKEpJ5R1y/6oaeXCaDs7Y+xJzvf3a6Nm/2I+TOEM5pp6vzV3PtFLu56P++2mEa88Qyq5Xbe9ab6bCtqcZDtQq57SPK5CllVQ+INWLxplHbjpg+qg8rNriGz5t+vDjj8pC9wGTTd0S9rOs1L9cNIP5+HTQ+nurkvtdSqbKN5Y+It/zq1tO7QIAAAAAAAAAGCjI5AsweDP5ZsiDjz8glZlmIcVkWs6V7fdGqRW0s7KOXj8mnVahcXLrdJH3PRlMZt1isvY+cF6rlM2QhQ88YAcX92+SX7xnllucchLPiDPlrIxAHTDUDxL22c6MK/VZn5E2M00z2075Gkd8P/W+HHg+s/20hWnPfMi0v3NoT5MhF9XvPyWlUmJlJL6m2kbXRQfxdHBM3U1qYyczUN9Xx8z+X8ghVX97H11Zb4H7nnndfJn9Dqyvw7xO82bejVNttlC1mR3YTcreDN0uAAAAAAAAAICBhEw+eJQtWmAF0958PrvgRublTNaWTJXqpTrws1N+qoMbsUKfJgWkbl2uA2DH5cCun8gv9LCc7g10HpPXnn9DoupuSak3c8kuZwdQfro3HjjTOt9rkJ/uP27dT8y4imXGBSaepctMU3RmmPqT8jWGs59WUGZH8H5K9C8+bZt9e+aFqZ//PnmFbU8nQ87KsGvaqdpGDznq1EXV63W73xOVLXrQDvDpIN1T6piJBfg0Ve5V1aa7nreCqb77nkXd/Nj7naK+lhnyoAnw6WCg1WfWI03tr9rH55r0jytKZcot3uM6bLsAAAAAAAAAAAYWgnyIK1ss1VWlIq0HM5xDzsimnBNAKSmV6H47AJPaDJlqRcCmyv2rNsnGx31uOgvMeq2L2qcqK8Kn519Lnc0U7XLvwzgzdORx+TCgLrdaQ2cmlkvgBK5SvUZz7edzafaz9UOf57NuzzzJJNBpCd+ednBQB8F2yk9fDa6Xdx9myHx9LOqgcKosvM5jnmCqh6mbb3unNU6mTVXbT1FfzQ6Kq5c17QzM9uv84LgdvB57vb3ACNcuAAAAAAAAAICBhiAfYm69UwfLjsuBNMGmRFmVc4JDKYIbHtNvsbPcslR2iz3EZap50Xwzrsx8Z8FZXCZolSZTyw5cHZfjaeoYej8d2bZnntj165ITH6QLYoZtT2e5bkP/bcTazh0cdIKerR/I+9aC7Dl1S52JF8SZXzB1FqCT3Zi2/ZKEbBcAAAAAAAAAwIBDkA+26TXWPF7RpteyC45kWS7j4JDhDE2ohzTc/FTqmzurKX0QxWRc6WCOOxqTNkPNCeKkytRyste65Ky9IFDo/TSybc/8cAXmUkWytNDt6SwPbkOn7TzBuLTbSyeLuvkxQenUWYAZbsO3LiHbBQAAAAAAAAAw4BDkgzJOFt4xVayhLVMM/5cs23LhAyiJ8+3lLJZh5g2WOEHFoCyoMiezMGWmVmbZXJlJFdTJMSAVWvpAkyN0e6Zt556qu6lbyEzAlFmXWTHnluJpuz5rFwAAAAAAAABAf0OQD1K26EH5RolI6xsp5jDzkX25zINDjs6uLutvydRbpcy6l6xs+riA50plyi0+wcGyGbLwATOPX0KwJFUWVNmiR+XhpSbwkipTzARiMs8mK5VS77Rrxji5dfkDKYI62bdnXjhDYgYGmuLCtmcsgzMwIy6g7n/psuexq1oot9pLkqn+DzqWYnULKVbflA3zqXTpnZSpMnW6tSCJc27pAPoh1zCsodsFAAAAAAAAADDgEOQb9GbI/KpSkdbns5zTLUS5LIJDMe99IK36b8kd8nDtYrnVFZ0p08G65TpQ9IjMTwiWvP/hcetvSdUj8r1FM1S5cbHXf2/VA3YARfEPlpTKN+50BYJUuQdrN8nDqr6trXbQMZP5znRgMra/avu3Tk8OOJ49a6+vcmmNt27TF6ttPmINhar5BgzDtGceOHO+pR6S0i379kw75KQTSE2cy7DzfTlhAmj31+o2dbW57gPV/xtV/1cvSpMZWrlAFrr6yz521PFnHvtzsuimSpVr/WXT9fFnHhjO8Vm59FF50H1cOMe0PrdU/d983htAD90uAAAAAAAAAIABZ8jCuxZfNfcDnYvaF+LdJk6MyOnTbebRwDPQ6+ewsqmqRN7c9RN5LYuoQKhy02tk49KpEm3a6Zk/Ly1TLki09Xlp3HssKahx6/JNsSCZW7T1DWk6O1Xu99v/wG11Wa/98JZM6j1DHnzcZOC5Rd+Q53YkZj0GvFaLHpcDx0v991ML2545stvVbo+0fR+qPcfJwtpH5Bslqv5PNfgOm2kff6XWXI1JQeayxfK9VSZT04fu/8a9QdmnzrbNwwS+23Nx9iuRX7mg49Pm1745tgsAAAAAAAAAYEAhk28wK1ss1Tog0XowfbDGLWS5dPOzBXqvQTbvel5aE4LNOlhzYNcm+alPgE97f+8meW7/G1a2WFSVbbVev1O9/n0pnWoyohILqm0dMNllNlWu6Xl57ik74JLZcIzH5Be71HatjDJbNHpc3nzDL7tKv/Z5edO9Tb2v+3fKczsazJCL/tsL3Z45yXLOt1DtmX7IyZQZbZ2vyE+f2mlt19UFan2qD1S7/jQwwKd9Kq/t2OntD0X3nz7W0gXOOl/9hW993UNuOuzj87hat1mg6b53tY9Xju0CAAAAAAAAABhQyOQLMBgy+exMouCsoCBhy/UfJnvON7MOAAAAAAAAAACg/yOTb7CaXmMNFRhtei27QF3Ycv1I2aIFzFsGAAAAAAAAAAAKGkG+QWmcLLxjqug54hqzmsstbLlepudke/xReXDRDCkziyxlM2ThcmfOtOPS1J/rAAAAAAAAAAAAkALDdQYYyPUrW2QHulr3p59jzC1suV6ng3yr7hBr6jhfXfLmLr85zwAAAAAAAAAAAAoDQb4Ag2FOvoFtnNy6/EGpqiyNB/vUcdx6/KAcevUYw3QCAAAAAAAAAICCRpAvAEE+AAAAAAAAAAAA9FfMyQcAAAAAAAAAAAAUGIJ8AAAAAAAAAAAAQIEhyAcAAAAAAAAAAAAUGIJ8AAAAAAAAAAAAQIEhyAcAAAAAAAAAAAAUGIJ8AAAAAAAAAAAAQIEhyAcAAAAAAAAAAAAUGIJ8AAD0B5PmyfYtS2SBeYj+KbJshWxfU2keAQAAAAAAAH2HIB+STZgv19Ruk5IdP5cycyuprZEi8/RgNFy1h90O880SIDs6MNCwu07WVZkFgFvVEtn+5Cyp0PcnWUvQj1XMXCwNfRLoK5UFy9SxsqXOej+xbwSGAQAAAAAABiuCfPCaUCMlG2tl1IxyT1CvaMb9UrJprQw3jwtRUbUO1IWog2oT3R5aUdn4QR3sRFil8vVZxepvt3z8sb0EiNEZfKsmS4WclPoNL8nBU2Y5+qW2fXtk/YvdIjMXy/ZlpWZp71iwZrnU3aOOFfsjCQAAAAAAAIMcQT64ROSah++3glhXju2QaO1D0mlu0d3NcvndX8pl+4UFKCLDbysX6fxErpglGTtzWL7o1Hc6VBsczr48IGPkBn1RvuOkvEUABx6lsuIRncHXLfufeEkOmqXo33Sgr/6oSMU9d8uKXsu8LJXx4+x7zbv2Ss3KenPjuAEAAAAAABisCPIhbsI8GVam/uoA345DnmDWlbe3yfnGNvOoEE2QobpuYYJ80iZ/3aSDnWsLvA3QZyaNESvx5tNz6mgC4iLL7pal6uBof/Fl2UMAuKAcfOYVaZZiWfrIPImYZb2io0X2NXWZBwAAAAAAABjMCPIhpmj2HCuL73LLIXvBQDL3dmuYzgFZN/R/NxRbc621t5+zHwOWSll2T7EVtHl2H0GbwtMq+/SwneWzZBlzbQIAAAAAAKAPDFl41+Kr5n6gc9Hki48TJ0bk9OmBm5My0Otnmy+jN1XL8LJ0k/s0y/nabfGhOq15++6XomM7pHOHX9AsItds2iyjyhLKOcs7nXIRGV79HRn1rdmxee70MKHnE7II3YomzJfh91bLMNecgVeOHVBlGhLKZFo3LWE/566VspWzzQOXzgMS3ZS4HR8TVL3u/b53XsPOZrnw0i/lr2/7HVO5t0sYkWUrZOs9Ivuf2GNnEE2qlHWPzJbZ5XruOKXjpNTv9J8fLFK1RFbf654XqluaX2yWfftaAzPVIlXzZJkqE1u/KtN+9KQ0Nh4OmIOsVFZsWS5LP31Fap5pNeVnqfL2s+1q/xoD9s8yqVQWVN8t1TPtAJtFldn/whHZ45sF492efrxg2Ryp1vNf2S9Q+/uKPKue86+jev0a7/baj7ZY9Tt9u27rYmneVS9PN5knQzH7WK76JtUQfXqOtydnSYXaX7suLtm2S6p1WVLvUy7HWWaCtq/qWTVG/T0nBz31UtvfvVhmJ9UnuP8O3rBEGlZdF69DPvpBU+dRw6rJ0v7iXnksRZBvwZo6qZupt3VExqt9XKr20Trndu1Rx5Pal6RlVjEv1e4rqmfLHHf90p1Duk30OTDLe663H22WZxvVeZD3ckrAfh4JPG9tye9JyXzbOVS7uKQ9P/LLOhbGtcj6DYfJCgYAAAAAAACZfIPahPFSlFEQLEGFKqf+XOk4Yz9OEjA0phkO1CqnA4U7NstoVyBLK5pRK6Or/QY+i8jw2m1SsrHWGzxTimbcr9a1Ta6ZYBZo2dQtYT+LymOhD48rGczHVzR3rdpHVa+EfZSy2TJq5WYp8atbTu0S3sQKHRT4TD45ZQdiGp5c7ArAKbr5ki5yV8q6LXWydVXixfRimX3PYtm6JWDYuqolqowO0LnWr8pUzJwldU+ukHVVpWaZy6SbZI7aRruMkRVrVpjy5jmlonyyVdZvPix9wX/7k8ulznXh3qLKLF21XLYvS7E9nW2nL9zvVuVdAT6tYuZiWe1b1rw+YXt2/ZbIslm63ifl7ZwCfFqXvNXSrf5eJ+MD5wErNXO8nZT6hKBDqHZJm4XozDfYLaftBR7hjrM8qJojdasWS929N3mOyciy2aJD+M2/c7VNyv5Tx+ffT1aP7DrYcusHxwJrvd1y5J3g4FXcdVKtA4tqH23qnLt3njo3EpatWiILzCOH0+76dZ76WedQnX+/W+e6OQdc55193qpzXbdLXsvpYGXwfurjc11AttwC6/0hdYDPT7h2SXDqIznSof7O/GpSu/cYdf5MNHcBAAAAAAAwuBHkG8zONEi0Vs81p2877Ew2na0WW+bc3Nl48SDYlY6APAIdYNN/E4N8Jjgot33fzgTsbJbzmzeabWyU88esV6n1u6N1mp3ppgNnIh1yefdG1z6qcr9pVtspl1EP18QDYxnXTd0SsvOuNK71Pr+72V4eVF+HDvCttINzOvPOvY9RtY9a0be+7w1GaqHbJRelMn6c+qMDMzoAd0+x6Cy19U/US81Kfdsr9buOJGQomQyocp21536tuj3xiuzXF7p9h60rlRX32sGM5l1742XUNtbvOintVmDi7uRgnQku6UDL0plilV3v2l6z3p4qu7S6Ut+JswKKdnDOqpN7ey+etF5ScU/w9mTW3XZmjs4we8LZX9UeR61XSUWFzg5zU+2iX6/vdrSoMs726k39dPaifs4/CJattvbP1L/FMuf2gABE1Rwzx1tC/4Vsl0jFddbfjvaAQFTK+QbDHGf54BxziUrl6zrgas1pZhal7T91fKrjL7H/QvdDjGkbT/AwFXV8qnNvv7V/e2Pn29KZCcvU8TbXfQ6adrfOP33exvrdqV9Av+tgqHXc6vMgXsY6XnS5jmK73xOELWe110x1fHjOO7tcvR4SU/ELYOr66eCsrt9+1/vL+l0tVt10cL3eLPNk8YVsl2SZBHwBAAAAAACAnkGQD7agwJyPonLrCq58aV9BTRaQ6ecEB60Mu99slM5N2+TyGScs0CaXXzjgu+2i6u/LKCszUAfp1sr5t9tcr1PlGrdJdPMOOf9cwFCaWdTNj73fKeprmS+jzRCfl3c/JFHP0Jpqf/U+/sa6Ki/DZntz3cK2S25M9pVMltWrrrMCaI894x5GrythiEOdLbNYZusL5k/skaf1sJzuwMSpVtmz076oXl4REPToOCn7POvskraml+QxfRE/NgxinBNc0oGX9Sv1EITq9fYSa3tPm+3JuDGuTK1KWbfKDu7ooTGtOlmPNFV+30uy3goYJAdnnO1V6CyzF/dKzQY9XJ+zv6o9Gp2ggZfdLooerm+Dd+hRq34mYOAfBAuh6U+iQ8bJwUbN1D9pjrfw7WJn4nXLxx/bj5OkzPTL/jjLCysrs1uaj6o6ubOenGzNlo9i9c+k/yyJ/ReqH9xSZ0D6aX/xZXOeOIEl77JPPrUWucSDndYwngnD6cbrFxysbG85kjBspTlvNyQEzRJkXU49p4O/j3nOO00dI/v2mCB7ciDNOW91/dzDebY1HTZ1Swh6WnJvl2TFcsMN5m6PKJXIsiVS7RNwBgAAAAAAwOBFkA+2tENwOiJSZAXcjsjlgJcOn2UHuxIz3+zgoA6CbZRoo/c5N+8+zJdR39LlmuV8qvnwzhwK3B+nbpdb/OYPTCciw29T209RX62oulqGq79XfrNRzr9tL0t0pfmItf+JGXnh2iVHTvZVebF0WHN4BV+st1XKXH1xWexh7Bp2+9ycbKgkJvhQPktWr6mUSFK2S1dCMMDmBJf27wyYe+rUObESl1ycoRj13FtBc9+1vWOydBKCM/b29EX/1POjeYJZk+aZi+4tsj5gSEYtOAgWxjn5WFfcE9y0xYaifMHbZuHbxcnEOylv+fSRZg85qV7il+mX9XGWHwuq7UzMtxOistZydUzFhsfMsP80z/Celuz7IVd+bexedrrdDvzFmKCmrl88czGBE6yc5R3WNHY83HO3rFvmd976C1tOiwV/9byRVfNk3ZoVsn3LCuv9pc56/wkXSEv64UEO7eLHzursIdZQsvo9drls1UOgquM68D0RAAAAAAAAgw5BPljswFyHfNGc5tKhmT8uOCvOBAGTMt+c5c3yxdv+2yiaPccEGl3PO1l4x97xDBmaDaduqTPxggTML5jAyW5M235JQrZLrpzsqxRBH4+qr9rZTiEdfEYPd9lt5uTSF6z1vFyVKS6eZzuUoc0JDGY2x5mbsz09b55/2cjt9lCX7qCKs8ydGZYo7XCXWXOCppPl6+4AyqR5sloPP3j0laQ+Dd0uTjAkMAvRabeATL9sj7O8sAPSuk+82U4mUH20OZY1mnn/+dUv+37odc4QtOWzZKs7IO+5mUzGRKcOy2NPtEhzh5lv0wnubzHnblDwLmw5JaIDe1vUa/W8kXoOTj1Xns6sTcEJsFlDeXr6IZ69mnTu5dIufUx/jH1i3wUAAAAAAAAI8kFzAk3tciVdsljajD8nKJaY+ZY+WOY7DGjGGYZBsqibn7m3Wxl6qbMAM9yGb11CtkuO7OyrzIM+8SHx4vNWBd38s+C65OAze6TmCT2/ls70MQEAK9jnNxyeGcrw6J+C52tLmgsuw8Cg7/CS6YdO9Bu2Mn3wzMwBZwUP7SX5cPB39lCC8aymUlnxiM5SOyn1SRlpObSLb1u5Oe3mn+mX7XEWjneYSjuL7qQ0quPQk2FlAtXujLzM+8+/7bLrhwJ06rA8vUGd1+a8bVbnR3t5PHi3XWfmmpd6hClnzRk5Kzafn54nT8/Nt97Mz+fMiZmk6SXzXEKW8ZPxYVgDs/XyxHl/7BE6aGq9t+q27JaKclXPR+b5tzsAAAAAAAAGHYJ8UDLLVtOc+eOCssqKTFAsaV1By2NyDMYFMnULmQmY2Xx8mYjINUvsvBBP2/VJu4TLktMC59vL1Ck9v9ZL9kXrJ14x2T53y4rE7B4TkEk1xKU99KI3aJNefC4uT3aPk6mYNmMt2zbLft61jHzcrY4IV39UzZGlajvtLx4JDoqm5N8u6bIQIynbLfxxFp4JynmCw3oeN1O/VMMz+krTfzn1gxnus9w1Z2C+mf2z5hs0QfjA24YUQ0Ca8/bpDXtc565YmbmrfYP0RsblnKy7btm/y54PU8+Tp+fma/PMzxfEzE9o/evotgKFehjWpHrlq108UsxbmRe6Lc3chD15zAAAAAAAAKCgEOSDxIbEzCjIZ13x9g16FVVvk5KVTiDLG5FygoPBGXEBgcZ2+3HRt75jB8P8TJhv778fp24h2fVNF2Brkyud+u9sGTbXWpCkqPr7Msqq3wG54JqzL3S75CT7wJOTEZVqfqpIVanPc5WyLjDbp1WefiExE8qWdojLqiVmji53hpyT0TVZ5lZZC5JElt1tBWESgz2xTMXAgGGqNguaJ6xUFqwx2USBwcOQTn0kR3SwxOqPeADr2YAsyrDt4pe96IgsWyFbzXCI/sHYHgpwpmIF2bplf2NCP95gDzvqPyxnDv2XVT8kcvpFByGtBfln9k9mzk4OpKcRqQo4b7XYuavqnjC3ZdhyFp0R6jtcbqmMN/eSmPeC/U/Um4w357bHChSm6rcw7ZIsdbYnAAAAAAAA0JMI8iE251vqISndymXUva7A2oT5MnrTz6XkW+Vy+Zi+cpqc6Zd2yEmT0Xbl3cPeYNaZw/KFCaCN3rRWhk9wXT5W94fXbpOyjbUyujrwsrJtRrVcMzf+miK1z9fU1gQHDi1OFt1sGeVaf9Hc+Wo/zAPjckuz9Xf4ym0y2rUd3TbXqH3UbaPrf+G5Bk/9QrdLLpKGucxA05/EqqGew2rLPM/cV5FJlbJijQ74LJdlCUEka+hEPQ+fno8rMQio58wy2WOJ7OCSnmerTrZ75u7TgZcV0mCCS827XvJkTNnDJ+py9vZinH3Uc6XpbKGd3uycVMEsi5NZmBAkOt1uZxAlzgdmzy223AQig4JguXDmgyuWr5sAXfMLwRlHYdvFVixLq119oPttS51VpvmoXX/fYGyY4yxHc/XwoD5Dh96glushNPUQnm659192/ZDIGe5zzu0psuFy0iV7TCB96ZN+c+Kp82nZEtm+W9XfLLHoeQVX2cPpWkNrTvLunz7nnfnuPG0TtpxDvb+sTjjfI1Vq/1RfLDV9kcgO0BfLDVm1Ych28ePMW5lqaGEAAAAAAACghwxZeNfiq+Z+oHPR5Au4EydG5PTp3rp02/sGev3chtf+XEbP6JALm9fKX9MNCTl3rZSZbD0vu/zl2TqgJQnrisg1mzbLqLJmOV+7zXfYTCsLUAcJdz8k512ZbpYJNVKy8f7AjLwrxw7I+R3e4Fmcs23zMIHv9lyc/UrkV85uR/MgiV/75tguYVUtsYJk7S/uDZg/L4ApF6T96CvyrM/QeFbGlxVECqDKeYfUK5UV+qK+6CH1iqUiufktQfu/YE1dLDiTrFv2P7FH9niCQGZ75SelfqU3aOhw6qDnJHzaM9xjpazbbbK9EnWo9bVcJ3X36CyjxG3mztOuetjBNHPAZd8uSmCf269/63a9DwH1C3ucheCum6eP3Pvv20a591+2/eBltt/RIutTDAvp1M9dN79jMug49eyjH1XX/Ttf8tRRBzqX3WvmyAvis9+hy6XaR6svRPXF5ORzcNI82f6kPXRvkHZV/sgLR2RPQpZgmHZJFNTmPcN5b0x9vAAAAAAAAGDwIJNv0Mtyzre3t8l5k61n65DLv9kh0Vo7gOU/vGX6ISdTZrSdaVDr32ht11O+s1ku7N4o0cAAn9Ymf920US549lnkiip7fnP6wNmVxn/xra97yE3H5R0PSXR3sxm60+j0to9Xju0SUtqhMIM0vWTm1LKznxztR1ukXg+V5xPg09r27bHK7T9q5sEy2tV6mnft9Zkzywzz+GmzPLZhr9QnlnO2FxA4OvhMvazfdVKt3yzQ9Lb0/Fwr/YI16YeVDM70a5WnTd1inHpteMmsr2eG8Wt7R9XRundS6jMILGXfLorqc93+cd7X2+3iX7/Qx1lO3MO3evkPxZp7/2XbD16tsu9FtW0rg62nsvmCz8FY/6u6JvZ/W9NheXqDPmZaks95Hfyy2ig50BS6nNrH5OPTfr2eo++gZ8ddTn0kjZ5jNFlF+WRZumq5rEvINA7TLl6VskwHCROGuQUAAAAAAAB6C5l8AQZTJh/Qr5jMHOmFDLCCRjv1Dzn3g5NJGpBNiRQyyWzTQ/zaQ6/mO6vUzrDszX4jkw8AAAAAAABeBPkCEOQD+kbvDn/Xu9IOD+hxMnD4UGtevCfTD/NYKPLWLr0tX/0QG3KyH9WtEGQYYHWOr3wG+Xpinek5AWE9dOte9f7YW9sFAAAAAABAf8VwnQD6leChMQufXbcQJsWHctRznm3XgSU9L97OgZHNE7pdeltP9cOpw/KYHqpSJkvdliWywCxGZiruuVvWVZVKxDx2RCZVyoo1TgD5pDTmOcCn52DsvQCf1iVvtdhDk85etVwadteZG8cMAAAAAADAYEUmXwAy+YC+4GSqkNEUF8/ecRuImY79Wy/0g85Me6RYGneqY59hOzNiD5lpHgTRc/upNs3XkJo6yLe6otmah7QvRJYtkdWzJktF7Fjk/RIAAAAAAGCwIsgXgCAf0BcqZd3ugTMMZX54g0vtHScJAvUJ+qG/0lmVy+6dLOXlxVJhlmm6j468cETeaurivQQAAAAAAAADEkG+AAT5AAAAAAAAAAAA0F8xJx8AAAAAAAAAAABQYAjyDVI6UxEAAAAAAAAAAACFiSAfAAAAAAAAAAAAUGAI8gEAAAAAAAAAAAAFhiAfAAAAAAAAAAAAUGAI8gEAAAAAAAAAAAAFhiAfAAAAAAAAAAAAUGAI8gFAT5k0T7ZvWSILzEMAAAAAA0dk2QrZvqbSPAIAAAB635CFdy2+au4HOhftMvfiJk6MyOnTbebRwEP9MKCVrJWyG2ebB3GX//yQnI+aB31JB8eenCUV5mFMR4us33BYCuLIrVoi21dNloqOk1K/8yU5eMosRwEpkhXLi2XpdV/K/l+ekz0pzw3ntSLt734uj73zhVkOoP/ivPXXk+2SzfsqAPR/Osi39Z5ikaOvSM0zrWYpAAAA0HvI5AMGoaLhSeEzpVm+4GJbfuggpQ7wyUmp3xAU4NMXOsdKwz+r2/JREjFL5eZr7WXqtu5ms8xlwTdNGZ/b9uVjVJmi+LrQe0qGyZzr7LsVtw0jexP9RJEsuP1a9d7gfq9Q7xO3Dxsg7xPmfdT9HpoNzlt/WbdLjv0A9Ihw/88CstW2b4+sf7FbZOZi2b6s1CwFAAAAeg9BPmAQuvLJWuk88pC5bZQLl9XCy5/IFfvpvnfqsDy2sl5qYrdXpNk81f+VyopHdBZit+x/4iU5aJam9NkVn+zEL+Xjc+ZuhiquGyqzFxXLVi609r7oF3LkM/tu+7tfZNbvQE8qGSXrlhdL3W3D1HuDWWZR7xO3XaveJ64lqMV56492wUCTp/9nAUF0oK/+qPq/+D13y4pJZiEAAADQSwjyAYPeBBk6XP251I+CfAUssuxuWVou0v7iy7KnB4fobH71rNT8q/vWLetfvSjt+snrRsrq24us16G3XJE9e+2+YMg/9L1hsu47I2W2Du599oXU/7Lb815R3/alep8YJnNvHuzvE5y3/mgXIFeRZUtk3Zp5/OhqEDn4jP5RYrEsfYR+BwAAQO8iyAcMdiW3i47xXe4+ZD9GDiplmZ6To6NFnt2XPJep1xX5xGRKeJz70g7UZe2KtP3xgjz2qn1BVmf1ARhArMw8e4i57WmC+Au+ea1Ys65+dlHW7/1cDkbdP+G4Igf/85ys/2W3PP3HQv9px1C5wZOliL5BPyBLWbyfhZfv/2dlZ2LFZJk9s1gmmscYDFplnx62s3yWLKsyizIxaZ6s21InDbvrGO4TAAAAoQxZeNfiq+Z+oHPR5IvVEydG5PTp5IFPBgrqN7AUjZwvwyuqZVhxuTiXEq50H5DzHzVI4CXOkRFV5vsyylVGLjfLhfZfyl+jfm0XkWumb5ZRl3ZI50c6YKbKj/+OjKqY7drmDrXNQ77bLCqpUa+dI8OHl5slHer1R9T2GuTyRbPIT9b76VU0fpuUVIhc+MNa+Wuq7bgUlayV0bpeOjpo6ZDL7Y1y4RP/uuWuUtbtXiyzO1pk/YbDPkMuJYtUzZNl986S2U5zSre0H22WZ59pTVk+UrVEVt87WSpi5ZK1v7hXHvML4qmyDasmBz+fQM+vVxfRw6F1y2PvmJYrGSXbvzNSKuQLqf/Xz5OGSXPK6Ey+p/9oFro55a2L+xeS61oyTFbMHiVzIkPVNmztn30hjf+lAwFmQRI9r9dIqY64h/37UtrbLsizzV9IW1I5PQ9OsSwVex/0Npf9wyiZ7QQeP/tSmo9+njLAELl5lCybaTKRLGZ7/6m2Z5bEebfXpvf3m9eq/XXVse2iKuvTHpYitb2RsnpmvH769Y3Nat9n6/b+Uvb/8pzsidXTbC/goranPz1y3U/dLtd69tNP8Pazl1U/pDv2Yu2W2J62yO1jZOttEn/O71ht+zzgGMhM4PlTYs9l2eYJhjmv99nfgPPoyNGLsifhuE57zlqctvE/7zVnPTb/NrTE3kNSvCaFnPoh1PuLkk05dQ5sT3MOxKj9rFH7aRu4521ux3XIdsm5H+Lbz7Y9s2HXVZ9XF2W82s5StR19/jS/ek61ldqXpGVWMa9Qx3W2n5uOsOWULN6X3EIfn2HPdyXj97McOdvx7H+a/2fly4I1dVI386TUr8xw6PasROTrWzbL7E93yE8aRb5eXS2zZ6r/uHY0S/PObfKWzE9e5jO6RGnVWvnWvbNFfYUwOuTPLzbKO/sOSdD/YkurauT2e+fIjeVOoQ7pPnpEftfYICdSjGARtpyu65Q135e/V3UpNku6jx6wy92wVh5dVSHNT6z1qV/YcuHaJUbPy/3kLKk4+orUqO8cmbCPFfPAGu5/T4+OBgIAAICBh0w+DHARGX7TNin5u1pvEEwpKr5fSuZsk2tGmgUuOohV8nebZXRCGRk+W0bduFlKxseuTMSNnCfDhotcuXRG3a9R61blXQE+rai4Vkb7ldXbu/F+V4BPU9tW+zj677bJ6BKfMkqo/UxQNEJvs12uZBTgmy+jp/9c7as7wKeVy/CKWimZXuPdjz5RKiu21MnWVe4An1YsFTMXy9bdKwLnyliwZoUqlzrAl8qCv5+s/u2WI++kD/Bppz/70vrb0e26cBa9Ih36r3rutLUgO5GvDrMvtn2WPP+Mvnjf8B37gqZzQU6ruG6Y1H0n6Nf0wwLn9aqIXCtbvzNG1gX9Cv+6obLsm2PUa66NB/g0M3dgwzeHmQVu+gLwWNm6yB1Y0sz2/nmMrCgxixKp9U4sMfubWMfIyIC5Cu0LzlsXeeunX1+n6lad4qJnaKH2U1+sVG2ZsJ89J4d+yIPAY1Xdcrnw75xz5cWed2ZZ8Q/qGPhOccI5UCTjdd0/+0Leil181kGB4PNoqTqu191sFhgHm+1hdGfPTDFXpjoe5uhtteU+/1nsPaDtQs4XzbPph3DvL+HK9c45kKAfn7e5H9fh5FynMdm3ZzhFUq22o48xm/oMUufjim8mLFuUPE9l735uhi2X/fuSI+zxGfZ872098f+s/mGCCUDdLt9+stYO5mnls+XG6rXy3xOWza6eb9+PmS/f3vJzqVnlDmRp5XLjPbVSs6VG/W/aR9VaVeZ+V6BOK5fimffL3U9uk29XBZy1YctNqpH/vnuz3O0K1Gmxcn+vc9bb5VxiQCxlubXB5cK2i9upj+SIPsBmfpV5bwEAANBryOQLQP0GApNZZwWjOuTyn/9FLkTbTKaZK8vu8gGJvufK6CtZK2U3WgOdJWTeRaRIlSlRZfT6kjLfTLkrl9U3u+Hlar3Ncv5Pv5TLF3U762CjDsapu2qddqafw9lPex/Px7Lv1PZKviOjdUAtxfa0rPbTY76MnlMrw5P2yY95rW5LnbXXrbbnrHfkfLnmq7VWW1/+80OqDmZ53mSeyRdZtkK26iEzpVuad70sTzeZ969JlbLikcXWfHkiPr+sNll41i9oVbk9ppzOCFy9apZU+JXx0MHF5Wr9Wfxq++ZrpWHRsITsCx1ccWeNeAVmbKhy1q//9cVB9SjpebMtK1vh3Quy7514Fo71K359kc/n1/T6Qt7W24ZaF4TrPb/Oj2e/SVviL/xNHcxFQycrzi6r9/NaqdPrVBL3M7Y9vZ+vurL9dMbAP1xr1pn463vv9qysAFXWyVzQ9dMXMbXE7cWzCbzbi6jtLVPbswNcmWUZOPueNiMoxH66+89bZpTqu/xnJITqh7xk8g2V5rYvZHZE1dU65i6q48ZpS3XMlVxJncmSjtOO7syiWFaH4rfcvcyUt7NVvPsWP66T+yL4vLXZz6c5ztT+rPsHO+iaKuvLN3MlC6H6wXV8ZvP+ErpczDBZ98/qPA085tIbEOets52wx7WP9O3ilk0/5NCeIbjf4+3jyL395GWebbr6r+c/N8OXc/Yz2/el0MdnyHbxyPD9LGdmX73HkunvgP9n5UuPZvLpINaT99sBrKM7pOGZQ9JVpbPT7O8FScvU45+ox7b58u3dtXKj+v+8lZ32jnqdE+yaNF++/kit6B/J/XnXQ/LrJrPcYrIHy1W5Xf+inov1upRWfUe+pQNjap3J2XFhyzn7qXQckJd3xjP+rEw7q5yinmvY0ODKsIuXi2XuZVUu23ZJZn8Xkcwz8vRwnY/YP07MdDQQAAAAwI1MPgxYReO/bwf4dBDvyForeBa/hNAmlz/ZJtE/7JDzf3IP2TnfCqppOlgV9QytqcrrMu3655nlMqzYumoUUzTc/i1zkc7Ga98one9tMwE+TW2v/YBrXT4uH7GCkHFqe1G1vSMb5XxSoC78fnqMHC/6t9ZW9mEaw2/SAb5ma1/O62E53ftz8ZD89U92/YqGp9heT1NfklebAJ/+Yh0L8GmnWmXPhr2y3/r59mSpTpjzImJ+xt68S30hd5Vrazosj+06qe5Nlrkp59cYIzfoAGJHd5a/DP9SPj5n7rp9lpyJ5zZ7kT2XTfxmfv2vntND6XkvjBbJCn1xULGGI3snfkFOa/vj52Yuv6Ey56v+v77XgTrv8Ft6DkBVbu/ZlBfnrIt3/+kE+LQrcvCdc7L+XfvX9bMn2/tlKRklq62LkfbFwVhgSYt+IXv2qn615tcZJtVBWQL64ui/notdrNT0ftabCnsyXdT2ql0Xf93ba1Pbezq2vR6QzX4qEfNY95+3jDMP4zCZG5CpkbV89EMOdGBJHzc1PnPJ5RTg0/74hXoXU64rktg71RidiaKW67ZPWq6OYZMJYlF9tP6X6pj3m+dOHdd2/xXJ+IQsx1g2n/t4j1F9pzeqjomUmVXRC+qYPCs1/5r6nHN4Mlc0HdzxvGeoW4psqcz7Iez7S+7vS72uv563uR7XfSXL9sxF+7ufm4DTFXmrza67e1ny3G19+LmZbTn1XJj3pXDHZ57O2yzfz3IT7v9Z2dE/RrPnVHNu9vCLk6UuYfm6bOZqC3LD+HigSgfz9P2PP1H/+01YZnS3x/+fP2WNDmQ1y8tPrJVf6+En3UGoU4fkrZ0HrPUUVwR8OnQckXdigTqtTbqatsn/WrnRWqff8JeWLMvZ+6noAOUG75CeVrld1rueyKefeOrqlOtW5f7XM8HlulsO+5TLoV2SFMsNN5i76Zw6LE9vqJealfUE+AAAABAKQT4MUPNllDXmYrOcd2fpJbp4yDPfXdH4atFxwSvtGwOz0fQ8eXp9RSMm2AsMe9hLHXTbKNFPgi8bJAfU2tQy9Wf4/TL6pvlSlDR8aFvSnHy57KfHCBPku5zuMsd8GWZdTZgto//u51I2x+f2d/db6+pTNxRbFy/laHPAL2e7ZM8LOmAnUjHrpsCL20HKK/I8Gf4fP5cafYEz4WLeHn3hK0WGRZD2zy5K/S91UC2hrDMUoHp+X1BWhLlIXBEZ5mmXtj99YQUnKm67Vtbdrp7LaojGL+XIn/zPPme9fhefg4cZVG1z1K5b4n7avpT9OvvBPHJzhuzySLu9npLlfmYobxfEc+6HHLV93oMXfb+Uj/XFfD30or1AFujAm2r3t3XbXzdMvm6OcecCeGKwLBbgKimSBTePknXfHCPbl4+xgmZ2xtBQuWGM9Yq46BdyRG83Mip5mNObh6l3Vn1h33uxvM9l2g9h319yeF/qG/35vM39uO59PdOeQfzq616WtM0++NzM5fM21PtSBpKOz0I7b/P8/6z+orTC+pSWP7/gykQzgT/3Mud13e3Op8t8+aoVfJwtdz/5c3l0t8/NyRBM0ibnPlV/yu+Xb62ZL6VJQ9+3BcytF6LcpBr5e72fJmCZyp9/53reVe43acrF20TLpV2StbUn/WoAAAAA6FEE+TAwmQw16X5HLlsLMmMH6jrki+5sL7VGVFn9t1m+8GTjxRUVzwkMqF3+aKOc7+6w5uwrsYJo22T0+PmBQbPw++k1vFhfWtb7bD8OVHK7FVTs75xsvPZ2v59sGx9328Gl8uLYxVDN+UI+e9USWeC+ADGpUtZZw3iqFm/vP7+u1UNP6V/A65uTFVfx2ZWEX/EbTtDmupGy1Z3F47ldawUakkQvyGO/vCjNnw2V2bfpOYHM65fruYGyuwjpy3VR2rn4nDLD5NyXJjgYLxdWRtvrJ9rMxWhrzih3m5cMk3WL7KyKfF207+1+SNSz/eFk7DgZKs78ZOrcsdovfiF8oqqbHuLu7YQL2Xoou3XL1TnwnWKp03MW6jmprNem4gRGg7LZvpDGPAc2ky7O63PZvBbc3/kAAPaSSURBVGfU/Ovn1kX4VDLuh7DvL7m8LxWI3jtvcz+ukaAvPjdz+LwN874U6vgcBOdtOK3y9Eo7E8u51R/Vy/Vwnd7lT6cZ6jETJdYPGTuk+2P7sTbFmmfOu8x+XbP8ydlm1e12dlxIJ57ZKC8f7ZDimbVSYwXDtsm3l81PO09dtuVKb59jBdQSs+3c7ACmt75hy+XaLgAAAEBfI8iHgcnJUMtgGMo4J1DX7h2KMpHvuifIUGto0E8k6HKdE5j7UmftJWmTyx+tlc4/bJTz7c1qHeUyvKJWSqxgX+LvoHPZTzeznhT77HCGItVDg3YeSX1LlcXYrzW9ZC7ITJa6J11DKz252L5YdfQV2ZeHCzM9oe2dC/YFe78soXxwhtX6ZbfUv/uFNH/2pbRfF78Iuf2b/eDX+gPdH50h7IZJnXPhV9++Yy6mtn0enFUBDydjxw6CDZUbrjMBLRO4tJc7Q2h+6R1+92Y9X5g9j5QearD5XdUv6rxYr246eOYMM+jrjxetYU4rbhspC8yiWFZM2xd5m7PJqV/6wCN6XC+etzkd18i/sJ+bYcqFfV/ic6VAOVln7XIulgEXkTHj9F/3MvO6jk/E+S1fLANw10Pyk5Wpb/9rn9+B0yYnnlkrP3lio7z8YrN0q+8rN95TKzVW0C7V/wSzK+cEMf/8TtDBG5GbZ+nXuOsbvlzu7eLl/OgQAAAA6C0E+YCsROSaCuvShzcjz8l0uxQUMMswMHfRzBWoA2Z/2CGXL+tg3/flmqQhPNMJ2E8PE5gM3OdkfTrfXhYqKlKMSeUM6ek7d541m4nqJbduaX7xFVn/TKuk/lp/Tj62pkH0Zgj2ji9kn5XNN1SW/oPPHFtO1lWbHrbKyeQJuO29EFzPqJ7f53N5eu85OyPol59Lsw5aRK6V1dnOzeZkA/hcbE4ZnEhRLqzCCYbYF/G9x+eX1gXd9f+Z/6Eee7sfektsSDxdPzNUppWtYobUtIaYKykSfRnQO2eTk93ypex/1Z6rTs9HpbNn2/wyaJM4c4HF57mKfFXPo6nW15y/YeNiQ+H2VNA/Udj3l3y9L2mqL3v/fTdTvXPehj+u86hf90OW+vpzM+Nyub4vZXl85vO8RTiTzHx8R9+RE9YCbYIU65Pbvcx5XcKcdVrm88oFONUmJ/bp+fQekp88sUP+3KGDdt+XrycNxZkgbLkkpr6uAGZGJs2TG1OUy7ldPLrlY3e2IAAAANCDCPJhYDKBq6KK7wQPMzkycThMMzeezJZhARdGi8Z/X0ZZGXsH5ILr22Es0607aP6HoEy/+fY8fOaRx8VDVlafSLkMtQKEjvD76WECk5lkO165bF/+KRozz39flaKSSOBzMerL9botdobc9mUh5rdLE0Bre+ekffFp5mxZ4XvBoFRW3GsPvdne8pH34lPVEqmbKbL/iXp5zDO00h55el+6AJ/WJZ/oOUfkOhmf9cWK3LW987mVJaSH0FpmAggxqeYDSyNyc4osPbXep5252QICQv5zADlDFKp+cM1Dlj444V8urPj2hsUzq9xK7GyYfuHma615lfb/8qxryEV9O2dd0M3nhdTQ/RC9IjrOHXShP3L7tbK0P7RnbD+LZIGV3eQMXWiGPNT7b4KYvkNWfvaFvPVHv4vnRTLe3AviZN3OnqmD8UXy9Yg6b/T6MrpKOcweju+f7WyeQM75roP+s1Ocv/kS9v0lh/elZKrtc15HD+jF8zbn4zov+mk/hNEHn5s5fd6GeV8Kc3zm67wtMcOL6vezbH8kNNiZufe6213/fzfDTXqW+byuq93+/3zxrHnBQ2VWRXyemy/f1vPpmUcepw7Jr1+wv68U32AvigtbTgtaHpEpa2rt4TV9Api63I23+5xJk+bL1x8x8+ollAvfLn5K5euz9FY+k08S5xoMVBn/frSm0iwDAAAAMkeQDwPTxcPyhTUZ32wZPX2tDB/p+rKn7g+/aZuU/V1t0lCYl7utQQ9l+I3bZHSJu8x8uUaVcYaBufCnBk+wLvVQnIoTUDt32FtufLUM1/PwTbe357nMobY52mTjJQq7n3504G64kymo28a9PkfUzG04/H61rzXx1ytFzjZv3Cyj0lzwWVA9S2brXVMq7rk7IBDnx2TJyWSpXlYZvwg2qdI7f96pw9JoDblZLEufXCHrqlxfx9VrV2xZLkut7Z+Uxn3eywL20DrFcsPtmX2F93PwdyfVv8UyJ4d1hOfM+eUEENzi84Et/Y7f3D5FsuD2a2X7P1/rDXaVjJLVi66Vrf88xh4irMR7IS7imrfH/6LxUJm9yGzPLNHDE65YrvrHCvYkzEMWvSCN1lVFs583u7aXqlxYzsVKPVTZcu+cRJGbVXs4Q5b1A/Y8eUPlBs98bj0kdD98KR877ekeUk4dNyu+OUa23uYfCO59Zj+vGypz9cVyVzbiwZP6PCmSudZvAb6UI3/yOc6uGymr3ce0er11vOh28Z54PkzW7XXD5OtqHXqozkwD1pHbR9nD8SkVKS+wq/P9vy6aQK06f61j292H6nz/plqXeZi7kO8vocu5fSFvO8fqP4xKmFdMlXcfu32gV8/bXI/rnPTvfginlz83c/28DfG+FO74zMd5q/4/ONsML6pU3HZtHgL9/c/p9pPSfNRv1IjcOENLdrfHPzkyXSZN78if9d/y+6VmS41Mcf0fulQHwdZsk5pVm+X2KrPQKF1WLTfq+fS2bJNvJwa7VLlv3+v/iRK2XLTd+k+/3LhqrXcfq2rk21s2y93WcKUJQU3lxO/s70fF92yW/75sviqrtmnq9d+frI19B/nz7xJ+lBmyXXxNuknm6O0c/VPGw3BHls2Ofz8K/KEiAAAAEGzIwrsWXzX3A52LJv9GbuLEiJw+7frSMMBQvwFgZI2U/N39EnTp4kr3ATn/UXIQbPhNP5fR1s88/XTIhT+slb96htyMyDXTN8uo4c1y/sg2OxiWoGi8HXjTc9qdT8jYcJ4L1L1Doh8dysN+Jpovo+fUJmc6Xj4g0fd8goMla6XsxuDLwlfUfp732U+3BWvqrGw5W7fsf2KP7MnwV66RZStk6z0+FT76itQ802oeaKWuYJ6fgO1Omifbn5xlD0EYoL3jpBx54YjsaUp+T7RVyrrdi2V2R4us33A4v1kaxoJvjrV+ed/86ll5OmmunKJYAKb93W55LCEQFrk9TaDlsy9k/399Lntcx2jk5lGybGb8Ypyvzy7Kes+wXK79+ExnHZjFHl/K/l+e82zLFi/rz6+cUyZonfG6J7VLySjZ/p2R/v2u5zb6bJjMjgSv1y1wGzE9tJ9Gu9rfI0cvyh7fbI5shekH5eZrpcFciE6k69R4XbE6fv3Lpm+//HHOI4sedu4/9UVrxdPOX0j9v37uuUiX8hxS7a/nt6q7bVjA+ekYJuv+2QkgJ28jSOK207ZT2mPmS7Wfn6v99K4jbD+kbBvN5/1FC1suJmU907dv+voWznkb9rj2k/VxkHE/5NCeIfh9ZjrrT7dMc5YH8jk+w31u5lAu1T6mel/K4fgM0y5unmM18P8D8DNlzc/l7pkd0vzEWnnL/F/WXtYsL6/cZobrjMjXt2yW2eXuZUbVWnl0VfD/57uP7pDfPHMoKUOudNk2qbknxfcVVa4hb+Xmy7d3m2y9RB2qTi0Vcvc96rx2tYHDbgvzwKX76AH5XfucwHJh2yWR832leVe9PJ3hXN6J33HaX9wrjyX8GBEAAABIhUw+DFwXGyR6ZKOc7+7wBp4uN8uFP2+UqE+AT7v80UMS/XOzXHFH6y53yOX2HWp9foGzoKE441Jl+l35ZK01/96FhP28ordp7ad/4Cz7/Ux0SM7/4YBcdpW/otum3ZttGBPdZuYJtH9d67CCpX9Q+5ImwKcdbGyRZlO8/cWXMw7waW379sj6F81wnI6Ok7L/d+fMA0eX7NlQL+t3xbdl65b2o6/I+pUBgcVTH0njUXtOviAV5ZNl6arlsi7wl7ytsu9FtY7yWbI6zHCkOXN+Ya9/GT8y6Vf0be+cs+b12d9m5tRxfGbm39mbfEGu7Y8X5Om9Z2X9qxelOSF7QF/803MAJV5wjPtSjvyXLvuFFexztLddlPrAC3qqDrHtmUUWtc9tah//Nc8XAqMX5DHTJnHx9tjnlzHRF6JfSKNnH5NVXDdMli4qlnWJw7WGErIf/qieS+hv6yKzHg7unStyup+0p53ZZGt23Y8NeaipfU3MwNDnkF/9nLmwDqZ+CzGcrCel7YuMAnyaNdSnpy/S0Mf2v3ZL/bsJ++v0oToHEwN8uQjz/qKFLRdjzmH/96eLGbdvj+jl8zbscZ0X/bkfctCbn5uhy4V9X8rh+Mz1vD3YHP9saVevT3mOwyUiY8bpv+1yLvZ/WbPMM89cijnrmraZ+fC8/5/XQbCXn3hI/ldAIKtr31qrXPPRDvU/6rhutZ4/79roG+DTwpU7JL82ZWKc12/YZurkboO4E888JA27Dsif9fZ0GateG1W9DsuYWbpR/MuFbRevSlmmg3UdLbIvwwCf1ravOeE7CwAAAJAdMvkCUD9gMDHZf5IqA69UFqxZbmUipv6FrZNJmF2m4sCSPlMD2TDtKckZHHFFsuCbOktOXzDNPfsFPcvOYgl5fphsSfq5v+O8RX/G8YnBxmQHdhyQhg0NGQTssmePWJLD//+rlkjDqslk8gEAACBrZPIBgJk/o73lo4ALXVqXnG7PJE2nS/bsbJF2a17AJSnnpAEyUpLJ3G39J0sOaZSMkmo9TN1nX8hbIQLg9jxaPTGvGvKK8xb9GccnBhlrfkD1t7vlcI8E+PSQm/YPAbMbqcTNnh+8W468Q4APAAAA2SHIBwBGxT13y7qqUolNE2NEJlXKijXOfBknpTHdr2tPHZbHdumhRSdL3RYCfciPituulXU3FyUfnyXDZMU3nfmRvpBGsi36LT3nljMHVvPRoOyZFEpGyWrdz20XyJAtEJy36M84PjFgTKqR/757m3x72XzxDJg/ab58fY0zL2Cz/G5f1p+8acXm1Dv6SvgMvEnzZLW1juZBOgoIAAAAcsFwnQGoHzC42EPsmAdB9ByAO1/K/Mu3+sK+/ZFiaVRlDg6qL+wM15lv9vCO5kEQPQfTfzG3Ub9TEg/sOfSceI/9p2vOtLSKJHL7SFl92zCpUP1cr+fZMs+g/+K8RX/G8YkBRQf5nrxf9M/x/HVI8xNr5a0e+P+4DvKtrmiWx55pNUuyUarKz5HV90yWCvU9o36D+s5gngEAAAAyRZAvAPUDBp9I1TxZdu9kKS8v9l6QV1+6j7xwRN5q6so+82ZQIsjXE3QW2LKZw6T8uqHe4/OzL+TI0Yvy1h+vcHz2R2YOPctnX0rz0c/ladVX2Rkm6/75Wilv+1ye/c9Uw+uhv+G8RX/G8YmBJSJT1nxf/n5meTzY19Ehf25plHf2HeqRYTpzVynrdi+W8qOvyLPPtHK+AQAAIBSCfAGoHwAAAAAAAAAAAPor5uQDAAAAAAAAAAAACgxBPgAAAAAAAAAAAKDAEOQbpBiqEwAAAAAAAAAAoHAR5AMAAAAAAAAAAAAKDEE+AAAAAAAAAAAAoMAQ5AMAAAAAAAAAAAAKDEE+AAAAAAAAAAAAoMAQ5AMAAAAAAAAAAAAKzJCFdy2+au4HOhftMvfiJk6MyOnTbebRwDPQ66ctWFMndTPNA+mW9o7PpHHnS3LwlFkEAAAAAAAAAACAfolMPhjFUlE+WeqeXCILzBIAAAAAAAAAAAD0TwT5BrGDz9RLzUpze+IV2d+hl14n4ydZTwMAAAAAAAAAAKCfIsgH26lWeaul2zwAAAAAAAAAAABAf0aQDzFt7Z+ZewAAAAAAAAAAAOjPCPIhJlJxnbkHAAAAAAAAAACA/owgHxJ8Jp+cMncBAAAAAAAAAADQLxHkAwAAAAAAAAAAAAoMQT4kmCx1W+bJgknmIQAAAAAAAAAAAPodgnyIadv3stQf7Zb28llS92SdNOyuk+3LSs2zAAAAAAAAAAAA6C8I8iFJhfkLAAAAAAAAAACA/okgH+Kq5kjdzGKRjpNS/8ReqVlZL4/t6zJPAgAAAAAAAAAAoL8gyIeYSMV16t9u2b/zJTl4iuAeAAAAAAAAAABAf0WQDwk+k09OmbsAAAAAAAAAAADolwjyIcF1Mn6SuQsAAAAAAAAAAIB+iSAfAAAAAAAAAAAAUGAI8iGmrf0zcw8AAAAAAAAAAAD9GUE+xEQqrjP3AAAAAAAAAAAA0J8R5INtUqUsu6fYPAAAAAAAAAAAAEB/RpBvEFuwpk4adpvbk4tltl7YcVLeOmU9DQAAAAAAAAAAgH6KIB+Mbmk/2iL1Ow9Lm1kCAAAAAAAAAACA/mnIwrsWXzX3A52Ldpl7cRMnRuT06YEbDhro9QMAAAAAAAAAAEDhIpMPAAAAAAAAAAAAKDAE+QAAAAAAAAAAAIACQ5APAAAAAAAAAAAAKDAE+QAAAAAAAAAAAIACQ5APAAAAAAAAAAAAKDAE+QAAAAAAAAAAAIACQ5APAAAAAAAAAAAAKDAE+QAAAAAAAAAAAIACQ5APAAAAAAAAAAAAKDAE+QAAAAAAAAAAAIACQ5APAAAAAAAAAAAAKDAE+QAAAAAAAAAAAIACQ5APAAAAAAAAAAAAKDAE+QAAAAAAAAAAAIACQ5APAAAAAAAAAAAAKDAE+QAAAAAAAAAAAIACQ5APAAAAAAAAAAAAKDAE+QAAAAAAAAAAAIACQ5APAAAAAAAAAAAAKDAE+QAAAAAAAAAAAIACQ5APAAAAAAAAAAAAKDAE+QAAAAAAAAAAAIACQ5APAAAAAAAAAAAAKDAE+QAAAAAAAAAAAIACQ5APAAAAAAAAAAAAKDAE+QAAAAAAAAAAAIACQ5APAAAAAAAAAAAAKDAE+QAAAAAAAAAAAIACQ5APAAAAAAAAAAAAKDAE+QAAAAAAAAAAAIACQ5APAAAAAAAAAAAAKDAE+QAAAAAAAAAAAIACQ5APAAAAAAAAAAAAKDAE+QAAAAAAAAAAAIACQ5APAAAAAAAAAAAAKDAE+QAAAAAAAAAAAIACQ5APAAAAAAAAAAAAKDAE+QAAAAAAAAAAAIACQ5APAAAAAAAAAAAAKDAE+QAAAAAAAAAAAIACM2ThXYuvmvuBzkW7zL24iRMjcvp0m3k08Az0+gG5K5UFy+ZI9azJUlFuFslJqV/5khw0jwAAAAAAAAAAQM8gk2+wumWozPufRdat8hazzGOIVJrn51UPMcsGoeu/Il8z7fC1+YO4HXwsWLNc6u5xB/gAAAAAAAAAAEBvIcgHGVPpE7y65SsyxtwdzEZOGSIjzP0RNw+RkeY+SmX8OPte8669UrOy3tzI4gMAAAAAAAAAoDcQ5IPITV+RUnPXUeoX+Bt0hkjJzaodzv1NPnn7qsgY9fh68xRsHS2yryl5OF8AAAAAAAAAANCzCPINcuc+0lMyDpExniE71eOb1B/13Dl7weB0vWqHMSKX/nhVzpy4Kpd0u0wh+AkAAAAAAAAAAPre0MjkGzeZ+4EuXbpo7sWNHn2dnD//mXk08Az0+snYr8gNOkvtj1fl/9wwRMYMuSofHzfP3TJUblbPnVPPiXpuxDnXcy4jb/mKTL5PvfYf1Lq+oW92ptv/Ua/9v81rYvTcdrVDZfJUkXNHryY/L0Nkwj8WyS3/MESGfHRVPr9gFscMkdL5aluL1ToSt3dObS/p9S7Xq3Xfrcrdq25Wua9IydQh8uUnV+ViqnKTVP1UO/yfY3+TaJs6JlS5a0cG7b9tpNrH2cu/Eq+D37avV23u20Yh9zOg3P/jC5HPz5rX5N1FGXPrHJlzTYe88l8fywA+UwAAAAAAAAAA6JfI5Bv0rsolna7nGrJzZIn+Vy2PSmw+Oi87IDfj21+xMt3ihsiIm4bKjP85VCbkdVjLIVL5j0Plprlq/X7b+x9DpXK+f4adDrrNU8+Pvyk+t542YswQuel/FMnXAspp9pClV+XcB/qR+vuR+pPFkJ2B21a3xLB5uP1U/VAdXG78t1W7eDI0e0B5sUw0dwEAAAAAAAAAQO8hyAeJ6ow9cYbsdOahuyrRgKnWRs7/ioy3gm1X5dyvv5TD/9cV+/YfX8on1vieQ2T8/xiaNM9fWHp7VjBR7dNH/2G2Zd2+lGO/1kFKb4Ar5pahMmOuCdS9rV4bK3fFLqeeGTH3KwEBSWfI0r+J0wxdraad0g7ZqfbnG2bb1j672kjv85t6PS5h9/MW1Q83DVH1T97GR3oOQWXMt/PXDwAAAAAAAAAAoP8gyDfIjSgRuXjob9bce2N05pqZh+7c4b8lZZtZrv+K3GwCUp/8x5fS+oErYPWXq3Lm312BvhRZcmFc+uPfpOsv5oHlqlz84Ev5/b9fkd8fSgicqe1PmGdvXwciW9Xz7vpY5X6dImh3y1fEiitagT3jA7udRtw8REbaSwKN0cG3t7+Uw6o9ulS7xKn98NQhh/1Uzx37D1V3n210HfpSPtKZh8qIvGZVaqUSWbZEqmequx3dctpeCAAAAAAAAAAAehFBPijxoShLp+isOPVYD1FZ6pMh5yz76G9yxhOsclyVM4ftgFMmwbBMXDwRz2bTw3KOzCRoZYKVcu5v8rE13KaPFEE771Cdjng7pR2y86MvfQKPPnLcz1jAUK2n9BbVPtVD5Wv/OFTm/c8iuUlnIorqr3yl8k2aJ9t310nD7uWy9Z7JUtFxUvbvPCxt5mkAAAAAAAAAANB7CPLBYg1FOeYr1rx37iEqE9nz9Yk1X1+gLjsop4Nh+QjyyV/+Jr//j7/JuXNDZMxcPQdfkRXEmveP9lx8vkE/Jxip6jRDv9b3NtTK1kumtmMCZDcllHECZ+mG7EzZPm457afqDx3Y+0f1mv8xVG7ScyTquflUu/eGdnX7xL4LAAAAAAAAAAB6GUE+2Ey2mOYZorK/+MvfpPXfr1jz/un55s6duyqXxsSDfl+rzlNAUTNDdaaSryzFnOi5/HRgz8oEVG3ytmob1T7HzPx8znCdeXPqsDy2sl5qVu6V+he7paJ8stQ9Mk8i5mkAAAAAAAAAANB7hkYm37jJ3A906VLy7GyjR18n589/Zh4NPAO9fjL2K3LDzUOs4NDHx+1FQ4YOkREjr8pf/tPMC+fzmv826StSdsMQ+W+X48uSqNdMdsodvSr/t142aoiM+5oqd+mqdDrLPIbI6JlfkWtHiPyf31+Vzy+YxYnU8ounr0pUraPzzb/Jxx9dlZETVLnx6jZULXMmiBsyREr09j7S8+Kp1+nXBt0S9qe0aqiMGWPPOfjBy4mvvypDpqptjRG5oraduJ9O+1z5xLUvqYTezyFS+f/5ijW06ie//pt88J9/k6ja3kW1P/+32aeRaj91AFDPZRg9ay/Lj4ty6oP35S+T5sicmy9La+NHcso8AwAAAAAAAAAAegeZfIjpOvSl/P7fg4fq1Jz58eSmr8gE33nphsiEefZwkZf+aIKF2l9SD+E5cv5XZHxA+tzIW1Jkzan1tjpzAJqhRC1q+Tmdmhi4n0HMUJ3nrko0YM7BqKqX9bo0Q3ZmJPR+Gno/P/DLvDTDgAIAAAAAAAAAgAGJIB+y85e/ySfWMJBDZPz/GCqVt7gCXdcPkQn/ONQE667KJ4e8wadL1nigQ+Qm99Caukz1UJmh5wL0c/1X5OZvq+f/51B7SE71ejf9uPLbJqjomQfvqpyxgn9mP5Pm7hsipfPVOtV6S80Sixmq0xOgTOAEOvMzZGfI/XSMUe2jy5iH+vUjb1Gv1/1gzR8IAAAAAAAAAAAGIobrDDAYh+tMEvCai8fNkJUjhsiIm9VrvmFuX7OH27QCfP/xpXyaMJTl518Msdc35itS5i4zZohcevtLOXXZHl7SM1znhavyf1Q3/LcS9brxqpx6fWx76qYfW5s89zf5cH/CMKBnr8q5oUOs4TNH3JBcdowedvScOr4/iW/PHqpT7cOxFENcqteOVuVHqA0nDtmZ9XCdWoj91C6ZMv9Nl3G9vky1sR4W9aNjqqnV8/kfrlMrlW9U/51M/etJ+eV/fSwD+EwBAAAAAAAAAKBfIpMPIVyVM/9+RY79+m/2UJMxV+XSR1/Ksf/rSznjN9TlB+q5X6vXuMucuyof/ccV+f2hq3Ix6jfspMjFD/4mrbHtJWYH6jnp1Hr//W++mXcXD30ph//jS/nkIzNcqEOVO/e2LufeVzNUp6rHuQ+sBQHU8yabMS9DdirZ7adNl/FrT90eh9XruzyZjQAAAAAAAAAAYCAZsvCuxf6RFZdz0eRZ2iZOjMjp023m0cAz0OsH5KZUVmxZLkulRdZvOCycKQAAAAAAAAAA9C4y+QCEVz5LllX5zhYIAAAAAAAAAAB6EEE+ACF0yVst3da92auWS8PuOnNbIguspQAAAAAAAAAAoCcR5AMQStu+PbL+xZPS3mEWAAAAAAAAAACAXsOcfAGYkw8AAAAAAAAAAAD9FZl8AAAAAAAAAAAAQIEhyAcAAAAAAAAAAAAUGIJ8g5QejhQAAAAAAAAAAACFiSAfAAAAAAAAAAAAUGAI8gEAAAAAAAAAAAAFhiAfAAAAAAAAAAAAUGAI8gEAAAAAAAAAAAAFhiAfAAAAAAAAAAAAUGAI8gEAAAAAAAAAAAAFZsjCuxZfNfcDnYt2mXtxEydG5PTpNvNo4KF+6B3j5AezVsl3R0TlZ+/Wy48vmMXwNW3sXVI7YarcOaLELBFpu3RCXj1zUH589lOzJJHTxuq1Zxpl6en3zHKXUXfJ/tuqJGIexlxqkpqW38qH5mGSsOUAAAAAAAAAAMgRmXwACsPY5dJQWeUJ8GmREVPkuyVjzSMfo26RRSPsu5EJ0+Q++y7gK7JshTTsXiILzGMAAAAAAAAA6K8I8gEoANPl2cop1j2djVfT9CP5mnN7d5c8fuas9ZyvCx/Iq5fsu21nPpRf2Xe9LvxWlrrX2dQor5unUgpbDv1UqXx9VrFIR7ecNksAAAAAAAAAoL8iyAeg/xs1Vibpv5eaZP3p97zDYF74VH6lbsE+lR+32EE436E6gZgxckO5+vPpOWEwYwAAAAAAAAD9HUE+AOhrk+bJui110rC7TrYvKzUL0euqviqz1Z/m37XajwEAAAAAAACgHxuy8K7FV839QOeiXeZe3MSJETl9euDmOlC/AWTUdPnBhPmyqKREImZR26UT8uqZg/Ljs4kZYOPkB7NWyXelSWpafisfqsf3TX1A/sldNtok64/r54KMk2ljF8jWCaUSic0fF1XlDqlyCVlozvZGROVn79bLjy9kv71pY++S2gl6rjqzIHBbcdMm1knDBDHbVAv82ija6Lu/901cIP9UOkXVzSxytndGvVavK0+mTVyu2lBtxzwOpPbza2o/bU57mocJ2s7skqWnU2X9OabLs1XVcucl5zjIVLhyC9bUSd1M80C6Zf8Te2TPKfMwb0plxZblsvTTV6TmmVaJVM2TZffOktk6c01p7zgpjTtfkoOB2y1V+3m3VM8slgqzpP1oizQ2HpaDNyyRhlXX+e63nuNu6z0Sf25Spax7ZLbabrH9ArXd+oDtRqqWyOp7J0uF2UfdNs0vNsu+fa0+mXbe+ln7u2yOVN+jytsvUPv7ijyrnouXVfuyxbUvKan9XKn20zwCAAAAAAAAgL5GJh8GsHHyg6l18vvbquW7ruCVFhkxRb5buUqeHWsWJBpRKjeNmi7PzlolTyWWLamShll3yTTz2MOUaajUQTAnwKepdZRUS0NVnfxglFmUaGS229MBrR+qbbkDfFoG23LRAT/fNlI3b5DK7J8OvPlt77Y6eXbiOLMsH0o9+4McTbpJ5pSLtMsYWbFmhWxdFQ/waRXlk6XuyRWywhoXNcGkebJ993KpcwX4tIqZs6wy6/5+snr0mXziE6ibWKEDaPZzOuDX8ORib1BN70NSOR18q1P76A7wacUy+57FsnXLvORjw6lf+7n4/roCfFrFzMWy2p0pOWmMlGcU4FOYpw8AAAAAAABAP0MmXwDqNwCMXS6/r5xiZe3924mDrnnbdDbaA/LUBB2EOyGPN+2VX9lPKImZYFH5WevzsYy/aWqdOoCnvd76I1l91rprmCwufVdt82eeTEGTATdhipzylAu/PTsbT9chqp57Xj1ntqWz8qZUm3Um1s/mlH09ekLuLFHrV/v7eEIbTRv1qSczL7Y967VqnbHnnMxFtZ6uTDPlsjTqLtl/W5VEss6sszn73l8z+azhOh+xg27tL+6Vx/Ylv+fmrEpn2+lgnNYtzbteln1NXXZWm5Vdp4Nv6v5RJxPOoZ7brZ7TdztapH7n4VjWnZVppwNx+oF6bv2GwwkZdia7TtRzLxRbQTsrm66xVdqsdZTKgiqRg2o/4pztmay9d5zXKmo/V6j9XKr2s3lXvTzdZJZrpn7tHd0i5cVSYWUIHlH7qtetsxB1kFLdTaqfw2zXtx4AAAAAAAAA0P+QyYeB6+xeqXn3R7K0RQek3IGdT+VXp+vl8ai+XypfDcp208GspnrPkJ4fqnXa5UQmjfBmrU2bON8E+HSAZ2/CUKB6m3tl6bu7EgKDLtlsb9RdstUE+PSQm7EAn3bhPflxyy752SX9YIr8U4rsOh3g04Gvr/m0UdDQm21dOhhoHljUa9V+Lm1Rbd0TAb7B4NRheXpDvdSsrO+ZAJ8SqbjOvqODWCv3yNNOgE871SpP72yRdn1/3BhPltyCNSbAp4NjG+IBPq2t6SV5bNdJ+8Gn53wCY2PkBisTb7KsXnWdNO/aK4/p4TJj6+hKCPA52zsp9U+ofdTDcrq2p/dzj9nP8grv3IVO/Sp0Zt6L6tzfoIcAddatttNo6hdEZ/Xpv771AAAAAAAAAID+hyAfBrRYoGrUOLlv7F3y7NQ62T+rTn5f9UN5yhpNs0RuHGm9IkFUfqaz1cwjt48umqibxzj5VqkJup1IkcHlCaS5Zbm9kWYoy+ghe069JJ/Kj8+csO5FSm/xH1pUizZmHJj7MHrcCn5EJjwgz06cLtMyGAoU/Yc9bGa37N8ZkKV26px0mLsxk+ZJtc5+04FB3+y3uObf+TzvBM7Ki6Vjlx1YTK1S5lpzE+qhQ+ukYbfP7clZniE4HXb9dIZf6kxIazhPPzfYQ5H61gMAAAAAAAAA+iGCfBjQpunA3qwfyu9vWyVP6bnr9Lxznrny8mWs3GgNj9klfwrIgMunaSPsLKa2i0FpgcpFk6ml5xe0FiRLWT7Rhd/K0neb5PVLJXLnBD0Hn2rXKnWbpefiI+jXv5XKeCuh03/evCCR2+2hONtbPgrMbrMz6Lrl44/txx4mcKaHIPUMrRmk6qt21mDWnPqdlLcDAolOXTra/Z9fYM0rGFAPAAAAAAAAAOiHCPJh4LLms6uSO3Xw7dIJef1Mozz+7i6pUbevNf0oNgwmsnDht7K65UfyNdWG/3/2/j9IiipP9P4/PmOEoX6/s2IVVsMoNPOjabw0qzC6jg1t4+LsdZyx+2Ggo9l7/3CCZYUOrs7X+RqhBBtiLKFGGGPM+BANLsszxvONXTqAJWhmHO+u3gGRRlcHcIWVpmdGGpzhh3SBO3HV8Hlmrt9zMk9WZVZlVmVmZVdXVb9fEQ1Z2ZWdmeeczKo6n/qcs/4DVaafZmX06nzQb7C1LThrEBPIDJt59DdywF5RzGe4Sif77+23gjLj0vKN+fo5/sFDJ3AWvL2XM+Smnm9PD11a6sebrWfO79xlOWOvKOKci38QL14QFAAAAAAAAAAmEkE+NKg2eb5ltvo/Kz8Zseece+jMMWveuROBQ2YmocQcf+Og+ZqpZsmHM6Tnp2Pya2tFglQZ6jkGHzrSL11DOui3R177VB1PqlueKTEHICaIyZALHKpS6ei2h8GMNlxlqeBa/MBZ4Xx7ZTkZgIHz6ZU7lhBBUAAAAAAAAACoMQT50Ng+HZZ/vugX1GuSr5ilZByTV6zMwJR8b/bdwdls1zYlkunmzI8nqUXyfd+gYpN8/yYd5BQZHXsveI7ACOZMLZGl9/ExeciZA7BU4PFaM3xq+9/IYD0EA0sMdVpS1O1m3iGPPm3POffc8ogBrhCcDLmgoSql/V7ps+bC08NdWmtcpsiNN5pFj7R0PLykRHCtfHZdodGzH1n/T5//VTtA7aO53QSvXXIZgIEByjLH4mQxAgAAAAAAAEAdIciHxnZ1uzyj54szD3Xwa87UHhmcv0q+l/DUfD/9YMgOdKh9Dszvke9PdQexzH5vWSUDrW1mXQU+/oX8vRNUvKVPnnfv69o2+b4+P2uOwJPy92cSyFy89m55pqVbBtr77CE5r/UG6OaofdqZk6Xn+fvOTWb4VKX5pqUBAcpacFHe/1T/P1v+yt1+1Hl+p+Qxx9tOZ9EtMFGm6ffdIytm2stJsYeqFFmwSgcRW1xBMh2oWyEDq/SwmnqYzJc9mWxnzl62/l+w6l7pcB1Tc7sOSvaYwGBAhqDP8J9lDf1GDuv/p82XZ56+w7vPmS2yQh3rM6t6ZHm7WWmUHopTcTIZS8wtaLl1gaxozwdZ7X2q4zCPAQAAAAAAAKCWEORDgzommz+wJ91r1vPFtdvZY//WvkoGWmZLs5y05pRL1Me/kK53nEDfbPleyyqzT/d+s/KTD45ZT6/UT4e3yk+sgFJK7nLv65ZuE+BT+3pnh/xUL1ZKndtjI0Py2qcpa0jOgVvc5/Y36nG33KWf9+mQPJZEUHHCnZd/HvNpP+o8N95UKkgbd7vxZIaqPHdZzp7TQcQl8syLdtbgwIs6UGcHAM++tEOeLcjiG9152A66ySzpe9LZpk+eWTVfFsgp6X9JBwED5ty7cYo1/GepIUKLjcizW0/Zi9Pme/f55BLpUsd69uirstNznOWHBS2byXj61/K2Khudtdi1qqdgn/PlzwqCigAAAAAAAABQCwjyoWGdONMvvSMnZdQKhBmfnszN0fdT9/qk6EDf0FYrgOjZr2RlNLtHeof65Ucfm1UVOy8/OvK36hx18M2ssozHvlR5XvyFPJTbnx3Icoyacu098ouSQ4PqbEfnWEc/2J3o8SXNaj+6Hs1jiz7PbHCmohZnuwN7jshhK8ikg22vyPaIc9iVZoaqPH9YHnl8h/QfvSxn7V9Yzh49Iv1P9MsjO/0CYCPy7BOvyqDaJufcZTm8dYc89vjLZuhL/+Ba2cBakKGXpVft87Daj1vuOH88UpCNV35Y0LKZfjIm21XZeM5TOXvulLXPwuAnAAAAAAAAANSCKzrvXvK5WQ50KVvcSTtjRrOcOVNy4LO6xvkBaAgz75Dnnpwv8tKOgEAeAAAAAAAAAKAekckHAA2s+fZZ1rCZkTPqAAAAAAAAAAA1jSAfADSw8kNVAgAAAAAAAADqEUE+AGhYaflSk/7ff948AAAAAAAAAED9IsgHAA3rerlxmvrv3GU5Y68AAAAAAAAAADQIgnwA0LBG5NkH+qX38Tdl1KwBAAAAAAAAADQGgnwAAAAAAAAAAABAnSHIBwAAAAAAAAAAANQZgnwAAAAAAAAAAABAnSHIBwAAAAAAAAAAANQZgnwAAAAAAAAAAABAnSHIBwAAAAAAAAAAANQZgnwAAAAAAAAAAABAnSHIBwAAAAAAAAAAANSZKzrvXvK5WQ50KTtmlvJmzGiWM2dGzaPGw/mhKq69WwZvaZdm8zDn0yHpPfILOWEehtMk35+/Sr53tcjoB3uk68wxsz4Zc2b0ycBNKfW3t6q/fd6snSjOuWblJ+/0y48+NqtrQlo6lt8m3fNnyfRpZpWckv4HXpYD5hEAAAAAAAAAAJUikw8YB3Om3i3Pz++Tf2v/m9zPYOvd8p1rzRPGw7U3y+Kr7cXmm+bId+xFVFnHwz3Sd587wAcAAAAAAAAAQPII8gGJapLvt/bJQEu73HV1yqyzNafaZeMtffL8VLNC+/gX0jX0t/KnuZ898pr5VWQfvyf7PrUXRz84IT+1F1FVaflSk710eOsO6X2g3/yQxQcAAAAAAAAASBZBPiAxZgjJlA7uZeW1ka3SmwvebZX1H5yUUUnJXak2++mJOy8/OmLvL+mhOhHRuSOyc6h4mGMAAAAAAAAAAJJCkA9IytQOaz48kZOy/p1+eejiedeceuflp2d2SNc7W+VPhwnAVc3MO+TRp/tk4MU+eW552qwEAAAAAAAAAKD+EeRDw7Pnx8vPjfdv7X0y2Nomc8zvvXQ2nnrO/LvN75vkO63q+QVz6xVvq7a7aba19NrIDvnpx9ZisY/Pm4VKmeN0HZf7Z3CGGTOypCZVNj0y6Jk7sFTZlKbLyfobQdtf22YNZeopy/k9ZeYpdI7RtY01t+F5+c0n5ikldHTPlwVmbrzp990jK2bay+NnTH6XVBUDAAAAAAAAAFACQT40MDsQZs+PZ1ZZUtKc6paB9j75flCA6eq0fPXaNnl+/irZmFLPN6s1PbfeQC4IaFx7syw2WXyvXLTW1DZzbgMts6XZM3dgiLLxMWdGn1VOkt0jvcPHXBmMNv37f7ul2xrK1FOWV8+WjbcEBSXt4U/tYzSrFGduw7+6xqyoRdOmyAyzCAAAAAAAAADAeCDIh4Y1Z8ZSM3ymPT+ePTee+nlnj/zkU70+Jd+7pUe+oxeL6OBTt9x1dVZ+4tq2d+Sk/eur22XNVHvRck3aDl5lT8hPrRXjLT//nvun94Os+X0pbfK8dW5q8dOTnvNzzx345ZBBNB3AG7gppf7WkG+AT6b22L/X9fDBHtc8hXZ5jqrfNN+0tCio+J3WVb7116vq77VPU57AX5ADe47I4XP28tmXXpHtp+1lAAAAAAAAAADqHUE+NKZr75ZnTGDpJ2Z+vJyPj8mPjmw1gb7Z8ldBQ1t+elLWD/XLj1zbnri4Q9abONrMq/Pbzbm6fuZ7mzNjkdylF3RQ7sgOz/m55w58KERGoifAd+QXxQE+nY2XG8ZU1cMZbxBQl2eXFThNyeKUqx5U/f2Vrj6f+juh6u+hXP2VcfpNefbxful9oF8e2TlmVo6XtDQvv1e6b1WL5y7LGXslAAAAAAAAAADjgiAfGlMus+51+ZHv/Hjn5Ucf2Fl5zembfeaQy8pPTu7wzcr79SdhsuVqVZP8RdoEP0/6BeWMEHMH5gN8J2W9b4BPcYYx/XRINgcFDS+ekNfUf556KFt/NWTmHfLci6osXuyRZ+6bJdPPnZLBLW9aGYoAAAAAAAAAAIwXgnxoSE5m3egnJdLRPhmzAzF6/j1rRXwnPjVZYtdM9QkY1pKp8mVrmMsx+U0FwbM5uSE4tTH5tVkq4gTrrm6Xgfa/kX/z/em2MwtdQtVfjTqrfn5nLwIAAAAAAAAAMG4I8gFJSDBgWPPSS2WgZbaVnbdezwGoA3itbeaXk9DpN+WRB/SQoDuk/6XLMn3aLOlbfYcd3AQAAAAAAAAAYJwQ5ENDa75mqlny4WSZfVoiEy2sj9+TfeXm+KspafnKtWYxouar83Pw/fRMvz1HYapbnvcraif4md0jfzr0t6V/fIb8LFl/NWdMDuzcLv1H1eK0KTLDXgkAAAAAAAAAwLggyIeGdCI7bAeXUovk+77BrCb5/k2zraXRsfeC56YL7bz885g9V1/zTUsD9qlc2ybfnxoiCDhuGYHH5BXrMFPyvdl3Bw8tem1T8O9MgM8ps58O77Hm1Lurpa/4vJ3gZ2A9+MvX3xz5jrWmwLXOsKNlzLxDHn1az5fXJ88tt4cABQAAAAAAAACgERDkQ2P6+Bfy904w65Y+ed4dWNOBtvmr5HtWkOik/P2Z89bqSp04s1t+YmXzmX3OaHMFypqseewGb+mW77WUCALKRXk/lxHo2l4d83ciBMlK+ekHQ2Zo0XYZmN9TEHR0jnNV4BCcxUHRY/LQyEn1v1/g8Lz86APzO6dMPOfRJN+ZofbX3uMN5rkyIzeqY3Sfu1OOhfP4+enoni8LptnL0++7R1bMtJcBAAAAAAAAAKh3BPnQsH46vDUXdLurZZX8W/vf2D860GYF+LLyk3d2yE/1YiLOy4+OuPZ5U7cMOPtsX2XNY9es9vnaSL/86GNrAx/ujEDX9uqYN96U0Lx3H/9Cut5xAn2z5XvusnEd508+OGY9PZSLO6Q3aH4+53dOmdzi7Mve38ab1P5UmXmHD1VleTJ/jBtd21jH9+lJec0uphqTli/pmOm5y3LGXgEAAAAAAAAAwLggyIcGpoNufyu9I0PymhV4c2RlNLtHeodKBdvicu/THYXS+xyS9e/0y0MXzaoAJ870S+8HJ+0Al+PTk/KTbJkNo9CBvqGtsl7vJ6GyyWUyWvPzeYck1ef0p+/sUeeg/r5ZZ1Fl9NoHan9HdhTvzwpG2tvk5Z+/+ZPyUb4De47I4XP28tmXXpHtp+1lAAAAAAAAAADq3RWddy/53CwHupQdM0t5M2Y0y5kznu76hsL5AYguLSue7pEuOSKPPf6mN6AJAAAAAAAAAECCyOQDgKRNmy/L29PmAQAAAAAAAAAAySPIBwCJGZM3jly2lhas6pGBF/vMz73SYa0FAAAAAAAAACAZBPkAIEGjO7fLYy+dkrNmLkAAAAAAAAAAAMYDc/IF4PwAAAAAAAAAAABQq8jkAwAAAAAAAAAAAOoMQT4AAAAAAAAAAACgzhDkQ0PSw5ECAAAAAAAAAAA0KoJ8AAAAAAAAAAAAQJ0hyAcAAAAAAAAAAADUGYJ8AAAAAAAAAAAAQJ0hyAcAAAAAAAAAAADUGYJ8AAAAAAAAAAAAQJ0hyAcAAAAAAAAAAADUmSs6717yuVkOdCk7ZpbyZsxoljNnRs2jxsP51bdGP7/w5smy9UulJXtQtm1+VS6YteXF3S6cuT1r5f6WtGRHdssLO941ayejJulcs1ruTA3L3o0DctysbVQNV+9tvbKuq9U8yBsZ3CC7jpkHiarn9uIc+5gqn12qfM6b9Rg3cdtnQu260e/zNXt+E1B/mcVrZWV7ehzvfQ0iM0867+qQ2apcU2ZVduSg7NmR/PusesH7QQAAAACoHJl8QAPLLO6QFhmTQ7ujdSCV3k4HADfIujI/Dy5uMs8vkFki7S1pazGVukEy1lLj0J2d69b3ylzzuLQbJK17+rJjctFe0bgasN4zaft8vIZleNw6ueu4vbR1yp1Wr3ZaWubcYK2qJdGu2/oQt30m0q4b/D4f9/yq0c4mov6mTtXPHZOxD+3H8KHK9MFVS+VOVa5OgE9LtSyUlWvq+94Tu103+n0CAAAAAKqEIB/QqDJLpLs9LTJyQPZHivCV2S5zg6eDKkh2LCBT58JxOZnVC2MyMny8wb693iRzWlXZhQ3COGWZ/bDxv8XfgPV+Yd8meWrjBvOzRQ7p8xvPAFw9t5cPx8Sqfv3lgddqLVsj4nVbJ+K2z0TadUPf55VY51eddlb9+muyv3ygnjvWcBWdlCbpXLrQun/rjLVtufrZINsGh1UZ76/jTP4K2nWj3ycAAAAAoEoYrjMA51ffGK5TD4G0Qe5viT6sX7nt9De29bBc2aEt8sI+htzzMsOcjuyWp0IMO+WUJUOcNYJodR8H7WW8jH/dTby45zgZyqZaJqIsq7BPK0NtoaRoI8Eauoy4RwAAAADARCOTD2hEbb1yf4tIdijit8NDbGcPy6W/tE2Ar0jbzaKKT0ZOhOvoYoizBhKx7uOgvYyTKtTdhIt7jpOhbKplIsqyGvu8wR5+MnuRG1OQzM2tVhk15HXEPQIAAAAAJhyZfAE4v/o2uTP5mqRzzWq5Uw7Kts1R5uILs515TipChmBbr6zrajUPXLLhjs/OXhI5tHWTPXxoZp4sW9ohLSk72ChZdSy71bH4/KGM2nf3wlZJWUOJaWMyMnRAXt/3bkLDQqljWeM6lpIKy6ywLJtk7uJOaW+3OwM1PazXnh3Bxzr+55eXaVsii9S+8uc6po5vWIZee9W37Cutd10+c3uWWfP15MvjoL2/G/TfTufbhMWUZ9bJJohanlH351XUThPnbS8XrfpYqOrD/m1WXQdDRddByOs14SwTOxvYPCgQmAFc9hhKn0u09lnJdVu5jLqHzbmrQ2YXtLU9O0pdFxPTPkNvF/t6n9jrNrRY5zex7Uwb//pz9hGUYexct+pPBVz71Xwdq1p7CV33BfUe+z5Y6XWkdh36vlRBu670fUFGnddd3vrT7wEPHdwv+4/5ffGs8nIBAAAAgHpAJh/QaNo6rQ61kYMhOkzcQm13gz33ToS5VzJp/46gbMj5V3LZS+rJujNx3aql3s4lfTxFf0h3Qm2QlV3ujkMtLS3tS2XlmiWSMWsqoudIC9XRpRSVmassdcfe+tVyv6vjSUu1LJXuxU3mkVuVzs/R1qv2pQNK7nNNq+NbKPevWivL2oqPsaJ6d8rD3ZGn2PvrlWVzdCdhwfxPmbkyWz3ZyiaJWp4l96fOz29/BdztdHyY9jIyJmmr7vMBPi2VarWOtdNT8eflxLD+kk5a0oENosnMFTUse307laNy5ufyF5gBXDYbqMS9J2r7rOi6rYQOMKyVleoedqdPW1u5vrD+jAlsn2G3i329j9t1G3CfiCnW+U1YO8sb9/pTcvsounT165Qd4BsZ9AvwVfl1LIHrKLQode8W9z5YyXUU9b5UQbuupJ3pYPCDq4rrT9Rr351dq+VB33tEJeUCAAAAAPWDTL4AnF99m7yZfPPsuVFCZ0s5Qm6nO0kqzfgx3+QON6+Y+Ra2zi48mLY6A61vXb/2rlywDrJJ5raJHPd8g9uci5hsgPec5yqZedK5dKnpdEx6XrOIZW/KUneCSSotKU9Gou50051ZarGorKt9fk7mgNrf4C71N52ybpJMW6d06w5adSxhM0XKH5dzfqponAwL83etjA9rf0phOZu/n/WU5361rT7eMOWpqL+5d3fI/XmYv1HJdVGOc+1ZD+y6eF3VhXU8Vnar2r/+ZeExOOUSlEFX7vcJsbP7gttJ6WwgJfDeU2n7NHUX9rqNzTlOvVxQf7p9OtklRccxke2zgnZt2lXZ691pfxVct5HuE0kJe3451WpnblWov1y7LsjYyt2vCq9Lh1N/6vdVeR3Lt5f411Fc4es+9n0w9nUU977kqLBdh21n5nmaN/NO3efVMa5Ux6iPv+g+H7tcAAAAAKC+kMkHNJDM4g6r0+zQ7midLWG3c+aVkZalsm79huKfEN+8t7/J7fetfz/mW+vSKt1duuNri7ygO3dyB3m+IMCngwm6I29Y9m7dJLv0cF/uE7rwruzffVCyajGVTvib2/rb7fr/7Iehyt4pS+sb8UNb5KnNToBPU+f1mn2chSbs/LLDVudf3nm5cGxAXti4xTqWcsObha13+/zsjrwXduQ7YjVrf4PD1nLhN/+dDAFveTrHW648Fd3Jtzl4fyXr1dR9cPZF5XLXnu5M3ajqPtcRq6h632XqXVI3eK/BY+/JiPovNfUG+7HHPFmmO07V39wzjgE+3ZlqX8fBWTLB2UBGuQyXuO0z4nUbV2bxMrsj3a/+dPvcp451624r+OA+jgltnxW067DXe6XXbdT7RFKivY4pVWpnHlWoPydTSkbe8w3w6aBLcYCv+q9jiVxHcUWo+7j3wbjXUdz7Uk6F7TpcOzOvU4oOBlrvAa1HmjpedYzbhsbUclpm3+xtL3HLBQAAAADqDUE+oFFklkh3e1pk5EDZgItHhO3sDqgSynb0NMmcVvU3ssNyIswxOh1IqbRkB/07C73mSavVk6eHLvQJQuqfXDZUwkzn28iJcN8Gd8rS6rQqEWDxduZNxPmdlzGrt3WhdPfMk0xRFPe8p8PUX8h6V22x3eq51/MAlS7HwmEf8+VZOiPNU56u/W0rs7+S9ep0vAYNRZkAp/M3MBB/4cOAzsoPTf0VBP8UO7ivzi3q0L6RlRhq02KCgCXax1xrKD2/Mq6wfUa8buOZJ4v0PVYHNUplu1x413usE90+Y7fr8Pf5Sq/bqPeJZER8HdOq0s4KVKH+cvsw9aOz4uzXIJ+sqpwqv44ldR3FVVBGweLfB2NdR3HvS24Vtetw7cx5ndLZ5kHZfhfeG7aDwgVfZolXLgAAAABQfwjyAQ1i7l26U2w48rxa4bfLZ+Mc2rpBntro81P2bzid/SG/9e10jpXo3PFou9n+tv4EsDvfwmZ2OGU5LMMB5+Vkbnk68ybo/I7v2CJ7R8asuWtWWp2ya2XZ4nkR5ksKV++5cy6RfeP/zX93efp35PmVZ/z9edl1H1yXlctfe9Hni3KCYK0yx11hGSe4vzvctVUJJ6MoqJydbKDA9uE6f596qKR9RrtuY3K+rODOdgphottn/HYd9j4/sddtfBFfx5SqtLMC419/Tjnb9WMNNWkyrlTlBAduqvw6NtHtxan7k+/5t/Gc2PfBeNdR3PuSW2XtOlw7c77gUrb8isQsFwAAAACoQwT5gEbQ1mvNK5Id2h+tsybSdk6HTITshUKmcy/st75Dd44ZToejzo7zDUK6fkp9qzs6V+dbqLJxyjIosynfseXuPJu48zsvx3dskqe2bpG9Q/ob82lpaV8qK61gSojh1ELWe/nOPPPN/6Jyjlee8ffnZuq+xL4rZ86vVGdsiWHTjp/QQ9GlJZ1LcmiSzqXxvhQQR9mO1LKZLuXuPXHbZ9TrNqbQmTxeE9s+K2jXoe/zE3ndViDi61jV2plHNeovXxephRusueT08Kl79dCJqYWyqM1+TqFqv45NbHuJUPex74PxrqO496W8Ctt1qHYWch++5xKzXAAAAACgDhHkA+pek3QubBVr6LJIHWIRtysRRAgr2rfl43cgJT4fXVmmMynsN+LLlmXpc6/++RkXzttz9OgO2K27ZSSrgynLpLNMylRiWRK5TIeCTjvTWRi3PIOV7yTMPyf+dVGWaS+lOmPtjNyADtMPx+yhzJx209ZpzcMU+UsBMZXrSHU6/YOCgJmy9WtEbp8Rr9uaM57tM367Dn29j9d1G3SfSEj0+9lEtLMq1F9u2M20pNS+dMa9ni/t+L4D1jygLQtLz9E7Ya9jRcJcR3GF/9ux74Pj9vpXTmXtOvp1FMS8l1U8ZTdh5QIAAAAA1UeQD6hzmcXLrA77qPNqRd0ul40T+1vfrs7+UAcavePtwtiY9X+qdW5g52KmrSnCMJMhOUG7kJyyDP4Gu/+5V//85skyPc+ZeeRx4V3ZdbAwQ8xftHpPy+ybfTp/M/NM9plS0GnndI5GLU9b0PE3ydyepeWDS6YjsZLrohynvQTR82DpjNzAofkuHJeTWafdxP1SQFzlO1JLBQHdQwAWl3GF7TPidRubE2Rt75S59ppiqn37X7cT1D4raNdhr/dKr9uo94mkRLufKdVqZ25VqL/8edlDeOez7t6V10tk803M63SF11FcThmF+Ntx74Oxr6OK7ktKhe06XDszw01Lq7QGZYaa97L6Ne111+tfZfcXAAAAAKgvBPmAujZPFsWaVyv6dnaHjO4PiRsYcDr7W6XdNYRepm2ezPXrRYrQOZZz7D0rg0B3Lq5cs8TzdzO687dHd5StDhxGrGItHdLZ5jo3a5/qOMxjR6nOPIvTQVs4h1CVzy+zuENa9Dxna9bKssJOV7W/Zebb86WFr3d7WEnd6bhaHlysf6/2ac7rwVVL7Y48pbDTLm55Xrxodza3dPV6y7JtiSxbs9oEztR2ITrKdYd17m+o457rageVcq49p1zyh6o7qPOdvyODAwEZFc68fGmZE/NLAbGFzqpKy513uc5Nt6819hCAIyN2PRXee5Jpn0rI6zY2E2TV18D9a3Rbc7UN3VZUHa5T7bu7YGjRWmif0bcLf73HvW7j3ieSEfF1zG2825mP8ay/3BCJQ7tkf8HN5EKpbL4qv44leR1FVf4LPYWi3wdjv5+IeV8qEqtdR39f0NJl3+dznLai38uq8z+02/uaFrtcAAAAAKAOXdF595LPzXKgS1n7g6XbjBnNcubMqHnUeDi/+tbo5+ewvt3dLnJo66aiTrZSom/XJJ1rVsudqWHZuzEokFCevV87YOGm5+YpCja29cq6rlZ7CLAoGUdmuyB6zqA9O95NuFPHKR/zsID3/MqXpVNOpcolSNLnF1RnOWp/28rsL0q9z+3ZkOt0dcuOHJShi61yf1G7raQ858my9SaLo1BW/b3htM/+CgX8jexB2bY5iUCaOT8ZlhFplRbfNjamzm2XOrfg68RTB6rOnqrCXHyWMNdxYJvWGUKb5MTN+tj966Gy9hnluq1QZok8uMpkmPnQ7XvPjsL2MpHtM367Dne9V3YfjH6fSE6483OrYjvLGe/6K10/mvN732u/qq9jSVxH8djt1L6Plf3bse6DlV1H8e5LjsradZTrKOh6t/mVb4XlAgAAAAB1hkw+oF5llki37iAZORCtYyrWdskMa3Rh3y7Za76NbhuTkaHdniGWHM5QS5EzB48NmPm4vF9O0J1Ve/WQYgkGwPLOy/7NW+SQ59zUPnUHotqntwOpfFmW/AZ6lc/vwr5N1v70uVlf+jeyav8jg1vKBvi0KPV+fMcG2TZ40MpasPZhnZee6+m4pFtNuXh2WEl5viu7zLnlOOe1ecD8vcL9FdJ/Qx2vq3B0vR86mFR2gH1+2eH9sku1MV2O+V2pZat8Nqk2Vvo6ufDesNlOtUlVZ9US6jpWbdqvfWzbaHfc5urPp0Ara59RrtsKXXhVXthYWH+KbivqOF/w7UifyPYZv12Hu94ruw9Gv08kJ8r9zFbFdpYz3vVXPlPKyebzHQ6yqq9jSVxHcTjZaiH/dqz7YIXvJ2LdlxyVtevo7wvUa5j7IHUdusrHq8JyAQAAAIA6QyZfAM6vvk2GTD77m83Dgd9SDhJ3O2BimWyMxDLkJhmTsSFRM2Mr4mRThMxkASrGfQIAAAAAAEwuZPIB9ait1xq6KDu0P1qgLu52wASz5l9T/zN/Tgx6Xic9JFv2oOypWoBPyc3HNywnqDRUAfcJAAAAAAAw2RDkA+pOk3QubBU9t060Dvu42wFVoDPN1q+VZYvnScassmTmSWePM3fPsAzRdsvLNJkFtdimM/j0fFRjcmj3eGU2qXtLT6/MdVWcvV97ricCLkgM9wkAAAAAAAAPhusMwPnVt0Y+v8xiuyNzZDDaXD5xtwOqwgwnaU1h5IshH8Nxhsg0D41xve7bemVdV6t5UIBhE5Ek7hMAAAAAAAAeBPkCcH71rdHPD2hMTTK3Z5m0t6Tznfjq9Wdk+IC8vu9dAkWheIN82eywDO0ekOPjXHg6c2/RwoXS4lQc9YZxw30CAAAAAADAQZAvAOdX3wjyAQAAAAAAAACARsacfAAAAAAAAAAAAECdIcgHAAAAAAAAAAAA1BmCfAAAAAAAAAAAAECdIcgHAAAAAAAAAAAA1BmCfAAAAAAAAAAAAECdIcgHAAAAAAAAAAAA1BmCfAAAAAAAAAAAAECdIcgHAJgUMm1L5ME1vTLXPAYAQOP1AQAAAABQr77QPOvLG8xyoE8//cQs5f3Jn1wn//EfH5lHjYfzq2+Nfn7hzZNl69dI93+6UkZ++b58bNaWF3c7BMksXisP/9dvSebyfnnvQ7MSVaPLf+U9rXLNp8Ny8oP35cOiRm3afEen3PyFYTk8+j+ttU69LepokssHjksyVdcknWv+v/KX/znJv1lb6rG9z+1ZK3/1v39Lbm66JIf//YJZWwtitpe2Xln318tU2+30/DT0PSgzTzrvWy5/oerxL8z53tx0pfz233kdQ7Dyrw9N6v7wgPzvN5zJvTaEE/d1Je7+xgPvIxtT478PiacGyoXXsXFVj+9P613tvr8GAKCxkMkHNLDM4g5pkTE5tPtVifKWOu52tUh/mFu3Puy383Wn1Ab1/DI/PfPM88NqkjmtafX/mIzxgTKSaPXnb27PBlnZnpbsyG7ZtvlVOe7XqDM3SMosZsfOmyWRqVN1vSnZMbloL1ns4/JpG0E/a5ZIxmwrcoOk9c4K/mYjscutjtp7Zom0t9h1nUrd4KqrWhCvvWTSpu16DMvwMbPYaFQdPrhqqdyp6tG5lrVUy0JZSYZWQ6ra64Po1wTVrtpXy7I2e00oEV9X8mLubxzwPrJ+RLseGv99SDwTXC68jo0zPo/FFfv1tqbfXwMA0FgI8gGNSr2p7m5Xb6pHDsj+SD0zMberSebDXNgP6203S4tZLCV7MeonQ6fTYFhO0NsVQcT686E7cO9XlZod2iIv7Hg3uLPxBqdDxR0EabLrTckOH6+sozL7YX57p+PXva6hOOU2JmP1coIXjsvJrF4Yk5FK6zppMdvLhX2b5KmNG8zPFjmkz69hO3SbpHPpQqucrGBN7rw3yLbBYVWn++W4/UQ0jCq+PijHd9jXUEtXhE7OCl5XYu0vabyPrCMRr4eGfx8S04SWC69j44/PY/FU8Hpby++vAQBoMAT5gAY19y79QXFY9u5416wJJ+52tcn5MBfyw/qxgdwHautD9dCYtXpkML9O/7ywL/+N/FDoTIkpYv0V0N86zXXglqmzXNaT5wOs2b/izsLQvAEU+yeovVg/ruspc3Or1R5GTjTCNeYjM1dmWyf4Xh11SJ2X/Zt1XW2SXVGv73GWTHup7Fqqebk2t7soWHNB3ddrrU6RhOq9PtjUPeLgsPq/VdoXN9mryoj6uuIVfX9J431kPYl2PTT8+5CYJrRceB0bf3wei6mS19vafX8NAECjIcgHNKK2XtN5FfFbn3G3q1UmMy/uh/XEhhw03+aPngE4yVVSf04mQfag7InwodI/syLcEIdh20vdDWUZFe09UYm0lwrvhbWODutJaAJeH+TYfiu7LtU6N9KQY7FfV2LuT5/fg9ZQ0WulM+7YaLyPrC8Rr4eGfx8S00SWC69jVcD703ga/D0kAACN4orOu5d8bpYDXcra2QluM2Y0y5kzo+ZR4+H86lujn19petL41XKnHLTmlwn/jbtw2+lvv69sFzm0dZM9DFNmnixb2iEtKf3BWMkOy97dA77z2mTaeqV7ofoQqz9hWcZkZOiAvL6v9DBZGbWPOXd1yGzXHBXZkYOyZ0fhcapjWeM6lpLUcW5Ux2keFdPz8y1VH2rKPc/RJHN7llnzDriPcei1V+XizbrM0laG167E5sMK3t/xG3plXVc6X0cuE1J/obdLrv7sYdjGfMvAj+/zdUfpqoWSGtntycTzF7a9mOss5TxP1ePiTmlvtzt3ND1M056Cb3G7xa2HODJtS2SR2le+TsbU8Q3b7SxgZ3YbC2rvzvmr88xl0BSWSYBI9VGGKsN1Xa3mgUs23H0zTrnE4y2bi9Z+F6r92r/Nqut1KOB6dSu67oOULePydVWd9hn2XuF/nLHvgxl1vd7lve/q5x46uF/2HysMFpmyyqqyfE2kU72G6XmWrOerv71fnUPRusQKiNeHUveSqK8PbqGvJaXy15Vo+7M5r0W28JmKbqbtjtP7yPjiteto161XnHZdndeHSq6Hwvt4tPchse8TUeuh4tejqO2lsnKJLmwdBpxfzHYdvv6Cylftt+0G9f+HctyzH3PvKaqvqPVgi/96FLw/Po9V4fVW7SPe+2vT3vR7Jqv9qHKNdP3FqwcAABoJmXxAo2nrVB/IREYORuxgCbld7luu6kn6A8q6VeoDnftDgH5nXfQH9IeFDbJSvenPf7DQ0tLSvlRWrlkS8C11/YZdfQgKmoS+8FvqehiWUB9IlHLzCjhDuoQZclB3RKxfLff7HOP9q3plkZ7HQH0ICpMNFkqZ/S2boz9c2XVUqLr1F3G7pOpPlU+79ZXTiPMBqQ/UfnN0hPrmauj24gx5o47fqUfXB1gt1bJUun2HZ4tbDzGpD+oru3RAyV0nqs1Z7WytLGvzH0Iu+Jvw+vh1h5EqpkF3x/N5OTGsv0yUlnTgCagP/9ZcNcOJDAGXG0avQKi5F2OWSzymvYyMSdqq+3yAT0ulWq19lsvWcV/3JZX9lrur/dorXKrYPqPcK3zEuQ/qzrEHVxXfd0XVwZ1dq+XBomvWlJXcLMvMa5hFPX/2Xfpvedfdedc8e7lSvD4EtE8j7uuDcWHM3Kt0H3cYlbyuKJH357wWVWKc30fGErNdR79uHTHbdbVeHyq6Hip5H1Kt+6dSyetRrPZSWblEVsHrWPx2Hfc+76Ku8/u7lsr9C70ZxpnFHcXZXiXrQV0PSb8elal3Po+N/+tt7PfXZrha63qPev1VUA8AADQSMvkCcH71bfJm8qk38fpblCGzUfLCbme+Zae/pX0wbX1YsL5V99q7csHaqEnmton/NzvVm2vr24LvOc9VMvOkc+lS0+lf+K1K5xukelltO7hLXld/197U9e2+wGOOWxaG+gCtv4lY/lvwzvkpal97d+e/qW19Y1J/oNIP4h5Hkfz+ct9QDL2/atZf3O0c8etPf1iOlvlgl8vs4YK6ttqABHxDvEDY9qI/iK5aqOpHva6qD9Apzzd1dVBbf0hVi0XfhK60PKNyrj/72tuVaxNNqp11mnbmlwnjbFfwzV5z3nob798zypVf2PKNy/z98uUXt1xiypWbZu8zdx+0vvWt2oT+ZVF7cTNtp+RzbPa1U+Jb7s7xTHj7dIt6r4hxHzTtQ/N+k1zVu3otWqlei3T9eOrdXXdqm216G9ffKVpXVKZxOPXA60OQ6K8PBZx7eNl7kV2eFb2uaKH3l6e/HKU7O71tNay4ZRu/Tspz2kvEdu263kJft5a47bPKrw85EcveaVOR34doVbp/KpW/HkVsLxWVS6Ui1GHsdq1FqT+nPbvfzznr1KLnWF1/N7cuXw/6udE+H8VoZxXtL46Y7cxSyfnVz+utxbTX4L9vmOdlPdffflWmdlss//koTj0AANBYyOQDGoj9LUr1wU59sInyJjb8dk5mQqt606w/eG+xJ4fPbXS+4AOJ7mzSb7zVG3X1YXOXHg7EvYML78r+3QclqxZTae838zKLl+U/ROrJutXfzW+q9rNvQF7Yutv6EOd7zM632WNOru58EzE75j2fQvb5KfpDh/rw4Hyw0PRE+S8MDlvnl9Qk787+9IfBF3b470/z/8Zk9eov7nY5seuvSebob+oGZE/4syeFL+pAVeX5VMiO2LDtxZlzxfqG7NAW1WacDiRNlf9rdrkUqrg841LlqINKeeo61O1s4xbrWIo6kMw3cT0ZjU5HnOl0KgrwacfekxH1X2qqX7qK+gCvPqTre0Gk+bMisOtvLPw8PFHLJSanvfjeB1W97zL1LqkbAr69rZhrKcwcNLlvlgcmTtjfki78WxPWPrXI94qo90HT/hTdSWU913qkqfpQr0XbhvSX4dIy+2bX+ZmysurO2ebDMbu+3OuMMPVTDq8P5cR5fYir8teVuI7v2KT2UdhWwxn/95HRxWvXMa9bpeL2WaXXh5yI10Pc9yG2Kt0/lcpej6K2l0rLpUKh6zB+edqi3+c9rPd4YzIyYgdipprVuSwsV5k69VDq85HF95zjvh4pJfZn1V/k1w1/cduZbTK83trCvr92Pkd5rz+nDIKvv8rqAQCAxkKQD2gUmSXS3a7eGEcdgirKds4bffUGPDuoPiyU+iBomSet1icuPaTcBlm33ufH6vwvNE8W6WPSH0pKfetOfThxv5n3MB/+400SbjoC1f5LDumiys4a9st02AbRx5FEB657f/qbu6X4BpuqWH/xtnOJXX/mg3NCH+LDKtsZZdjPU+elO2dKBKy87SWB8ozsvIxZn/oXSnfPPMkURZDUB26/Ai7odNPforWPzQ7wBd9jPjT7Kw5W5YaAGo8h4CxROv5jlktMTrsK7Di/8GH5TkenTsoEoHU52NdOcDnMtYY8KvxbE9E+XQI6egNFvA867U9nkQZ9C/3Ce3bnoTtI7XRYedqtc19zrQv7BYGyeH0IYWJeH+pGNd5HRhWzXce9bitrn9V9fciJeD3Eex9iVOn+Gfv1qIL7YEXlUqmQr2Pxy9OIfJ/3mnuXavuqToYLxke11qv3KiffM3/PVQ+lPh9pvu026nGG3F+YMg6lgnZmmRSvt1r499f5629L+Ouv0noAAKDBEOQDGoT9AWs48nxVkbZzPoSW+HDp0Xaz9WE0MufDT5j58ALYH/4jZOZ4OB2BPvN8uDjf+i317cDEOnCV8PsLOO9q1V/c7Vxi159pO+PSCRPI+RCtjrfkh1jTaVUieJyrY3d7SaA84zi+Y4vsHRmz5sBYaXUOrJVli+cFZ4wp7vae0UNtmW+cl/+A73SOtsoc9w7UB3i783h3uDYbS7SO/zjlEo/TXsq1q9LsaynEHDROFmZgObiOx315TVD7dDj3ilznYjkR74NOoDX03zec7dxl5Xdfs59X+RxBvD6EMCGvD/WjKu8jI4rbruNet5W2z+q9PuRFux5ivg9xVOn+Gff1KP59sMJyqVDY17HY5emIep/3sN/r6rL1fjYy74FdQf5qvx6F3596Dp/HIon9emsJ+/7aff3514/f9VdxPQAA0GAI8gGNoK3XGqc+O7Q/WlAs4nZhP4Q6nA9U+luxeuioUj+eb+05H35id8S5PvyX/lThzwkylvlQUv7DdsiMwJDC78//vKtVf7HrPafC+lPGoxMmUOigdPngsVPH7g+jlZdnXOftYd+2bpG9Q/qb4WaCfqvT0n9YH+f4Uws3WHPp6OFz9uqho1ILZVGb/Zwgx0/oIXXSks59+bxJOpeOX+dxjukECf8t5ejlEo9pL6XaVdl7lbmWynxhwVL2vuu0X2/AduLapxb9XhHtPhjy7xeVnV/g3+9vmeeFqZ8yeH0Ir6LXB6euq/UaU639Vel9ZFTx2nXc6zaJ9lmt1wdH1Osh3vsQR3Xun4rfOg//16P498HKyqUyYeuwgvI0otWf+fKVYWcRDsuQavcXxvSQoIbPe6hqvx6F3x+fx4J+xuX1NvT763jXX6X1AABAoyHIB9S9JulcqD4s6KEqfN+gB4m6Xfw3+oHj/I8b82EhbiZg2c6FsMp/aElU7pvPfvurfv3Fr/cK6s/UXVWFbS9hAzIBdVT968i4cN6eA1N3BGzdLSNZ3Wm5TDqLUhOcwIYqD3Ue+hvKeo6R4/sOWPPttSxcUjqbwcxXljvPtk5rXs7x6jx22J0g3o6DUEKXS0whso7sDJpSHSjOPajct6jznUFBwYSM843wgL81Me0z6j22wg4rX+a1VMmVnW/g3+e+VvaekCBeH3L36krYnbPJdBSHUZ39Vet95Dgo2a5L8bluXSq+n43360NOxOuhovchVbp/KpW+HgUKai8Vvj+rTNTXsVJKtetKzsEESzztLC3pTP4e8Hqke1Spcx6Psk6yjEPg9dYS+v112es5ZpnFfn0AAKA+EeQD6lxm8TKrIzzqfFXRt4v+Acn5pmeqdW5g536mran4d05nf3unzLXXFMuUGP7I+bAeU7RvWLozj9ya8pPAl+yEmCfL1tjzIjwY6lveAZPpq/Kws54U3/1Vr/5i17ujkvorDBRVQbnOKIczrEz5gIy3jiouz8hUm9TzCZlHHhfelV0HCzPujFy96fn33N8KfldeD5PNd+G4nFSVZ59n9TqPc98OLnsjjFkuMTntJYie71Bn0JQMAJiOkzBfWPD7lrTDPfRq4d+qfvt0KdsxWyjqfdDJZGiV1oC267yWejo5/QL/fnWR2BdKHLw+lFTx60NymZfhRN2fum/2rLXfT6h7VVjVex8ZV9R2HfO6VeK3z+q+PuREvB7ivg+xVen+qcR9PbJFvw9WVi4VCv06Fr88bRWcg/WlK/Xe7rWC8rnBDqL4D5cY9/NR3OOs9PNYVLzelhP2/bXzOSre9Re3HgAAaDwE+YC6Nk8WxZqvKsZ2kTtTlWPvWRk8unN/5ZolMtf1KSKj33z36A/qq4s7/k1nvzVR+JpetZ3rzbtanqs7sVYtle5yQbGWDulUH14c9j7VcZjH/sJ/W/DiRfvDU0uXPkZr0ZJpWyLL1qw2HfCqyEp04FofPM0nqFIfwjR7OEP1vPbV8uDieVa5OOX4oCoP64O94vshqZr1F3e7QrHqr/pKdUa5lX2eEwQo7CxJqjxDsoZk0vMJrVkrywo//Kv9LTPfEi/iBCyGduXmZXFcCJXNZzqwUmmZU7XOY+d6b5V21/0k06avL/PAiF0uMdntJX+95/dn3wOdTs6RwYGy37DW95bc+eh7qOu68krLnXe59qXPa4099OrIiH2/KwpmV7l9upXvmC0Q4z7o3Hdbuux6z3HOTb+Wquv60O58W/UL/IddFxevD3rbcX59MPfo8b8vGRH3Z3Xwt5j7hi4fV9kGq+L7yBjitus4160lZvus9utDkZDXQ+z3IVqV7p950V+P4raXisqlQlFexyoqzzj3eaNVf/nRZ27ltFqvh1TXQ3i6VfT5KMZxJvF5LIq47cwyaV5vw7+/jnv9VVQPAAA0oCs6717yuVkOdClrv3FymzGjWc6cGTWPGg/nV98a/fwc1rdZ20UObd1U1KleSqzt2nplXVerPQRflMwas10QPWfXnh3v+nwYXaLeoJtv4PnIjhxU2wV1fDVJp/pQ57y5L6TnJsh3SpV+bk72oGzbXLi/ebJsvfl2aCH1YXjvcFruL1nOBftWZfFUmbnH5vZsyH1YddPlMXSxNXh/1a6/uNtZotRfIbOt+NXXeHDagKrvjaWCLc45BT/Pvi7T/udXUXlG5xxLILW/bQX7K3n8ivP7Um3Qs98Q10MSgs7V7zzilEs8TjselhFpzX0RwGtMHeMudYylrueAe5Tf/SywjY1Z95QTN+tzL31/CZJ0+3TY90P7+EK9lpnjjHofDLrv2or373dc9jr39V/+nhAVrw/j+fpgriXf9wLjIfr+vPencNeFvU3E94NK3O3iiNuuo163OTHbZ/VeH9yiXA/l7znOOZR6HzLe909LYB3Yzy/1ehS9vVRYLhWyjzfc9apV2q6j1J97X55zd9ePatfF79Uq+HwUq51VsL+YorczI+Z1FHxN2Grv9Tb4npjkfSl2PQAA0IDI5APqVWaJdOs3ziMHor1xjbld7IyDYwNmPhLvlwX0m++9eki/oA8WF16VFzZukb0j9vBaOerD2qFB9cEoMMCnnZf9m7fIIfNNX0dWf9BT+/R+QDBDgJTj+43Ld2WXOjfPftR5jqjj27Z5wAwpMlYiI1Ad58Fh+/z0sRUOg+Pj+I4Nsm3woPUt5qzel1WOujyOS7rE5OJVr7+421mi1F8hJxusVeYUfFN0XDjfyC07X0X54XlKfpO1ovKM7sK+Tdb+dB24rz+rzen27bO/ct/EdbL5Sg3De+E9cz3ooKnaRzVc2LfLus/kqXMc2u07v0ycconHbi/Z4f2yS10L3vugWrbqfZO6Fspdz/oepe4XroPV19Ghgz7ZCKqN+ZXDto1250iufv1OsMrt0xZ9jpa490H7vqvapqfSveWT53dcZp3aJn/9Rx+yqxxeH8bv9cHK1FL/VyuLL87+8vdPLcR1UeX3kXHFbdfRrluXmO2zeq8PbjHe76rjifM+pDr3T6OC16Po7aXC92cVif46Frddx77PW4KHBffPkor/+SjecVb6eSy6uPelyfN6G/b9dWXXX9x6AACgEZHJF4Dzq2+TIZPP/uaaepMdMQMg7naoddXOMqhhThao77eLUdNM3UnUbzgDKIHXh5w4rw9OJkS1XlMq2p/JigiRrVj/7yNp14iC9oJqoJ3VBuoBADD5kMkH1KO2XmtoiuzQ/mgdLHG3Q81zvvU/HvOF1J0Lr8qQThkLPScRakJGfSDXne/qA/keAnxAYnh9cIn4+pBxAm66o7AKAb6K99fWaQ2tVjYDsAHeR9KuEQXtBdVAO6sN1AMAYDIiyAfUnSbp1BP4R+4Ij7sdaoLOPli/VpYtnieefkln4nQ9dJbP5PeT1fHXDkpW0nLnqt4yE8NjwmTcE/Hr7Jql6gP5mBzazTdugUh4fYgk7OuDNQ+QE3CrQiZAxfvT7cBkAJYeRq1O3kfSrhEF7QXVQDurDdQDAABFGK4zAOdX3xr5/EpNPl1K3O1QI/SHGZ3lZB4WCz9p/6TR1isPLhyTod2vynHKpcaYIeUKGjT3JyAGXh+iK/n6kL8/ZUd2y54d4zGXmlul+2uSuYs7pb3dDvDpOZZKqZv3kbRrREF7QTXQzmoD9QAAQBGCfAE4v/rW6OeHyapJ5vYsk/aWdP5DjZ5kfPiAvL5vvDshgSR5g3x6Ev+h3QMEY4HYeH1IUmZxrywa2y+7jlUnC6CS/c3tWSvtKR2wbMR7KO0aUdBeUA20s9pAPQAA4EaQLwDnV98I8gEAAAAAAAAAgEbGnHwAAAAAAAAAAABAnSGTLwDnV9/I5ANsAy/2maVoeh/oN0sAAAAAAAAAgEpcYf1j/WuWRT7/PL9s/6cWcsv6H/uBvWwt5pbtba8gkw8AAAAAAAAAAACoNwT5AAAAAAAAAAAAgDpDkA8AAAAAAAAAAACoMwT5AAAAAAAAAAAAgDpDkA8AAAAAAAAAAACoMwT5AABA45l5hzz39L3SYR4CAABUTepaea7ni4HvQ5pvv16e++ZV5tH4a16+Qp57uMU8AgAAQCO5ovPuJZ+b5UCXsmNmKW/GjGY5c2bUPGo8nF99a/TzQ+XSy38ovfdNk/e3/qX8fMisTEhz+x2y/NuzZMG0KWaNyNlzp+Ttn70t24eK76fjaeDFPrMUTe8D/WaplqRlxdM90jXtsgw+sV22nzarUQVO2au2/NKr8sjOEbO+RrXfK8+tmiXT1XXXv+VlOTChbeVKWdEzRbqu+6MM/tMl2Z41qxuI7qh85pYvyNl3Lssjb/3BrK0HTt2odv3O79Wxf2bWT6SY7UV3Jn/3GpluHuZ89Ik8tuNjadR3RM1fu1aW33qVLLjuC2aNqsuPPpO3j34i239VT20xWZTLeGn8+3ntqsX7dQlf+6I8t/gqma6uu/7/8Xs54NNWnNdOGf299P7L+J+PDvI9c5/6bHL0Ven9cY2/jytpnixbv1Rasgdl2+ZX5YJZW17c7ZC0zOK1srI9LSODG2TXMbOywNyetXJ/S1qyI7vlhR3vmrWTUFuvrOtqNQ/ySpUdUEvCXO/AuKjh++cV1j/Wv2ZZ5PPP88v2f2oht6z/sR/Yy9Zibtne9goy+QBUlw6urX3xBzLbPC5tkXzrxX9Uzy/z8/Ai8/ywmuVr86ep/8/J5d/aaxLTfq88s2q+J8CnTZ82S7q+fr15BFSbDtL1ycDTd6jWH8PMr8pt+pJRpt/3ldrOjtMZfDrAJ6ek//GgAJ/uLJwqA3+tfnquzZfJ175or1M/j37NrLNcJY+a9WF/vNujJqWuktuusxen33IVWZ/1Rl2vzyy+xhPI0qZfd5V0zfKum1QoF9Qk87rrfs2Nop7u1/pLFzrAJ59J/w7/AJ82+tYleeydP6qPJV+U526/0qwtJ+r7l7zRndvlsZcui9y6RJ5bnjZr609mcYe0yJgc2h0tUBd3OyStSea06vY3JmMf2muKZJZIe4vdRlOpGyRjLTUOHfRYt75X5prHpWTSftfqsAzXcLAkyvmh0YW43oFxMpH3z4m6DxLkA1BFJrh27ncS6svP7bfLl81iKZfPfmCWwrpJplgxvrflV4lm+LTIo6tmWUs62+mxB/qtjDjr54kd0r/nkvU7oO6c/rW8fc5ePPvSb+SAvViD0rJi9XyZLjrb8+Vwx/nRH3yynP4ov+VybXzZz+Ttj+zFs+98VsPtOoTsx/LI312U3tzP7+Ww+VVjukoeXWwPc6ezeh5zn/s/XZb+w3+0fjf5UC5oUHVzv75SVvy5zqrW2Z6/L3ucOtDXr96ETL/li7IiZVaGFeP9iw709R9V+7vvHlkx06ysJ5kl0t2eFhk5IPsjRfhibodxcIOkdVvPDsuJoLq4cFxOWp0FYzIyfLzBgrIm6JEdk4tmTSkX9m2SpzZuMD9b5JAul5DbToxo54dGF+J6B8bJxN0/J+4+SJAPQBWZ4Nr536m37CEM/VA2PfCXuZ+Bl+wogx5i073+H3ZGHIhs5pfEyrMLexxhzbxerGSnc0fk+Z0j3g/ep8fkgPoB6tOYbH/cDljX8lCdzcvvMUOKvpLwcK6fybPuznLr57IMWh2OuiOv8HcX5dlfWRuipv1Btu+w66vmh36DV+pK+/X2o0/keVV3ntfb7B/kgPqZlCgXNKz6uF833/7F3JCiYYdzPfAv+ksZX5CuP4+Z5RjRgR+/qvY3RbpWxxzdYQLNvWuhpGRY9kYcvjHudhgHmRtUXSjZD0sE787L/s26U3aT7Np33qxrFE7Qo9T5B6lk22qph2NE1YS63oFqqOa9aeLugwT5AFSPycx7/5ev248jSk3XXVcJDLF5ox3ki54BCNSr6+VGq+e3kbXIcj3XjBVkLxdQ/4P8zmQEeFz6o5w1iwAAIClfkBvNcJuN6ypZrufYs4LsUQLqn8lOPWznddfI8rJDfSfx/mVEduphO6fNl+XtZlUYM++QR/XQ7y/2Tcxwn229cn+LSHZovxw3q0KJux3Gxw1pq9M/e3GSjt3XdrP6xKKuwhMxAs6VbFst9XCMqJ7Jfr2jdlTz3jSB98ErOu9e8rlZDnQpW9xZNmNGs5w5EzF7po5wfvWt0c/PTc9x13ufyOEnfiBv6MyVmYvkW6u75cvTTI/+ucPyypYfykmfrJZ0+w/kL769wM6us5yT91/aI2/tfL1khlta7eNr3Woft06zM+KUy0f3yj//eKBgO3UsT7uOpSR1nA+o4zSPiun5+dbIl8s+z9Essx/+b/L1gmP85Z4Byd6uy2yalRH48yHzy5ial98rD92n5/8qI2CS++b2O2T5t/UcfmaFXJazRw/L8+q5QS3YnjhfZPCJ7Xa20swWWdG9QG67dUruOM6q/em/oT+8P6vOsePhPum71fxSO6f2o/6bXjB34OGt/er5aVkxc8ybCeW3j3On5O2fvS3bh/xbS5Tj9J5rWpXLbfLQt1W5mnI5e/SI7Nnzpki3Pg89FKP5mwlpblf16Nqfn7Mv7ZBHXMGj+OenBJTnni1Bc8gZUbZT5/RcmXPK8bRPPX9fj5UR56ewHPLMdnJEHnv8TXXOadXu7pFuT3kcUeWhf+cvTj3kqG0HVs0qcXxeHd+cKn3N6u+9c1kecTrj9Dw639XDbH0m/X9XbpgtPS/OFOm6TmfyXSrxjf3C512p9v1F6W7+Qr5cRj+R5//l48By0XMRrVhwrdzm3uajz2TP/wie6yc+dXy3X6OO7yqZnuuQ/aM6xo/l+cOfyajP/ppvv16eueUL3rJ06fjm9aqsvyAy+nt57F/s7CKn/A/vK5X16JRdmPoox/lb5mGBoGPPi14u8Xjbyxu60/jPr83Pr/bRH+Xw0d+rMivXgaznkfyiLPjoE3lsR6m2Zdp84PNCtPMqtU+dIfPQLXqeqzJUO+tV7czNbqPqfu2cg98xq+2eN+3Trflr18ryW/Ucd2aFU+8+z7XbtW6vn8iX1HXepdu9ev7hfZdUnamyLFpnbVaRSspFi3J+jijlOSPoWk9daWURjRZkF9pl6NPeAtrZ20c/ke0B10P8elfH9rVr5KFb89e7vk/vOfyxyIKA46tQ89dUPbr256fwPlVJuw4qz7LXbZTt1Dk9V+accjztM+792mwnzv0s+uttnHrI0fPiLb4qxOuJD+deHHCdulX+/kXR8xc/OV+mB3w+8eP9LJH8e/HSmqRzzWq5Uw7Kts1R5tSLu11YTTK3Z5k1f5yVraJkRw7K0GuvyvEbemVdV1oObd1UPERoRm13l3c7PZzdoYP7Zf+x0plrmbZe6V7YKqnchmMyMnRAXt/3buD5ZdqWyCK1TUvKCc6OqeMcto9zXNIMgsvl4s1rZWV7WkYGN8guZ14kdU7rulrNA5dsuHrTcx+tVJ95c2WdmSfLlnbkz1eV7d7dA77nGqc8tYzax5y7OmR2wTnu2VF4vOpY1riOpSR1nBvVcZpHhYrO05dp86nSf0sPYfvgqoWSGtktT1WU4ZrA+VVwPcRR7fYS/fozdZi168befqHa3v5tVh3fUMDxWSKXp3d/1vW7uFPa29V52k9Qx7tbte2gc4x4vceSQLuOWi5lr5HSx1RJOwsnaP/qPNtuUP9/KMc956X2v36ptBSdT3D9Fb+OJVAPMVX6Ohbu/ukSqb1Evw/+u1684gprjfWv+ufzz/PL9n9qIbes/7Ef2MvWYm7Z3vYKMvmAemdnt52VS+pDlg74rX1yjTeopheLPoDp4Ns/Su8qd4BPmyZfvm+N9D7dK/63Jx04+6H0qn0scAXPtCm33i+9L/5QvuGe30EPixkqwKeUm6fPGWLz6FvlA3wze+W/vPiU3ONzjPc8+QO5Xc8LKIflNxUG+GzX5ToOotEBkT55ZpU7wKdNkem3LpFnXlwRaq4MHWgaeHKJdLkCKZpe1h0Y075k1+SZc5et/22XZe+W7fLI49vlsZ971/9OZ0nO/KodMLao43w4YB/TZknXqh55VL1YllPuOPPsQNEzq7yBnum3zpe+J1dId5NZkaAOdX6F+4sq/PmVeK4qz74ng78dHWe7Ss4ptmlTZMbMFnlU1WNf4bGqenzmaf/hoSqth46v6/kwL8vbb5UP8GlnPrLnpjp32dURl/2DWIMCq9+dsVYk7Pqr5NGeKaIDXp5yab5GnunxH6ZLd+IOfNcODHi2ue4q6fvuVHnu9ivNmiSY49MBA08Hp9p38xflme9eL49G3J8+/sIAn3bg8CfWFw0W3FpieLLUVXKbPo7RiZ5/KflyCePGBderv/3FfIBPU8sLFk+RgW/a865NtOq2zys9+4gr8JjVj/d+rQMGU+WZxe4AmGbq/a+vD5hD60rp1oEG3e4tqs5UO1/xzYJ1i78oHeZRZeKWS9zz8ypXns69dtoUd1tQ+/7zKap9TyloI1fKl/SxfPSZvJF7U6ie+83gdtalrodHy2Y/Ra13dWyLvde7vk/3qWu921NWydBfhCjcX1Thzy/+dRtnu0rOKTZ1n5yhXj+ivt5WWg8ds/R9+Y/y9m8iBvg0Z87B5qvK3hcSef/izLV861cSug+Ns7ZOuVPdj0YORgzUxd0uDN2JuX613O/uAFRSLQvl/lW9smyODlqNyVjBjnWQ4MFVxdtJqlXu7FotDy4O+rCjOxE3yMoud4BBS0tL+1JZuWaJZMwaD7W/lV06QOD+nKD2bR3nWlnWlvCHqzLlskjPUyTDMuzq8M+k/T/7ZEPOxzd1qt7eLmvdkbtu1VLv+eoDKfpDMcvT6hBfKyvVPu70OceV69dKp3tDPVxhqI5fpcz8Te7zDHZeTgzrz0JpSfufgNIknUsTGsK2wvOLfz3EV9X2Euf6y8yV2WofWblBOnVbs7Y3v1NSqmz0tp52ZsQqT2d/OtvOuX5dAT4t1bJUun23jX69x1NZu45VLmWzEJ0hGf2v23jtLAHqde/+rqVy/8K5njaZWdxRnF1Wsv5U+yx6Havy/cWRwOtYuPunLXJ7SfA+Xyky+QJwfvVt8mTyNcs3nn5KFsheGfjZl6yg3eWjm+Wf97wuY1aQpllmt4ucHHKXhZMRZ7L23nKeq8xcJN9YvcYKOhVnuZl9WR3watut/4e8pf6ufXdQ+1n+Xfn6fQtkyjl1LI8XZvRpZr+Bvy+j/QeyVp/fS+vKzMHnnJ+i9vXKloFcFqOVuagDm/pB3OMoxflW7DknkymYDtg8o4cWlMtyeOsr8qyTDacztVYvMVlUp6T/gZeLOredbQ8fPSULbp2lzkU9b8vbrjn/0tI8c0xG1XkPPNxif0PXZDlZ3Mfnt16tk6GX7XVOdpSVLebdR8fye6TPOofKj9OR/5awt1yaVbksV+Vit78Evz2cO3/1N9X+nKxEnWH50CpVlwHnpsU5P/f+Dr90WHa65m60stjU76b7nV/c7XJa5NEXVfmFaJtBnPMtm8mXC9IVlum9VhBPszNGrUWb6/yi1oPN2Xe557mYb9x7s0vszt18FkAp5rmhM/nMQ1HP3/f7XOaJzhrQnYpaUaaLOUYr6+edj2XnW/kgmZVtoDsj9d9LKKNEd+DqjDzdwd7vycrIZ7XIaHGGgrOdf5aJ/nv+5Vkumy8woydBQcfuFrdc4vG2Fyd7yN6nzib8ovTpY1FKZ0FWIZOvyu3To+xxezl1eHj0M1nQrI7ZqstPVLk6dabqMvUHT0Zmrt71+alrNpc9qTOZ/vyLpo68WTNOm7auc+u83fVZvK50HcYQoVzinJ8jUnk67cSdoZTLOlL81rvXme3tbDHvPvLXQwLHabjr0F0uzapclqtysQOiCbZr13XkfW24Vl1Duoz8z02Lc36xr9u42+WEvCeV4Jxv8P06mdfbqPVgc/Zd7nnB7PNzZWYGMcfqPQez/1DvX2z2+zq1v7DvqfVwnavtLyeGHTUhGSb7IGRWV17c7cIwf1st5TIezA5052C3DgToB4X7Vr9zMta8mTFNklncKSvb7Q7V4kwDZ38ma+g9tZ3z+8w86Vy61A5mFmXLOFkXarvBXep3TvaB2l9bpzlOv/3FlS8Xfe57d4csl0KmnMJl/5hz1NmaB9NWEMYq29ecMtJZLeKf0RK7PPWyXaavq79rb6r242Q/BZ5fJW3SbBsmM8aUX3Zoi7zgN6dhud/HFvH8Yl8PlZiI9hLx+nOVS1E7s7LB1LHoNljYFuKWp9MedL9/Kq3a77C6dvera1cfrw5q62CHWixqe065KJVc72E5xxm1XccsFzvzq0QWog6QBWarxWlnUTnty84Ms7PqXPcoT7m7jie3Lmb9xa2H2GJeRx7mXH3rqkDM9pJn9lWm3dsZeHY6njcbz1mh/1MLuWX9j/3AXrYWc8tk8gEN4SaTiXeb/MWq6fL+1nXyDz92Be3URzxvgE9k9sNmyMsnfiA/18Nyuj/UnX5d3tiyV3Ru15Tp3u+4ppf/N+tDnRUce0BtmwvwaWo/O38o//DEZiuo5vuRz8nEO/87/9+XkZ5ufw/38tnSH1vt81OObpZNj+cDfNrYkDrGrYet84t7HIlQH5IfsoJjdlAmF+DTTo/I9sd3yKD1ddxZ0l1izgsdWNIfsnsff9kVWNJcgSXnG7q/tYfntJy/pGqsRTp0Bl7RevWh3/oavTH0sjz2RL884rOPAzu3S/9RvXydfKlE1mGo49RUuXSbAF9huYyqcnk2Vy7JaTZf1z68dbtn2NHRoTflka2n1NIs+bMymYqhz08Hor7tBLnU+bkCddqoKmt7n1Pkttu931KKt90E0gHPBwrL9GXTXkSmTfceZ+X1YOYcPHc5YgbeH+W3l8yi20d/8JRxYnQH7N9d8gwtN/qr30u/2VlRposOHinWsH6uDlVNb/fIPt0J/gW57Sv+WRdx6cCSd9g1VR56fzsuhg5kOZ2xQQE+LZfNZ2U/FLpK/ky/DKkyy2f0TKwkyiUKqyP7X5wAn/YHOfDWJXlMz92k+JdbtUxc+6yEDoTocu3d8XtXIEQrCISkrpWHrOCRHbTIBcC07GeyfYd6nbLmxbpKun2yl86+83vTSf8HeWPUri/3Ot85taqpwvNzhCrPX32m3nUq112Zz566XmdXqfW60RStV2VlMpUsqi099k/qGvPZh74e7PvnlfIlqyfCX5R67zYBvsJyGVXl8myuXJLTbO77+jryvjZ8bK4hdS8sk6kY+vxiX7d1eL1Her1Noh7MnIMVjwSg/s71ZrGkpN6/TJEbbzSL5Zx+U70X75feB9TngqoF+HRHq84+GJNDu6N1EsfdLoy5PXbHqO4AfGGHd6iwC8cG5IXBYWvZm4k2T5aZjkPdafxCruNQOy8X9g3INus9cFpm3+zNErD3Nyx7t26SXXpYQPcJXXhX9u8+aI2Ik0oHZDNkh60gQZ7anz7OjVusvxncMRqNUy5WMGCzf7lYt6TshyXrxM7sG5OxUNN4mWwaaZXuLt0hv8Uu29wOzhd1pMctz8ziZfnO841qWyfwYlH7UXX4wtbdVme57/npbA/9f5nz92W2DTW32bH3RA/Cm5qqh+wrZNqhOoc9iQb4lEjnF/96qEz12ktOxOsvl9nq187U/naZ/UnqBlemVvzydPZnZSINbVHXrh5C0jleVR6vmf0VSOp6Dy1Wu45fLrnMr8BEvlKZftHbWSKsrMwxGRlR56Tqc6pZncvWdL0mhak/S2H9TdT9pZLXsdD3zwTuS5Xc5xNAkA+oZ07gbNo0ubzVDryVtki+YgVRFsg9T/6jrH3R5+fJ++2/6bFIbr9P96AflldKZb+dft137j/Ljfaxvv/L1+3HkTTL18IMsTmzV76uz08HIn8cvB8rvHb2A/vBRLjRDGF49HDAN2fHZPvPdGBDZPr8r+Y7vwodfTXEh+zr5EYdgDt9yR7GRzn8S/WyPPN6+TM9lOfpX8svzS/OnrN7C2YUzNOXC1TNTEtH+x3y6MMr5LmnV1gT79tZd2U6CEIdp1K2XCZGYUCqSNjzm/lVuc0KRB2RnUHteOg3Vmeop97jbjdhLsugniPQPHI7c9Y9PGw0Zeshql/9Xnp1B6DnU8sfZPuOi2Xnw4nnjzKos8DMIzdn6C0PZ6jKjz6RnUGZPqbzfHrzVYnU++hvPrOCbtNv+aI8erv6m9Y71OjyAb7PpL9URkFueLJri4cF/NpV6pVK3ZdGvZ3JEyGpcokmeMg353g8wZFqm4D2mYjR34cLyJpgk4x+HJBRo+4VR+37hN/5eYbRM9zrfK/5aqrw/HJClecf5bf6OtdDKNor7GENVRn8qy6H666Sb5hrygm0FJZfLlCVulI6vnatPPrN6+W5nutl4K+drLsygZHE6n1iFAakioQ9v7jXbd1d7xFfb0MqWw8VGvW5b/hK6P3L6NmJ/rZBCJkl0t2u3v+NHIgWiIq7XRjqb7dbET49/1rpjIDsWL5D0hkqTWc3BGWnXXjP7hT3dp7Ok1arJ1YP0bdB1q33+dHZJNZzC52XMesPLpTunnmSKRpe7bynY7cirnLZVqJc9HGW7mhtkjl6iL/ssJwIc2xOh2oqLdlBOyBSWtzynCeLdJvSwZ4S2Rk6CBNYpiYo4BkuLywnoOBqU8E+NPXuDgLZckP2jccQthHOL/71UKGqtRct3vXnBJcCv6Bw4cOioFsl5WnvT9WbDkSVCMx4rtvErvcoorfr+OXSZIbiDL4PzbWGslRP8bsmI7ezZMy9S7VFdczDBeNBWutVmzr5njmOkPWnFV/P1b6/JPA6FvL+mch9qZL7fAII8gH1zATO9BCW3qE1A7Tfbme5RRVlPrwAs7+uu2vPyWU951tkJmOxzLx96dtvs8vjyJuBgciwGYHjyclaOnvW7yu4hpNhp+c3s1YUK7l9zhT5khWAG5F/tbKozLx7N06RBdN0j9iY/Na81p37nS61FvkzK3CXp4dMfPTpPhl4skf69ByCep61gkBgKeGOM2S5JMzp4Fiw6l7p8Mwn2SKPmqElz50tHcALfbxOEHPafHnmRVWevj9LrMCGR9zt6kgS9dBwnM7m666RZ/56qtWZXfzzxWTrPfuxPPJPn8jhj74gC27Rc82Z/fToOeeuChXcsoZD0wE+S7mMBieQEJQ18pnsGYcMucgSKJdx4QqaVN1EtM8EeDLESnCCTSWff+mPJtg6gfUQU1LnF648ncxFJxPKmXfvD3LACmrkA3Qz1L70df+vBYEkPWTioz2qTX13ivTpOQT1PGvWc8NJtN4T5gR2rDka3feS1FXyqBla0i9o7Bb6eONet3V6vUeRRD0geXbH5HDkeX3ibhdG5mZ7CLNS88X5ZaI5Hfe5Ttaw2m62Oh3jOr5ji+wdGbPm1FppBSnWyrLF84o6ZysVvlzUc0p2tDrzXIXMgnA6b0t0ynrELU+n037kPTMsXnR2UCBshqKXvW3Yuc2cTvFWmeOu6Fzwe3e4soooyvnFvh4qVa32YkS//kxwSZdjhChJ/PJ09qfblv+2uWvb/aWFxK73KKK369jlYjLfgu9Drnrya+9R21ki7IC0rhNvjM8Eql1feon7Omar/v2l0texsPfPJO5Lldznk0CQD6hjTuDs/bfCBaycAJeeb2/TA6V/PPPeOcHE2NlvzXK9lc18Vi7FydAKOdRnaroVCSxRHiEzAhvMNJ2xp5w5p7OoPpLfqjqwhuRsut76trW9/pT8qy6TmdeLLqEcax41e/4NPQTj4Zdelf4ndshj6kcP1+MMv1i3ckNIzpK+J11BsydN0Ozoq8HZc0gO9VA7sh/Lszob4J8uS/87n8nhj/4oZ6/LB7ee+2aJLI1mM9/RR5+obf9odwir55f0q0+s4e+m33KNPbSw5mSNjH4Wa16jcVFJuQCTnJM9ZWdC2cMaWoEpE0i01ztD9BZ8OcCaR+0aey68j9S1987vpV9dh4+pn96/u5gbfrFu5YaQvEr6nC8Q6J/vmqDZ6O+Ds+eQnBqoByfIXC3Ol+tqVluvNQ9Udmh/tKBK3O1CKt8JaDLRdCdfrvc0ZMe90zHsynxxOsr10GFPbSz945+Fc16O79gkT23dInuHdAZCWlral8pKq5M0YLixGMKXS5mOVhNUCZsF4XSohu2UjV2ePnUTTbzgjc1smx0r6LwPdvyEHmovLelcskmTdC4dv+B3tPOLfz1UqmrtJSfq9WeC3KWCyUXDAVZSnk5QPbhtOde2O2iR2PUeUbR2XUG5lG17Trn5Z/pFbWfxmGCbYWehDcuQaocXxly9pj731HivY3nVv79U8joW9v6ZxH0p5N8YRwT5gLoVP3BWON/e+DOZeHEzASsOMjrCZQRWy/TpJcaWcrK3Is8xVmz6rfYQjqP6q/RHf2N1mltDck6bJXfOVOv/9ZScdfbj7NfiZFFdlsGt9pxzej44Pe/cqGfuuWSVLJdxYQ8haWUs5Fy2ApqP/dg7/11FnOzMo69aAdKSP4+/md9v3O38lMgMnXiV1MMl+a0edramzy8iJ4tmVA/LdbH0T6khMePK6vmufi/P7rgkj+h9/NPv5bAOxjV/UR4KmKPLyqz5yJ6DLzdXlnr+oyXnMXLmLMvPd9T8lavUfeiPMnh4PIZNrVCMckmck1VTGAyppolun1VSMlusFuqhQtU6v9yQt3p/ZiheKyvKDNlrDfGYutL+kpFnTjEni0rdD/bZc87p+eD0vHOjnrnnkhUlSzAZdhDU+/r3Ryug+di/JDhkcdzrNsnrXZVt7b5OV1IPxcPSxhMw1964uSy/jTXKynhrks6FreoeEXVen7jbJSiXARI+IGMzx674Zb4EzvcV1oXz9pxxOiCxdbeMZHUn6TLpDJsKUbHywQQtOHvET/wO1YrLM7IQwZtATtlFmOPpwzGrvyN3nm2d1nyC4xX8ruz8/JS+HuKZwPYS9vozAZlSgU07U9kbtCkvoDydTMUwGWuRyizc9R5Z4u3av1yc4G5Q28uULLeJCPSYoJzn+ktLOpN/TXw9UrC1TP1V/f5ixHodi3H/DFTuvpT0fTA6gnxA3YoesBo7a39snTL/DnXL95duby7+3W9/Z3W/T7nvuzLbXlNs5qLAv5nLxIspWsbiNJniOz9cs8x+eI09XGmZjECZaYanfLFPnlseeFaxjb51yu5AuHWBrHAPTZiTlhXftocoPHvk15V37jiBj99elsPWvHvOkJxmKE89X9/5S9Z+rAy/QudOyRvWBLOF0vIls5SEfLl8JZ/R4zbzernR6gFMUPu91ryCg0/0yyOegNl2K6BZcdm7nf61vK0DUYH1HiDudr6uky9V/DfGQcX1MCa/s95n1ej5xVFqvrpx0vy1Etlo6niedeboCuoANwE+p74O/MvvrTmaFiy+vuQ5jL71sf28W69V+79SvtGs/v5Hn8kbtfBtDKXicoklaI4xZyhT9foQZr7Cch3O2T/Y87UGPK/59i9Kl1+yxwS0z2rKzXsYeH4R66HGVP38cu3sSumwspWcITnNUJ66/Zmgou/Qk/p+8Cu/oN6Vyb4PyZXLVf7vQ1J2FmKivvZFa17BwX+6aH9xIPdzyQpoJtq24l63iV7vqs5q8Z5RcT04w9LGPT/z2qf/TlVe+9Lyjfn609lH8rvQXxZtyX8+etjq3hw3mcXLrA7DqPP6xN0uurTMvtmn0z8zz2QzKJ4ORSfjolVa26wVRZxjL+yMdTIyUq1zA4cmy7Q1+fxunizT8xeZRx4X3pVdBwszMZIQ9PeaZG7P0jLBBFsuayhUBUYPJMQuT6dTu71T5tpriqn6D/qbueyrOEIEfopcOC4n1QHb55nv6B+34Hek84t/PVSmiu0l5vVXLrjkZCp7M+Til2cuUzEwYFiqzCq/3iOL1K7jl4tf9qIjs3itrOwygR7fazJ6O6uYFWQbk0OvFdTjDfaXTvyH5ayg/qp2f0ngdSz0/TOB+1Il9/mEEOQD6lXIISw9ht6S9/X/0+6X3qd7ZbarMzw9c5F84+EfSu+qp+T2drPScfpNed/qnVkg9zz9A7Wdq7tTLc9W2619co38xfLAblDbrd3yjfb8c+x9quMwj/2Fz1jMnrUOUr68Sh+jtWhJt/fKt55+Su4xc82Vywjs6DbDUyrT77sngcBKAVWee6yhCadI15Mr5FFrEm9jZouseLpHuqz9n5I9O0PXbgnXyY36HE5fkn/V8+65huRc8HX9kqfW/1I/Ssudt/qEY6fNl4eWt7g6udPS3H6vPKePs2D+voo4wSw9ZOPT3rnZrP05QzcmyB6qaIrceLurDsbNmGz/2Sn1v6l3XaaetpWWjuXqPF9U527W2OJu5+bMyaj+xuo7Cua9U9u72+AESKIeDvzSLqPbqlKX1ZCfr67ru35zv10pHbd/UZ776y+WqPcIUtfKQ4u/KM/89fX20JMpb1Zas2teoqD5n4qDAZ/Js/vMOfy5DuAF+Ux2WsN7XiXfUOeph+qsmcBJAuUS14LFU+U5Xe/msR7GdEWPuoatIEO5+QpNVolcJd0Ff8Mz35TreX3uIUfVea745vWu+RULVbl9Vlv2Y9ljNUBzfl9z1XukeqhRVT+/fJbTn+lguCs78MAp3Y6ulD+zvtv0R3n7Nz77u+4aecjdjtXz9fyfz+njDL6xROcEs/T10OOdm83anzN0Y4LsIRq/IDd65iUdL3Gv2ySu98/kX502p14PvPPeqe3dbXACJFEPdlsunGM2JHXdVXWY6plfldv0hwEzwkcYzcsX5D8fJfLFsyDzZFGseX3ibheNPUyZqrL21fLg4nkyN9MkGR3c61krD65aancAKoWd5s52LV1rZVmbK0Botl1pvRcfk0O7CwKUx95T7+KV1EJZuWaJ2p+11uLsd2XXallU0ClpDd2m5y9aY+/P00mqtltmshGScvGi/Zm1pavXe4xtS2TZmtUmMKFusyU7Wp0MmFZpdw3BlmnT5WweuBUNWxhCzPJ0OrX1sd2/Rp+juw51p/haWafqv7vc0HEtHdLpqn97n+o4zONSdId67nj1Pt3tqIjpsE6lZY7pmB7/4LcS8vxiXw+VqGJ7iXv92cElXS4brPtLfjvTxkxwaWRwwJMpFLc8SwWzLE6ApCBIlMz1Hke0dl1ZO0vLnXe56kDX25oN1jYjI/b5+wZj47SzCrXq4UF9hg5Nq/V6CE09hKdb5fVXnftLkq9jYe6fid2XKrjPV+qKzruXfG6WA13K2g3AbcaMZjlzpia6X8YF51ffGv38LO0/kLWrFsjll9Z5588rx2wX5PLRzfLPP35d3boKzOyV//Lk/RKUkXf56F613UDxdpZm+cbTT+U+GBbScwT+PDffVunn5pzbKwOPF+5vkXzrRZOtV+jcYXnlyHS55z6Rw0/8QN4oETDseLjPyiqyXZbBJ7bL9jDfcp15hzz35HyZfu6IPFZu2ET1piEfzPMTvN/m5SvkmfumyNmXdsgjZYKA+tu22uGt/fKsU8bt98qANQyn4jnWFnn0RTuQprOoNGdfvs6dkv4jIn33zfL+fSPKceY4ZWgeeug5Ac/PkgW3RqiTckrtzzir9vv2z96W7QXZjLHOTylZppra3+CWl4vOL+52OSXPVdXlAy+X7Ogpf75Om47RdiuohzzTfkNdf0m40nSE/1EG/+mSbLc++Psp/7zm2+1gytl3LssjBR3qzu8CffSZDP6P35fYf3jNX7tWlt9q5r4KUpCtp5U6fi13Dnqot3/RnaB+rpJH/9rpQP9M+v/u91Xp6Cx37Frccokn317OfvQF8Z8yqVybswW2ncJ6+NoXZcAEKgvpctlz3RTpa/bfZzXbp0fqWnnuu9fI9JDlHqaeizl1YR4WKS6Tjm9OtbKBDu+7KM+a+bucfZdbl4hI5RL9/BxxytMpG4u7DTrHbD0ovvZLtjHVvvSwwH23XOVblrHq3XM8BdT+Dn90lSwIuB5iKbU/46za79tHP5HtBdmMsc5PKVmmWsB1G3e7nJLnWv6+X/58K3i9raAe8szrWIzXA+e4Er8nBHDej/m9fw9S+D406vvfsDI6S6Jd5NDWTbI/Qo9h3O3imNuzIdcJ6pYdOShDF1vl/oDjCNrONhZ87G29uc59P9mR3bJnx7tFnY52mdhBA19qu20+28UzT5atN9kfhbLDsnc4HVgubkHHrOdEKwremnLJDm0JmA8tQMzylMwSeXCVydT0oet/z46gzt8m6VyzOhcELuR7fjkBZZs9KNs2B3c2e8pSndNT4zJXliP6+cW+HuKqcnuJfv2ZMlTnruccSwWUZdDxRy9Pp87U9bnRGzR0OOdQXH/JXO9xRG3XsdpZYJ3bzz9xsz6GgPOL285icJ+bp47cx+9bRpXXX7XuL9Gvo0LR7p+V3ZfC3wevsP6x/jXLIp9/nl+2/1MLuWX9j/3AXrYWc8v2tleQyQfUq/R0+2Po5bMRuxSHfiibntgs75+zs94cOkj3yhN/Kf/gF+DTTg/IPzywTl45es4aujPn3GH1AXGd2i4owKeNyhuPr5PDalu3yzrwpvaZD/BpZhjScnwzGF+Xn6tz8+xHnef76vgGHv+hGda0fEbggT1H5LD5E2dfeiWZYFKRMdn+eL88tjW/L9tlOXv0VXnsgYSCWIadsWfr+LoJ8GnuOcxcGX6O0Z3b1THqOfvMCk0Hk7bac/QdsMa1StDpN+WRJ16VwaPuVmbmZVP723nW0/oqd/rXssezr2LTp82SrlU98qh6o5MEXaa95hw9xXcuf55+dR93uxxTtofV89108Gxw69tVCagESqQeRmTnS+pvWJmnJd4I1pnRty5Z874Njpo5kRwfmXmCdiQXQBn91cfy7I6L8ti+T+RwQVaa7tzUc2LFCWSNvqWOX2fHWPPzBWU4OFkeSrUyGUIar3IpSf3d5619fqb2YdYpZ0c/kf6QwQXddh57xww/6NDHe6og4/BXqh0V7Ec/r18PW/fWH+RMiQzFarbP6vuDbM/Vu1llUec6qs7t7xIK8kyY6p6fneVkO+xazg3lqal2Uzj/n9WOfdqnM0ffgYTfFugsx0dMm87Lt+edJa6HWLKfyR7PvopNv+4q6Vo8pcz8puHFvW4rvt5N2frfRz+Z2Pt+IvXgZKXrzNMo2XxXyfJbvqDK8RPZWYUAn/5S1HIdrDt3RHaGDPBpozvVZz7PZ5ZxkFki3bozb+RAtI7huNvFdHzHBtk2eNDK5shmx9T/B2Xv1i3ywo7jktbzIqnPeX7DTdrbDattzApNbz+0W7ZtLNFxeGzAzD/k/fSrg0p7t25Q+/Xv4Lywb5O13SF9nGadZh3z4JYEA3zau7LL7CvH2c/mATNsXflhOC/s2yV73X9DbaPLx29otLJDGwaJWZ5y4VV5YeMW6/g8t7rssBxS5/lCYIBPOy/7N2/xlo+S1R3qap/BAT5Nl61qb66d6u0OHfQbgi/vwnuqrVlLah/j1AGfF/38Yl8PMVW7vUS//pxhHg/IC6osC9tZbn8BgaPo5Vl+WMngTL9krvc4orbrWO1M1bnffch5fqlhhWO3s4q4h2/18h+KtfL6q9b9pfLXsWj3z8ruS5Xc55NBJl8Azq++TYpMPiAEJ5MvKieTr7GZzDMplfmVlo6He6zMzvH6xjKSrIfy2YSoXXamT4IZMgBQ00zmmZTK/LpS3Rt1Nq16/YuYsYewkqyH8tmEhar92mePWFLB+yQzIsh4vC+2v0E/HJhVEiTudskzGQNlMqyAqjCZh1KFjCIkgPoKh3KqDdRDRewMPDsdz5uN56zQ/6mF3LL+x35gL1uLuWUy+QAAk5uZj+TskV+XyMAZkzNJZw/CK9F6GJPtW47IWWv+wlJzFKLmpK6Vbj2U30efyRsE+ABMBmYettJzkJbOpkUCEq2HP8j2//GJeh+i5y8sPyepHqbTDhxWJ+tZD7lpf2Eq/kgl9jzKl+XttxL+4ltbrzVEVnZof7RAXdztxoE1f5D6v3D+KqDq9HxVemjR7EHZQwd8XcjcrOdP00lDjVdfesjFdes3hPzpDZ67rMHadWLlUm3cX2oWQT4AQF3THRY6YzHcT3HgZ/p998ij7WlxpgpyNM9skRUPO/OPnJI9ZPGNq8TqQQ9LqoeYlVnS9zSBvnqg57xz5kI6fDThYS8BYJzpQM3AX08N+VMc+Jl+iz2UcdHrX+oqWfFNZx68z2QPWXzjKrF60MOS6iFm5Srp6wkO9Dnz8Ok5KquRoZmbU+/oq/Ez8GbeIQ9Zf+NwwqMlNEnnwlZVdlE7DONuF5POXFi/VpYtnicZs8qSmSedPc68QcMyRKcnqi3TZBbUYpvOsNFzUI3Jod1klNaL4KEx6599bjE0eLuOXS7Vxv2lbjBcZwDOr74xXCdg04GtOOppuM5cp0Uop6T/gZdz877YQxaZB0H0nHVbysx3h4qMSz3MvEOeWz1F9qhtDlB3tSeVD+w59Dxgj/yLa64uAKgDuWBNKJ9J/9/9Pv8+xBqq0TwIoues+x/1PL9l7RuXetCvc3/+Bdmjtjngs41uNw9d93HVXvf0++WHph+WR348YtZEkVbb3yYP3TdLpqv3Y/16Xm7zmyTobAYdIBsZjDZnTdztYjPDk+lsG39jcmhr8nOJAaU1Seea1XJnQcOs2nWBBDh1WAvDDtcK2nVtoB7Ggz3Mpj3mpnfITWeF/k8t5Jb1P/YDe9lazC07w3US5AvA+dU3gnyAbTIE+SrV3H6HLP/2LJk2bYo34HDulLz9s7fljaExMouqgHqYZL72RRlYfJW9/NEf5fDR38uzvyJLBcDko7OZl996lUy77gve17+PPpO3j34ib6h7I69/4496KKVFHn1xiUw7+qo8/+ORSd4em2RuzzJpb0nng33ZMRkZPiCv73uXrAZMAG8nfDY7LEO7B+Q4jbGOMJ9nMdp1baAexoMdnLMjdd5AnbNC/6cWcsv6H/uBvWwt5pYJ8pXB+dU3gnyAjSAfAAAAAAAAAEwsOzhnR+q8gTpnhf5PLeSW9T/2A3vZWswtO0E+5uQDAAAAAAAAAAAAxonOtvv888+tn/+lf/6Xd1n//PF//S/54x/tnz/onz/80fr5f/TP/2P//N/65/92lv9AJl8Qzq++kckHAAAAAAAAAAAaGZl8aEgE+AAAAAAAAAAAQCMjyAcAAAAAAAAAAADUGYJ8AAAAAAAAAAAAQJ0hyAcAAAAAAAAAAADUGYJ8AAAAAAAAAAAAQJ0hyAcAAAAAAAAAAADUGYJ8aFgdD/fJwIvOzwp57ul7pWOm+SUAAAAAAAAAAEAdI8iHSWKKTJ82S/qevFc6zBoAAAAAAAAAAIB6RZAPDevAj/ul9wHz88SrMnhOr71OvkQ2HwAAAAAAAAAAqHME+TA5nB6RN45cNg8AAAAAAAAAAADqG0E+TBqjZz8ySwAAAAAAAAAAAPWNIB8mjebp15klAAAAAAAAAACA+kaQD5PMR/K702YRAAAAAAAAAACgThHkAwAAAAAAAAAAAOoMQT5MMrOk7+k7pGOmeQgAAAAAAAAAAFCHCPJh0hjd+Yr0H70sZ6fNl74n+2TgxT55bnna/BYAAAAAAAAAAKB+EOTDpDPd/A8AAAAAAAAAAFCvCPJh8mi/TfpunSJy7pT0P7FDeh/ol0d2jplfAgAAAAAAAAAA1A+CfJg0mqdfp/69LINbXpYDpwnuAQAAAAAAAACA+kWQD5PMR/K702YRAAAAAAAAAACgThHkwyRznXxpplkEAAAAAAAAAACoUwT5AAAAAAAAAAAAgDpDkA+TxujZj8wSAAAAAAAAAABAfSPIh0mjefp1ZgkAAAAAAAAAAKC+EeTD5DCzRZbfN8U8AAAAAAAAAAAAqG8E+dCwOh7uk4EXzc+TS2SBXnnulLxx2vo1AAAAAAAAAABA3SLIh0nispw9ekT6t7wpo2YNAAAAAAAAAABAvbqi8+4ln5vlQJeyY2Ypb8aMZjlzpnHDJZwfAAAAAAAAAAAAahWZfAAAAAAAAAAAAECdIcgHAAAAAAAAAAAA1BmCfAAAAAAAAAAAAECdIcg3STEfHwAAAAAAAAAAQP0iyAcAAAAAAAAAAADUGYJ8AAAAAAAAAAAAQJ0hyAcAAAAAAAAAAADUGYJ8AAAAAAAAAAAAQJ0hyAcAAAAAAAAAAADUmSs6717yuVkOdCk7ZpbyZsxoljNnRs2jxtPo56d1PNwnfbeaB3JZzp77SPZseVkOnDarAAAAAAAAAAAAUJPI5IMxRaZPmyV9T94rHWYNAAAAAAAAAAAAahNBvknswI/7pfcB8/PEqzJ4Tq+9Tr400/o1AAAAAAAAAAAAahRBPthOj8gbRy6bBwAAAAAAAAAAAKhlBPmQM3r2I7MEAAAAAAAAAACAWkaQDznN068zSwAAAAAAAAAAAKhlBPlQ4CP53WmzCAAAAAAAAAAAgJpEkA8AAAAAAAAAAACoMwT5UGCW9D19h3TMNA8BAAAAAAAAAABQcwjyIWd05yvSf/SynJ02X/qe7JOBF/vkueVp81sAAAAAAAAAAADUCoJ8KDLd/A8AAAAAAAAAAIDaRJAPee23Sd+tU0TOnZL+J3ZI7wP98sjOMfNLAAAAAAAAAAAA1AqCfMhpnn6d+veyDG55WQ6cJrgHAAAAAAAAAABQqwjyocBH8rvTZhEAAAAAAAAAAAA1iSAfClwnX5ppFgEAAAAAAAAAAFCTCPIBAAAAAAAAAAAAdYYgH3JGz35klgAAAAAAAAAAAFDLCPIhp3n6dWYJAAAAAAAAAAAAtYwgH2wzW2T5fVPMAwAAAAAAAAAAANQygnyTWMfDfTLwovl5coks0CvPnZI3Tlu/BgAAAAAAAAAAQI0iyAfjspw9ekT6t7wpo2YNAAAAAAAAAAAAatMVnXcv+dwsB7qUHTNLeTNmNMuZM40bDmr08wMAAAAAAAAAAED9IpMPAAAAAAAAAAAAqDME+QAAAAAAAAAAAIA6Q5APAAAAAAAAAAAAqDME+QAAAAAAAAAAAIA6Q5APAAAAAAAAAAAAqDME+QAAAAAAAAAAAIA6Q5APAAAAAAAAAAAAqDME+QAAAAAAAAAAAIA6Q5APAAAAAAAAAAAAqDNXdN695HOzHOhSdsws5c2Y0SxnzoyaR42n0c8PwAS69m4ZvKVdms3DnE+HpPfIL+SEedi4muT781fJ967Oyk/e6ZcffWxW14S0dCy/Tbrnz5Lp08wqOSX9D7wsB8wjAAAAAAAAAKgFZPLBMmfq3fL8/D75t/a/yf0Mtt4t37nWPAE1TAdMVJ3Nv1vmmDWNhvaZpMZvL5XoeLhH+u5zB/gAAAAAAAAAoDYR5Jv0muT7rX0y0NIud12dMutszal22XhLnzw/1awAqq5B2+fHv5Cuob+VP8397JHXzK8wkdLypSZ76fDWHdL7QL/5IYsPAAAAAAAAQO0hyDepmSHzUjp4kpXXRrZKby7osFXWf3BSRiUld6Xa7KcDVUX7xAQ5d0R2DhUPUw0AAAAAAAAAtYQg32Q2tUO+d7VeOCnr3+mXhy6ed80Fdl5+emaHdL2zVf50+JhZh9o0Vb5s1WODoX2OkzpqLzPvkEef7pOBF/vkueVpsxIAAAAAAAAAoF3RefeSz81yoEvZ4oyGGTOa5cyZUfOo8TT6+eWypK4WeW3kb+Whi2Z1BHqetDU36WEUzQrJymj2dXls+JgrGGP7TuvfyMbUSVk/dEC+0rrUlZ2lgzd6SMbCddZmijlOGZLeI78QubZN1sxelB+68VP1/A92WwGgIFGOs3B/J9Tj76hj+yt1bM3mGaPZIbWt/l0AdYzfv2mRLHZv8+lJ+fuTO+SnH5sVOTH3N7VHBm+aLc1hgjXZPYkGwqpTnma7SdA+bW3yfHu33PWpU04hRGlnSbSXSO3a0aTqoUOece1b1/fff6DK6iZd5ln5yTv98qOA7Tse7pO+W80DuSyDT2yX7afNw3Fi7bPpiDz2+JvSyK8AAAAAAAAAAOofmXyT1bU3y2Kr0/2kvBI5gKIDG39j5kkzqywpaU51y0B7n3z/WrPKIy1/pQMiVrBES8ldN90t328tWNfSI98xj3KuTssaPTfbLd35AIqmlu9qWSX/1uo3ZGPc41TU/r56bZs8r453oyuooem54Abm3y1zzGO3OTP65N/UMerz8Wxz9WzZeMvfyOAMM+FXoRj7CxWwSVQVy3NStM/44rSzStpLvHZtB0AHWrzBRWcuxb+6xqyoRdOmyAyzCAAAAAAAAAC1iiDfZHVN2u6sz56Qn1orwpszY6kZRlFnNW01c6Spn3f2yE8+1etT8r1bfAIhOshytc7csedUs557dbt8z8rmca2T2XLPVP2/22y5K5WysoDWW8+1n7/+g6z961S3PF+wTfzj1HTwQgds1LG5tu0dOWn/Wh33msJjnNojAzfpAI/O3trjmj/O3k5nBTXftDQgwBRxfxd35J7zp0N75DW9TmeB5da5fvyysmKoanlOgvYZW5x2Vkl7idmuv6ODoz710Kvq4bVPdVlbTyvpwJ4jcvicvXz2pVfGPYsPAAAAAAAAAOoJQb5Jas7VMee3uvZuecZ0+Oth9jzDEH58TH50JB8I+Suf7J7RD3abofnOyz+P2QEQ97rffGKt8jX6wVbpGv6Fa2hAPS9bv/SaQMpdKVe2VIXHaflUD9/YLz9ybXvi4g5Zb+I2M692b9ck379ptrVkDed4xjskpN6uywpopWRxKon9VVmVy7Ph22dsCbSzSGLuT9XDX+lq8KmHE6oeHsrVQxmn35RnH1dl+EC/PLKzeNjoZKWlefm90q2HBz13Wc7YKwEAAAAAAACgZhHkQzS5DKvXA+bROi8/+sDOzmpO31w0xOTpT11BF8O97tefmIhPkazsyxZvq53IDttzZ10zNb+/Co/TCk7oucbMIzffY3SGl/x0SDYHDS958YSVQZXI/qqt2uUZV720z7gqbmcRxd1f2XqoITPvkOde7JOBF3vkmftmyfRzp2RwC/PxAQAAAAAAAKh9BPkmqROfmqyYiIEHJ8Nq9JMSE6V9MmZ3kOt52KwVVeLaX9WP0wlqXN0uA+1/I//m+9Mtd1lPrj/VLs9Gb5+xVbudxdxfqHqoUWfVz+/sRQAAAAAAAACoaQT5JquJCnQAYdA+US2n35RHHtBDgu6Q/pcuy/Rps6Rv9R12cBMAAAAAAAAAahhBvsnq4/dkX7k51EpovmaqWfLhZP98Oia/tlaMsxL7q9pxOkGp7B7506G/Lf1z5Beeec0SU4WAWNXKc5K0z8iSbGdh2kuF+ytZDzVnTA7s3C79R9XitCkyw14JAAAAAAAAADWLIN+kdV7+ecyeX6z5pqXy/WutxWLXtsn3p+aDLLn5xVKLArZpku/fNNtaGh17L9Fg1pevMQse/vur+nE6QanA/VVDWr4Sdd/X3i3Pz7eHXRwsEUyrfr03dvsMVC7wlmg7C9FeYu4vXw9z5DvWmgLXTpUv67n+ypl5hzz6tJ4vr0+eW24PAQoAAAAAAAAAsBHkm8ROnNktP7GypVLyvVv65PkZba75z5pkztQeGbylW77X4gqyfPwL+Xsr9mK2cQVYrIDL/FXyPavz/qT8/Znz1upkpOSuloJjLLW/qh/nefnRByfV/66y9ARFmuQ7M1R5tvf4Bz0qckxecc519t3yHfd+r1X7dZ97ge/c1C53mWBLyWDaBNR7Q7fPIhflfetcdeai92946jORdhalvcTcnysTc+N89TvXNk69hZk3sKN7viyYZi9Pv+8eWTHTXgYAAAAAAAAAiFzRefeSz81yoEvZMbOUN2NGs5w5Y+VqNKRGP7+8Jlcgwk9WXhvpl4cumoeW8tv85J1++dHH5qHynda/kY0pUX/rb3N/a86MPhm4KVVmXX5fo5+KNPvus3h/tujHmd8m6G/mj3H0g63SVRC4cX4X6NOT8pOTO1x/t7L95Vx7twze0m4PC1nkpKwf2iE/NY/cnHqxBR+DrfrlGWaf9ds+vQLbjh4qc/iYeWALfK6jqJ0ViNheYu2v1D7U81/7ZLbclSpdNh0P90nfreaBXJbBJ7bL9tPm4bhIy4qne6RLjshjj79pZyMCAAAAAAAAQI0ik2/SOy8/OvK30jsyJK99aqX3GFkZzQ7J+ncKAyiaexuzyqK32SO9Q+UDGtFlZd9Jvc+TVjDF4Ryj//6qf5wnzvTLn76zR36SVfsw6yyqbF/7QO3zSInASyU+/oV0qf1661AHnk7KT0YO+Ab4tJ9+kC+b0Q92lzm2iaj3Rm6fXrrt9H6gtjePLbr+skUnWHk7i9heYu3P7ENvk5d//uZPvPv2c2DPETl8zl4++9Ir4xzgAwAAAAAAAID6QiZfgMmTyVfrymeCAROH9tlYyOQDAAAAAAAAUD/I5AMAwG3afFnenjYPAAAAAAAAAKA2EeQDAMAyJm8cuWwtLVjVIwMv9pmfe6XDWgsAAAAAAAAAtYMgHwAAxujO7fLYS6fkrJkLEAAAAAAAAABqFUE+AABcRne+LI883i+9Dzg/L8sB8zsAAAAAAAAAqBVXdN695HOzHOhSdsws5c2Y0SxnzoyaR42n0c8PAAAAAAAAAAAA9YtMPgAAAAAAAAAAAKDOEOSbpHSmIgAAAAAAAAAAAOoTQT4AAAAAAAAAAACgzhDkAwAAAAAAAAAAAOoMQT4AAAAAAAAAAACgzhDkAwAAAAAAAAAAAOoMQT4AAAAAAAAAAACgzhDkAwAAAAAAAAAAAOrMFZ13L/ncLAe6lB0zS3kzZjTLmTOj5lHj4fwmi3mybP1SackelG2bX5ULZm15cbcDkje3Z63c35KW7MhueWHHu2ZtHWvrlXVdreZB3sjgBtl1zDxAA2qSzjWr5c7UsOzdOCDHzVp4cb0DAAAAAADAQSYfJrXM4g5pkTE5tDtaoC7cdk0yd3GvPLhmg6xbb/882LNE5mbMrxFJZvFaVYa9Mtc8hpFZIu0taWsxlbpBGqF5ZdL2+XgNy3AVOvxpZ8mKVp43SDql/suOyUV7BQpxvQMAAAAAAMCFIB8mr8wS6W5Pi4wckP2RInzlt8u09cqD61fL/e2tktKd1kaqZaHcv4oAQnRNMqdVlTmd/8UuHJeTWb0wJiPDxxsiq/TCvk3y1MYN5meLHNLnV5W6p50lK2J5Zm4Q63aZ/ZDs6CBc7wAAAAAAAHAhyIdJa+5dCyUlw7I34nBn5bbTmSsru1qtzmo9nNq2rfnOy71DeujbVrm/Z571XITlZPjQ+V/svOzfrNvXJtm177xZ10iqWfe0s2RFK8/MzfZ9c+REAwxBOW643gEAAAAAAJBHkA+TU1uv3N8ikh3aH23ep3LbOVl+OsticIM1X9KFXE/leTm+b5NsGzwo2xphHqVqartZVLHT+T8ZVbPuaWfJilieU6fa986xD+3HmIS4BgEAAAAAACK5ovPuJZ+b5UCXsjr7yGvGjGY5c2bUPGo8nF8ja5LONavlTjko2zZHmYuv3Hbm9ymxAny7os4nlGmSuXcts+Zb0okMluywHDq4X/Yf88vYMPvL7panrKChngOwU9r1EKH2E6xMwj060Gge2+Jul6eHI+1e6B6KdExGhg7I6/uCt9EymXky564Ome06x+zIQbWvwvKcJ8vWdEhLSnf6lzMsezcORAvWlqTKo8dbD/oYh157VY7f0CvrutJyaOumaEO8lpBpWyKLVFnmz3VM7W/Y3p/fPlTZr+tqNQ9csmHbc9Tzq7S9VFaeVmZsuyRa5nkJtLPI122lqlx/kc6vkvJ07p/O+ojHqcS5LxW1L3WPWrbUdQ7qXPfuVscT9Aci4nqfyOsdAAAAAACg8XyhedaXN5jlQJ9++olZyvuTP7lO/uM/PjKPGg/n18Davi1/eWtaRl75P+XtKBkj5bYzv9edr3teel8+NqvD0J3T//Uv/7PcmrpGrjHrLNek5abWr8vNXxiWw6P/06w0MnfIXyycIZ8OvyaHP71DHvz/LJVbZ6Q921+TmiMzC7eNu51Fd+KvkXvUeV7jPVBJzZgj8//TlTLyS79z1x2/D8iKby6QmwrO8ZrUDJnfMVe+cPItGXU2zLRZHeGeXQTJDstB333GkFlil4fPMc5eMFcy/9sMSaXOyNGXj0siyUaq3h/umi8pT2GqfTv7u3xG3vvQWweZ/9Qp82cUl0z26M/ltaL6KlDy/JrU+ekAScH5VdJeEijPWbd/S2YnWeZuFbazWNdtJeKUZwX1F/n8KirPL8vX//McSen1H3xZ/muUdhb7vuRtX1csXisPdy/wXo/XjMnJpNoe1/vEXu8AAAAAAAANiEy+AJxfo5ony9YvlZbQWRCO8tvN7dlgDeUZOYuvLZ+p4c2QaJLM4k5Z2a5/N1ac2WC2y+rrM5W2Osf37t4vxy/o7BodVFttHY+ov2lnZBhxt3PKwMmOeU8dp3M8mXnSuXRpQBajk6Gjl/Uwprvk9WPnc+eYyxIJLNu4dRaVc36K2tfe3fnMGitDSJWZdQqJHYdTLnaZ7MplRal6b+s0+/Op90KmPsu3u/z55TJrwpxfxe1FiV2e5m8U/e3xELGdmXLRIl23scUsz7j1V/H5RSxPHSBatVDtzH2cTgbdeNyXNHMN6uzsg2lrLlXrXF9z/obab5vI8UQyMrnea+t6BwAAAAAAaAzMyYdJJbO4w+oMPrQ7RKezS/nt5kmr1bs5LMNRAny6U7PL7kjXnbbWHH7WI+28XNg3INuGxtRyWmbf3GSvNjJpe7i3VEr9P7RFntqsO8SdjuPzcvy1g5I1j9zibje3R3fgDsverZtklx7+zl0QF96V/bvt7VLpguNcvMwO8OnO3Y1q21yAT9PzFA7IC1t3W53CvmWbucF0Dn8Yqc6iss9P0R3Mm/Md1NqFY+oYB4ftB0kfR3bYCnrmqfLR+9u4xSrrcgEiuz7Lz2PmnJ8OYrywI/j8ssPHPedXWXtRKilPU/fZi1XI6YnUzuJft3HFLc949ZfA+UW8bjM320Eg73HavyvfzqLfl2w3SNo6yFbp7kqrc91SPI9qIgE+F6734PZQzesdAAAAAACgQRDkw+SRWSLd7WmRkQPRMmuibJcdk4tmMQw7eKg2G9oSmJVx4b1hu5N66g32CmPqVLsz1uqY3hfcEV3YYRpvOyeI2Sr3r9og69b7/KxaaHfqe8yTRbrsdCd8YPaGcuFdT6ewxw1p6++OnBjHzA5Vx+1WRRyUbWUySJI7jvMyZlXsQunumSeZjL0273xwmeQ0yZxWVb7ZYTlR6rmu89MZWaVkx7xtIlZ7Sao8Td0XHtO4iNDOKrluY6mgPOPUXyLnF/G6zR/nhirclwwnEJlKS3bQ/gLC+OF612rmegcAAAAAAGgQBPkwacy9S3f2DsveMp2QhUJt53QWR2R3qI7Jyfeidmo2mQwUnTnov62TGePtMI25XdvNdpZGVE65jLwnx60V0c2dYw8LWC5zpRK5cy7IanELm0ETxfEdW2TvyJikWpbKSitIsVaWLZ4nRf3/gUwmUplsqfjnF6+9JFWedt1HzY6NJ0o7i3/dxlPt+kvi/KJdt+7jtFYU8TvO2PclhxNUKhHMTBLXe+1c7wAAAAAAAI2CIB8mh7Zeax6h7ND+aMGmuNuF4nSojslYqR5bpyPak8HidPYGZw46HfXeTtV429kdtHaWzVMbS/94sj98jz2KkGVUofJBDZNBk/hxnJfjOzbJU1u3yN4hnRmVlpb2pbLS6vwPMcyjCXKUy5aKf37x2ksy5WnqPmJ2bDxR2lkl12081a2/JM4v6nVb5fuS4QQiKwlmRsP1Htweqnm9AwAAAAAANA6CfJgEmqRzYatYQ5eVGH6sWITtLnxoDV2nh32baq1IijkGxTeDJTCjI6CTPe52hv+8VuPJdDpXkAmYjPKd3xW5cN6em1AHJLbulpGs7vxfJp1lUnzCZMeEkpkrs/3Or8L2EixMeTrPKZ21lIyk21nAdTtuAspz3Oqv3PlFLM+y8/eNx30p7rkngOvdRzWvdwAAAAAAgMZBkA8NL7N4mdyZEhk5WGJOOB/RtntXhkf0/63SHpiR0VQwLJuZo0lt09pmrSjiHIMONL7uGsIsl8ESmNHh36kad7sLY2PW/6nWuYFDy2XaCs9P+XDMnrervVPm2muKZUoMVxdzGNR40pL2nV6sSeb2LC3T+R3VPFmm5+UyjzwuvCu7Dg6rhaDjyctl1YQ6qLTMvtmnbary71xq5i0rOL+47cVWYXmagEMSmXBlRWpn8a/bykQvz3j1l8D5RbxuneEeq3ZfspRqu0njeq+p6x0AAAAAAKCBEORDg5sni9rTIiO7I865FH27468dNAGt1fJgQYdupq1XHly/WlauWeJZf/yE7twVaelaK8vaXB2yuiO2Z62s1McgY3JotzfQ6DdkmofTYVowR1Lc7eTYe2LFMFMLrXOY6zqJjHOsXatlUWFQ4MJxOWkCBvev6VXbuc9Rd/6ulXWrlkp3uaHqWjqk01U+9j7VcZjHlbp40Q4WtHTpY7QWLZm2JbJszWpryFYtqQ7ozOIOadHzcq2x693T+a/ObZnJkirNyarxBpYzbfM856A57cxqm4v179U+Tb09qMrfCtgohZ37cdtLkuWpAzi5v6HbjPs6SVrIdhb3uo0rbnnGrb/Ezi9keVb9vqSVzR5MDte7/bjmrncAAAAAAIAGcEXn3Us+N8uBLmXtDhy3GTOa5cyZUfOo8XB+jSGzWHdIixzaukn2R+jJrWw73VHqZ8z3783t2ZDrBC3mt02TdK5ZLXemhmXvxgHf4fCc49BzVeWDlHG3M9p6ZV1XcGd0dmS37NnxbnGHeWaJPLjKZI74yI4cVNsFBQucYzYPC/geZyzzZNl6k21SKKvKazgt98doD6WUbiuKKs9tfuXpEvQ3/MolqJ3p8h+62OpzfpW0lyTKM+BvZA/Kts3JBM/yorez6NdtJeKUZ2XXe2XnF6U8KzvO2Pcls112aIvvfH1J43qvpesdAAAAAACgcXyhedaXN5jlQJ9++olZyvuTP7lO/uM/PjKPGg/n1wAyS+S/drfKNSP/Xf5/b0XoIoy7nfLx6Fvy+slLkmmeKqlrrjFrxySr/tb2zT+Vf//YrHL58N/3y8jlJpk5NS25TbJjMnL0v8ue/8tvmy/L1//zHEllh+XgL98Xnz8ps27/lsxOjcnJ19+S0dwT4m5nfHjc59zsTuNXd/+f8rIqK7+/KR+/L4cPDMvlpmZJp66R3JbqOA69skv+ad+7/ttZ/qeM/nJYvqC2vUlt68iqbV/9h02y/32zomIX5D11bl/4f0/N70fXwSv/l+x56U35ZNbtMn/GmBx9+biUz0UJx2krep/XuMolq/b7W73ffb8p27H98egZq1xn58pGHfPQf5fX/7W4Lux2dqX8v/43/dxP5Le/PSJDu3+u6u1DufneDrnpmjMF51dJe0miPPXfuFK1txmqvdlrdL2/c/At+fcP/6e9IjHR21n067YSccqzsuu9svOLUp4Tc1/K/KdOVWbXyG+P/kzeS+qiLoHrvZaudwAAAAAAgMZBJl8Azq/+2ZkMwVkJQeJuB9Qnk0FDxgwwCXC9AwAAAAAANBLm5ENjauu1hirLDu2PFqiLux1Qp6z5wtT/RfOdAWg4XO8AAAAAAACNhSAfGlCTdC5sFT2Xz55Icy3F3Q6oYXpOxPVrZdnieZIxqyyZedLZ48zxNSxDtHmg/nG9AwAAAAAATCoM1xmA86tfmcV2R+bI4AbZdcysDCHudkBN053+qxZKyjwsNiaHtm6S/aT1APWP6x0AAAAAAGBSIcgXgPMD0DiaZG7PMmlvSec7/9V9fWT4gLy+712G7QMaCtc7AAAAAADAZEGQLwDnBwAAAAAAAAAAgFrFnHwAAAAAAAAAAABAnSHIBwAAAAAAAAAAANQZgnwAAAAAAAAAAABAnSHIBwAAAAAAAAAAANQZgnwAAAAAAAAAAABAnSHIBwAAAAAAAAAAANQZgnwAAAAAAAAAAABAnSHIBwBAkmbeIc89fa90mIcAAK/m5SvkuYdbzCMAAAAAABAXQT4AvtLLfyhrX/xH+Va7WQGgvPZ75bkn58t0vTzTWoMEjed9qbn9Dnn06RUy8GJf7kcHa1e0p80zEE9aVjyty3OFrOCaqDKn7FVbXl57AbXpty6RAQJ9AAAAAABU5IrOu5d8bpYDXcqOmaW8GTOa5cyZUfOo8XB+mCi6E7v3vrPyygM/lJNmXbBF8q0X18iXzaNARzfLph+/bh6E0SzfePopWTDtnBx+4gfyxmmzGiXoztQe6ZIj8tjjbwpXV71JoP50Bp8V4Dsl/Q+8LAfM6kbQ8Pel9ntlYNUs86DA0Vel98cj5gGiM9fWtMsy+MR22c7rSQQV3pdy9ySt9u5LOpvvmfumyNmXdsgjO4s/awAAAAAAgPLI5ANqSrN8bf40kXO/k6xZU1L77eU70pXLZz8wS2HdJFPUYci5t+VXdMgCIaRlxWrdma4DGY0V4Gv8+1KLPGoCfGdfelUee6Bfep2fJ3ZI/55L1u+AunP61/L2OXvx7Eu/qbn70ujO7dJ/VGT6ffeQ5QkAAAAAQEwE+YCaYjqxz/9OQn2nfeiHsumBv8z9DLxk9+a9vzW/Tv/8w86I3/+f+SWZov8PexzAJNe8/B7pUtfu2ZdeacBMpQa/L828XvTpybkj8vzOEW+21OkxOaB+gPo0JtsftwPWj6i2XYsO/PhVOayu7K7Vd0izWQcAAAAAAMIjyAfUEpMB8/4vowxhl5eabqW5yOXf2o9ju9HuTI+eaTOZXS83WpEC1KdK6q9Flt+nrhgrSNSAASHuS8AEmQyvKyOy86XLItPmy/Ioc23O1HNoOvMNMm8mAAAAAGDyYk6+AJxf47DnkpL8HE4zF8m3VnfLl6eZnrNzh+WVLT+Ukz7ZN+n2H8hffHuBncViOSfvv7RH3tr5eslMkrTax9e61T5unWZnniiXj+6Vf/7xQMF26liedh1LSeo4S86H5cyDVe55jmaZ/fB/k68XHOMv9wxI9nZdZtOszJufD5lfVqi5/V556NuzxOrvD1A4L489X4/k53Ga2SIruhfIbbdOMXMMqW2OvirP/7gg+0bze+65U7Jny8tyoFSmVZTt1Dk9V+acchKf1yutyvQ2VabXqf3nalCVx2H/8jCa2++Q5d+eLwtyx1xqm8L5oNLS8fA90u0p/yNq28K5ouJu5xK3/qKUS1L1Z+ZzizKvFPelINW5LzUvV/ej+1Tdm8eBAuo92nVki3I/m/Fwn/Tdqkp3a7886z7Xmap9q/9GC7ILO6zn+8x5F3Advf2zt2X7kH9riX/fda69/DWlr/M9e94U6Q44vgrxuuJun87ch+ZhgeD7U+X36zj14OHMHRhwvfmx27x5YA2TnGzbAgAAAACgXpDJh4ZnZ5GclUunxepYX/vkGm/ntV4s6hjSndz/KL2r3B3p2jT58n1rpPfpXvH/3rjuoP6h9Kp9LHB1UmtTbr1fel/8oXzDPe+MHn4uVEe6Um4+LGcou6Nvle9In9kr/+XFp+Qen2O858kfyO16/i05LL9JKMDX8fAKeWZVyE7LALpjduDJJdLl6njU9HJhx2Pgc6fNkr4ng7/1H2e7Ss4ptpkt8ujTPaZMPTUo029dIs+8uMJnfiPdkduntnEHJrRS2xhqHzPMPvsKy+bW+fLM0wHDrMXcLm79xSmXJOqv4+t6PrfL8vZbAR3YPrgv+ajqfek6T9sKr4LryKXc/ezM2cvW42nT3TWq9r1ate8newqugbR8qUn9d+6UHTC2qOeq+27QddS1qkceDZE1Ff6+aweKCu/z+jrve3KFdOvjSxivKwmLeb9Ooh5ycwfe+hXpsNcAAAAAAICQyOQLwPk1imb5xtNPyQLZKwM/+5LVOX756Gb55z2vy5jVGdoss9tFTg65y8LJPDHZMW85z1VmLpJvrF5jde4WZ5OYfVkdXWrbrf+HvKX+rn31qP0s/658/b4FMuWcOpbHCzNnNLPfwN+X0f4DWavP76V1Zea6cs5PUft6ZctALlvIyhDSAQT9IO5xFDJZTtY37be+ksse0ZkwD62aL9PllPQ/8LIcsNZ66c7RZ+6bIoePnpIFt6q/cU49d8vbkp8jKy3NM8dk1B0Mce3v8EuHZadrji0r20B3Rvp96z/udjkt8uiLS2TBOScbYryY/ehFVR6DnoyctHQsv02675sl5woygJyytM5P1cOzzjYzW2TF6iUm+6OwLuyO+3xmSGEd3mt17mrejKO42ymx6yFeueTFrT/nXIPbcTHuS8WqfF9yc7KIQtR9vOvIFul+5lwH7swm5zj1st969zqzvZ0t5t1Hx/J7pM86hwSO08hnVXnLpVmVy3JVLnb7K3X/jMh1n+B1pTTnfMtm8lV4v45aD4Xs43RlWJajh+tcbQfbo2RRAwAAAADQaMjkQ4O7yWS83CZ/sWq6vL91nfzDj12d4zJa0JEuMvth3dF8WF554gfycz38nbuz6fTr8saWvaJzLKZM936nPb38v9kdmboT+gG1ba4jXVP72flD+YcnNlud175dUU7Gy/nfxerATk+3v3d/+WzpbkD7/JSjm2XT4/mOdG1sSB3j1sPW+cU9jkLN06+z/j+8dbsr6KJKZOhNeWTrKbU0S/6sTEaJ7ojVnXi9j7/s6ojVCjpidWflt53OyO3yrKtDVRsdetnsc4rcdntBhkys7aqvefkCE8jSnb4ve8pUl8eBnepYn9jh7YideYc8ZHXq253JucCEdnpEtj++QwZ1FoWqi+6gLDndEf5AYR2+LP1H7WVvxpFLpO3i10OsckmEmTPr3GU5Y68IgftSoWrfl2JJ4jpSQt3Phn6jaltpul5yNXqjzq46JYf1tVO0XuTs2Uv2Y01dK4890S+P+OzjwM7t5vq7Tr5UIusw9H1XlUu3CfAVlsuoKpdnc+WSHF5XxknE+3wS9eA1RW680SyWc/pN1bb6pfcB1c4J8AEAAAAAJjGCfGhsTgf1tGlyeavdwV3aIvmK1Vm5QO558h9l7Ys+P0/eb/9Nj0Vy+326J/2wvFIqy+T0675zbFlutI/1/V++bj+OpFm+FmYou5m98nV9frrD/8fB+7G6sc9+YD+ogsAAkePoq+E68WZ+VW6zAhpHZGdQOZjO8+nzv5rvJI+7XdWl5RvzTZBhS4msDk+HtWKCAHL0cECGxJhs/5nukA06P72/l32zMZxhBf1F3C52PcQsl4nCfcmrRu9LRSq+joxQ97NL8lsdGNNDKNor7GFhz12Wf9XXzrRZuSFWnUDLubPev5kLVM1MS0f7HfLowyvkuadXyMCLTtZdmYBK2Ptu2XKZGLyuRBX3Pl9a2XowRs9+ZJYAAAAAAEAUBPnQ2EwHtR4qzjuEXYD22+1skqiizDsVYPbXdR7SObn8W/txNCYzqMz8WOnbb7PL48ibgR3+YTNvwnI67hasulc6PPN+tcijZgiwws7pQp4MlVKczuZp8+WZF/uszuziHzOko1vc7arOZI3JR/K7CJ3pThCgZDn+9rKc1f+7ggpVF7se4pXLhOG+5DER96U4krqOwt3PxuR35/X/TiaUmXfv/CU5YN1T8wG6GdN16Z2Sfy1oS3rIxEefVtfMkz3Sp+cQ1POseeaqLC3sfTdUuSSM15XakEQ9AAAAAACAyhDkQ0NzOqjffytcx7DTkazntdr0QOkfz/xSTqd97CyTZrled+DKWbkUJ0gRcki91HSrx71EeYTMvIkiN9TXLOl70tW5+aTp3Dz6anCWA9CAuC95Tch9qQ442VN2JpQdyLYCUyaQaK9vkT+zsiALhou15lGz5yvTQzAefulV6X9ihzymfvTwhs7wi3WL15XakGA9OMFiAAAAAAAQDUE+NLD4HdSF81qNP5PxEjfjpuLOfEe4zJvo7M5qK8Ml57LV8fzYj73zFFXEyaI5+qrVkV3y53HXsI5xt/NTlUy40nNpBZk+/Xqz5MPJOok0t1zCKq6HeOXiEbn+iodVLI37UnTjdV+Kp1rX0ehbp6zrwdpf+1esoImVFXX61/K2anPWEI8zrxddNDrDL389OFlUl2Vwqz3nnJ4PTs87NzqOQ9aWLJdxwetKbUiyHi7Lb2NlDQMAAAAAMHkR5EMDi94xPHbW7qaaMv8OCZpFJt3eXPy73/7O6uaact93Zba9ptjMRYF/M5fxElO0zKBpMsV3HqZmmf3wGntYwDKZNzLTDAP3Yp88tzzwrGzt91rzPw0+0S+PeDo2t1sdz4l1xGqm81tuXSArogR74m7nK0agKXR5jsi/WlkTU6Rr9R2qxgLMTHt+5wQLgs8vLSu+bQ+tdvbIr5Otkyhi10O8cvEXtf6cYRXDbsd9yV+V70sxVP06On1JlZ7SdL10WFlOzpCcps3pwI8JKvoOPXnulLwx5FdiafmSWUpCvly+Ih3WmgIzneF0E8TrSm1IrB6ceVWjDLnckr/eH24x6wAAAAAAmHwI8qFxhRwqzmPoLXlf/z/tful9uldmuzrV0jMXyTce/qH0rnpKbrfmSHI5/aa8b/XGLpB7nv6B2s4VSlDLs9V2a59cI3+xvEyI4dZu+UZ7/jn2PtVxmMf+wmcGZc9aBylfXqWP0Vq0pNt75VtPPyX36GHflHKZNx3dZhg4Zfp995TswLSH4JoiN96efKd7sTHZ/rNT6v8p0vXkCnl0eYs0e44tLR3L75XnXry3oDM67nZu3kCTd34itX178PlHKc8De47YHep6nqen75UVnr+bluZ2dZxP9sgz7k5P1T73OMemz8+9zcwWWfF0j3RZ+z8le3aOX6ZPefHrIVa5eMSvvwO/tI/5tjBtnPtSkYm4L8VS9esonyX6Z3rePVd2oN3mrpM/+7p+dFnefstnf+paeEhfQ+Zh7jrQx2nKNBFOMEsP2aiuPfe1Y193yc87x+uKUua+VA2J1cPMr8pt+to5+hs5YK8pq3n5gvz1nkggFQAAAACA+nRF591LPjfLgS5lizuPZsxoljNnJizfY9xxfg2g/QeydtUCufzSOu88VeWY7YJcPrpZ/vnHrxd30M/slf/y5P0SlPly+ehetd1AQMd+s3zj6adyHVaF9FxcP8/Na1P6uTnn9srA44X7WyTfetFkxRQ6d1heOTJd7rlP5PATP5A3SnTMdzzcZ31733ZZBp/YLtuDnj/zDnnuyfn2EHYBzp47JW//7G3ZXpB10rx8hTxz3xQ5+9IOeSRCp7mzXSC1v8EtLxcdc9ztckqe6ynpf+Bl3w7MSOWplS1Tv7+RdgUh/JTaJviY/Oso7na22PUQq1xcYtaflVHy4hJZcO6IPFZu2D3uS7VxX3Jz6j1M/cW6jmyl2nwQzznpYR9/PGIve9pqcdsseQ2p66f/iEjffbPk8NZ+ebZgzrQ4x1ny2lH7O3x+liy4NUKdlFP2Wud1xVH+fCu4X1dQD27O3/drj0EKyzVqfQIAAAAA0CjI5EPDSk+3u50un40YzBz6oWx6YrO8f87OLnHozvBXnvhL+Qe/jnTt9ID8wwPr5JWj58SeocY4d1gOb12ntgvqSNdG5Y3H18lhta3bZd3BrfaZ70jXzHB/5fhmCr0uP1fn5tmPOs/31fENPP5DM3xg+cwbnTV12PyJsy+9UrrT9vSvZc9RT4kUmT5tlnSt6pFHCzORYhrduV16n3hVBtV+7YEOjXNmnqDH/TtU426Xc/pNeURtf1g93013cg5ufTuwIzZSeWp6Pw/skP6XTqm/bdZZ1HEfVcf5gF9H7Zhsf7xfHtua35et1DYTI3Y9xCoXl5j1p7Ntdr6ktrEyp0pntHBfqpH7UmzVvY7sjD3b4V+aAJ/mDOWpqfZaOP+fvoYe21pwHVjt2J6j74DnwkqAuXb0NZuXv153nvVeUxXjdSXEfakKEqmHFlmug3XnjsjOkAE+bXSnuod5rkEAAAAAACYnMvkCcH5AEkyGgJTKkElLx8M9VrYK38RH/SqfDQMgCbyu1IZk6sHOVq3gvtl+rwysmkU9AwAAAAAmLTL5AIwfM8/O2SO/DugA1MbkTNJZHkDVjcn2LXpeQD3/Vqk5tgBUhNeV2pBAPeghN+0AYPzMW3tewIB5KQEAAAAAmATI5AvA+QEJyM3Xc1kOb31Fdg6NeToDm2e2yDe6F0jXrXpenfJzCwE1r/1eeW7VLJl+TrVnPSyiWQ3Aq3BOtdJcrw+8rtSGCushV//uuSajco6hkr8BAAAAAECdI8gXgPMDkmEPxWUeBNFzC20pMy8RUC90x/PqKbJHtekDtGnAV+wgn8LrSm2opB50/T80/bA8Eis4l1bb3yYP3ccXKgAAAAAAIMgXgPMDktPcfocs//YsmTZtikw367Sz507J2z97W94oyAAAAKAUXldqw8TUQ4s8+uISmXb0VXn+xyPUMwAAAABgUiPIF4DzAwAAAAAAAAAAQK3638z/AAAAAAAAAAAAAOoEQT4AAAAAAAAAAACgzhDkAwAAAAAAAAAAAOoMQT4AAAAAAAAAAACgzhDkAwAAAAAAAAAAAOoMQT4AAAAAAAAAAACgzhDkAwAAAAAAAAAAAOoMQT4AAAAAAAAAAACgzlzRefeSz81yoEvZMbOUN2NGs5w5M2oeNR7Ob7KYJ8vWL5WW7EHZtvlVuWDWlhd3OyQts3itrGxPy8jgBtl1zKxEgCbpXLNa7kwNy96NA3LcrK0LmXnSeVeHzG5JS8qsyo4clD07gq+/uT1r5X71/OzIbnlhx7tmbQ1o65V1Xa3mQV6tt+GaLc+46rQeAAAAAAAAAAeZfJjUMos7pEXG5NDuaIG6wO0yS+TB9Rtknc/Pg2t6pbOtyTwRyWiSOa1p9f+YjH1or0mKDh6uW98rc83jWhXtOG+QtI6QZcfkor2iPujratVSudMV4NNSLQtlpbqufM9dbdOunq+lUjdIxlqqDZm0fVxewzJcy4GlGi7PuOqyHgAAAAAAAAAXgnyYvDJLpLs9LTJyQPZHivCV2O4GbxDCLZVqlTu7VsuDiwn0JccJWg3LiSh1WJYJHtZ8MCzicWZusNtn9sM6yj5tks6lC63j1hlk2zZukKfMz7bBYRkZ3u+fkXjhuJzM6oUx9ZzjNXW+F/Ztyp3DUxu3yCF9nLXe1mq4POOqy3oAAAAAAAAAXAjyYdKae5cOHAzL3ojDzpXazskM0cO95TuP1c/WLbJ3yB72NtXeWfPZYXVj3IJWTvCw1oNh0Y4zc3OrVV4jJ+poqMXMXJltHbQ9RKT7PC8cG5Bd+86bR4XOy/7N+vrbVOI5taBe2lq9lGdc9VIPAAAAAAAAQB5BPkxObb1yf4tIdiggCyhIme2mTtVBPp+hIy+cl+P7dtmZIpKWdCOMdVcLTOZk9mLCY3W23Syqmms/GBbxOAPbZw2ry8BkFPXS1hod9QAAAAAAAIA6dEXn3Us+N8uBLmXtDCS3GTOa5cyZUfOo8XB+jaxJOtesljvloGzbHGUuvnLbmd+nhmXvxgHfIODcng1yf8uYHNq6yXeI0Exbr3QvbJWUjmpYxmRk6IC8vs+bweSWaVsii9Q2LSk7i1Bvkx0ZlqHXXpXjvhuZ48zulqd2vGu2X6i2t3+bzaptd6vjD9xhk8y9a5k1P1fuMNU2hw7ul/3H/DJ8vPvTj+cu7pT2djt4o+lhGPcUZGnlqef3ePeXHTlond/Fm9fKyva0lTm5q6J5tObJsjUdrjIsJaB+I5dLHJUcZ2H7jFoP8dpndGHPseD81LGt62o1D1yy5a7z8Wufx2/Qx5QOvN41PafiynYp+ZwkRL5PxC5PR9RymRz1AAAAAAAAACSJTD5MPm2dcmdKZORglACfUm673LCC7/kG+PRcfu06VcR3/jgd2NggK7vcARQtLS3tS2XlmiXim/zX1qu20QE6d0AkLamWhXL/qrWyrM1n/j9znFm5QTp71prtze8UPXeg3rbTZ4c6yPPgqtVyvzuQpZWab9DZn862U2Xw4Hq1vavjXku1LJVu323N8wv2Z59fryzS89HJsAxXFOBT9LCfoQJnis+cXbHKJY6KjtMZjlCtj1oPcdtnHFHO0cUZKrdQttz8cePWPtX1N0cHycZkrMQB5LIrI92MIopxn4hdnlqZ69a3XCZDPQAAAAAAAAAJI5MvAOfXqObJsvVLpSV0NoojxHYm8yU7tEVecM9ZpTO8bs5npBRnnZm/LSYr6r135YKzg8w86Vy61A4uFm3nZGap7QZ3qd85+2ySTFundOuAjPqbRZkp5jht9ravq22tp6j9LVP7s4J+I05GjeHazptRo/a3uFNWqvPTfy9of1l9H0mlJZUdlr2798vxC/p4dfaN7pxXi4X7y5WLosp97+58xpGVUWadnxK5LsuJ2EbilkvFIh6nDoSsWqgO0l0PTsZmmHqI2j6TEPEc3Uy9lD2uCW2f5m8U/e0kxbxPFApbnq5yyWXShSmXhq8HAAAAAAAAIHlk8mFSySzusIIVh3ZHCxiE2c7JfEm1r5Z16zfkf3SGlxXg00GSLUUd5HN7dAf1sOzdukl26WEP3Tu48K7s331Q9FR+qXRANlh22ArS5Z2XC8cG5IWNW6y/Wdhxn8vQ0Z3eG9U+nQCfpva3y+xPUje4srPmybIuO5ClO/lf2OEEsjS1/b4B2TakvwyQltk3e48zVy46i0id/1ObdWDJOd7zcvw1s78CdrkouuN9c77jXrPOb3DY3i77YaS6LEtnkun/Q/3d+OVSsUjHqZ5u5rbz1oP9u/L1UEH7rETEc3Sz291Y2fkHx7N9Wkoduzm/xOeU9BPxPlEobHk65aID3i/sCC6XwozASVMPAAAAAAAAQIII8mHyyCyR7va0yMiBaBlVIbezh3vzo4N7u2WbFSRxd7Jr86TV6qHWQ2S6AoOeIOFCO9BR5LyMWdGVhdLdM08yReMlnvd0eDucYekCA5YXPizqTLeDnGJlKQZl8Vx4zw66pabeYK8wnHIZGSzIcCzg6WBXZW4PbXpQtpXIrBmXjvkb7CH/Rk6Uz+ippFwqFuE4tXw9bAhfDxW1zwSYc4xex00yRw/lmvUbGtdrPNunVrJ+nPMbC95v5eLdJ7xClqerXHRGaymF59z49QAAAAAAAAAkjyAfJo25d+lgxLDsLdMZXCjcdk32fGf6eRs3yFP6Z6vJPNEZNIUZUI62m+0slJiO79gie0fGrLmqVlpBmLWybPG8EvOjOccZbe4pJzB48r2oneD5chn2ZBHlORlm7g723LoS8385mT9Jd8zPdebvChFXil8ulYtynN56sFYU8auHSttnpZxzjF6+zvyD5TIAx7t9lq4f+/wSmFOyjOj3iULhyjN+uUyOegAAAAAAAACSRpAPk0NbrzWfU3Zovxw3q0IJvZ3pBB95L/+8C6/K0Ij6P9UqcwJ6051Alc6usgKDJX78s1vOy/Edm+SprVtk75DOGEtLS/tSWWl14vsNn+hznIWKhkgMGRj0zbpyggNjctFeUcQJlLk74csHz0xmUeId8yHP1VJJuVQqynFq8eqh8vZZiajn6GKCk+WzHMe7fZY6dnN+JfadnKj3iQIhyzN+uUyWegAAAAAAAACSRZAPk0CTdC5sFWsIuUiBiAjbmU7wwkDO8RN6Pqi03HnXPHtFgIrnM7twXo7v0/NrbZCntu6WkazuxF8mnYXBxYDjdLMzF8MESNxMWSm+mWCBGUBxAznlgwLxmL9bKggaSUC5VCzicZad2650PYzLfHtlxa/jMNlblgltn85zSmfHJSrsfaJA6PIsJzNXZvuVy2SrBwAAAAAAACAhBPnQ8DKLl8mdKZGRgwFz0AWIsp2T8VQUyDn2nuhkPmm5WeZaK7wujI1Z/6da5wYOnZdpa/L53TxZpufXMo88Lrwruw7awcV0wTRwgcfpMJmL3gw5M6eXtEprm7WiiFNWOiD6uiuzLpcJFhgwLNUJX3z8tiaZ27O0TFAgJicYFkr8cqlYpONUTzfDGkath/jtMwFlA5PBcllfZTac0PYZIuBeuXj3iUJhy9OWltk3+wSFM/Okc6mZv7GgXBq/HgAAAAAAAIDxQZAPDW6eLGpPi4zsll2RgizRtvMbSs72rgxbUb6AQJATBEwtlJVrlshcV298RneK96yVlV2rZVHBtpnFHdKi59das1aWFQZZ1HbLTPZYIfs4RVq6NsiDnjm5dIf4WlnXZW83MjjgyRCzMxL1dvb+cpxj1GWlzv/Qbm9ANLhcDKeDvWBOrYsX7eBSS1evt0zalsiyNatNIHIcO+ZbOqTTdZ52Xaj6MY8dccslMSGPM249xG2fSSgfmAziZH21SrtrKMpM2zzP8Wu10D51ADX3NzLqOnS3owrFvU94hS9P53pIta+27i9z1fk47eTBVUvtgLdSWKeNXg8AAAAAAADAeLmi8+4ln5vlQJeydkea24wZzXLmzKh51Hg4v8aQWawDLSKHtm6S/RGiLNG2a5LONavlztSw7N3oDY5Z2nrt4Fn2oGzb7BPscX4fIDuyW/bseLdoO/sYded4ALXdNs925jhlzJqTK2U63Atlh7b4zq82t2dDrtO82JhPWZUpF8U5Bz3nmzeYOk+WrTdZOIWy6u8Np+X+GPVannPM5mGB4uOMUy5JiHKcldSDErN9Vsou13jlF3RtJFcuSbTPgL8RdJ+IKfp9oli48rQFXQ/ZkYMydLHVp1wmRz0AAAAAAAAA44FMPjSuzBLp1h3TIweiBQkib1dqKDnl2H45pId1TLXKnILMF8uxATM/ljeYrjvF927dIC8EdMBf2LfJ2u7QiA7a5WXV3xkZ3OLTce8c5wF5YfMW2Vu4nbO/gPkHj+/YINsGh9XfNys0va+h3bJto18neplyUYIzeN6VXebccpzz2jxg/p7aLkq9hnJe9quy8exXyeqAgSqbogCYEr1ckhDlOCupByVm+6xM3DnYbBf27bLad55dH94hUye6feq/cVCVq3mo6Po7dLAgm7JC0e8TxcKVp82+HtR56f3pfVjtZItqJ8cl3WrK07PDyVEPAAAAAAAAwHggky8A51f/7IyS4OyQIHG3q3mZJfLgqoUiAZl6ADB+TMYcGXIAAAAAAABAYsjkQ2Nq67WGjMsO7Y8WqIu7XR1w5jjLjhHgA1Bd1vyA6v+ieR8BAAAAAAAAxEaQDw2oSToX2nPg7YmUsRZ3u/pQckhGAKiEzhRev1aWLZ4nnlGJM/Oks8eZ029YhsgiBgAAAAAAABJDkA8NJ7N4mdyZEhk5GG1IuLjb1YfK5jgDgPLS0tK+VFau3yDrnJ9VS+XOFvsLBoe2NtgQyAAAAAAAAMAEY06+AJwfGgvzYQEYb00yt2eZtLekraGBLer9w8jwAXl937vcdwAAAAAAAICEEeQLwPkBAAAAAAAAAACgVjFcJwAAAAAAAAAAAFBnCPIB+P+3dz+xUdx5osC/0dM7L876MHay2M7MkDM4ZMizYuVFoBFDNEHa5wh2L1yQEisbJCIkyIXHZUCKgpR5Iw8SFy4zoHCBURg0ghMRChPG9m2lzZsJNhvsaAU0e3l7zKvqrm53t7vb3eX2n3Y+H8mhquxyVf2qqsv5fuv7+wEAAAAAAD1Gkg8AAAAAAAB6jCQfAAAAAAAA9BhJPgAAAAAAAOgxknwAAAAAAADQYyT5AAAAAAAAoMdI8gEA9JqhPXH+7P4Yz2YBqDU8cTjOH9uRzQEAAGxNknxAQ/0Tn8T7l34fvxjLFnTR8NieOHH2cFy5NFn5SoPVh8f6s58gn/44fDZtz8NxeChbxDopt31yLU8IKLLGxvbH+TO7YjCddq933Vo+/1grnn80Nrhzb1yR6AMAALYwST7YZErBxQ/j5Wy+tdfjF5d+XwxGtvw69nr28+0ajp/uGkj+XYzCt6UlXTO2P84d3RWjA33ZgpLBgZF4+5XnszlYb1mA+Oye5OrPYegnsTu9ZRKDB36suoomVnmdpdIKvqMjMRgPYurUzbgzny3fArb88w9YV3NXL8fJG4WInXvj/IQXyQAAgK1Jkg82lSy4uPgonmRLWhp7NV7KJlspLPx7NtWuf4i+YozzfvzfrgaQd8SJoyPFqYUbt+Pkkak4VP46/VlMXXta/B70nPm/xv3F0uTCjb/FndIkdFl/HH43reArxPXTN7fYdbbVn3/ARkgTfVOz6Qs4+1R5AgAAW5IkH2wqWXDxu0fxuLSgtbufxG+O/FPl68qNUpbhm4tLy9Kv312dKy5v29ALUayza3c/2jX0fKSHF4sz8eurX0fNXs0/jjvJF/Smx3H5VClhfTy5tmEtDE/si7eTD9GFG7fi8pZLQG3x5x+wYe58ejumkzv77XdXUUUNAACwSUnywWaSVSZ885cvSvMd+vvBYvnB6rsYe7EU5Oy8AgJ61fPxYjEDDWtpNdfZjpg4kHwyF1+S2ILpJ88/YM18HVfTbjsHdsVEJ2NtDqVjSJfH29XdJwAAsDk998abe7/Pppt6+mR5MGn79uF4+LDDt6N7iOPbOtIxfg4diJg+/WF8mVY+DL0ev3j3YLw0kEVaF6fj1oVP4t8aVEX0j30YP39rtFRdULQY39y4Fl9d/aLlG/79yTZ+ejDZxs6BUkVAojD7h/jTp1fq1kv25WzVvrSU7OeRZD+zueXS8Ynei5dW/Lmy4Xj52L/EK3X7+JdrV+LJq2mbDRQrIv54N/tmTsMT++ODA+n4USuYvR2HPl1eATU8ticm3krH8MsWRCEWZqfj18nPNruChycOx7nknF8/fblU7TK0Iw4fHI3dO/sq+7GQbC/9HduPTcbkzqR1L07Fx9XHOtRffNt7rq66cLz482lXednvLmu0jcUHcf/z+3H5buOrpZP9rD3WZN/GdscHbyXtmrXLwuxMXLt2L+Jgk/1bpeGx5DxWba+RhRufxfGq5EP+40s0ac9rF1YYg6yT9ZJjOr/CMVXUXJ/puGrvFCuqGqlvhyXZejETJ0/dS465P7me9sXBmvaYSdoj/V5jec7D6pSvtW3JNiufFMl+rnAPdnTf5m2X1bdn7uusk3bJfZ3VSX7PlaMjHZ1fz79m1uf5l1r/z8HkPpjYHQd3VV9z2bV5LdnGsvVq76N0mxPvji6Nm7tYiOnPbyXPx+ZnfX3u97L1ef6VnvUN/jaokR3LwIOYOrK8+9yO2iUda/PMrhhcLLdLvfK2Gh/fqq6zNjVtkzX8e6kb56Gi3MatPmfrlLdf0v2/rQAAALpBJR9bXunt/oV4mvxPeRrwfP/Me7VBxXRy2f+wp8HH38eho9UBztRAvHTgvTh09lA0fp83DRx+EoeSbYxWBQ9TfTt/GYcufRKvVY8HknYL1laAM7HSOEXlLsZmv1o5wDl0KP750q9iX4N93Hfmw3g1HRcppuNvXQhwRmyrBHE6kwZtJuPc0eoAWaovBnfujXOXDrc1tkoa+LpyZm+8XRVMSqXTaaDr4UKhOD8wWH1Gk22/+06cO/NO3Zvb/fHCj5J/Fh+UAuZFyc8ea7KNgZF4++g7caKNt8ZX2s8lpWDWuaO1SYPBnbti8szhOJjuX5eNJ8dXv71OtX98LX42ac/JM83fps+z3mqOKbeBvtg+tCNOJOdxsn5fk/N47mzj7sS6cR46ku1jaZs1nxQt7sFV3Lc52yXvenmvszzt0o1zNv5KOp5pIe5/1SrFVsvzr4F1ff7VWvvPwew+SF+sqWna7NpMnhEnml3XybU8kX7GJNusJPhSyfRo8hy7cmxHtqDaet/v6/f8u3NtJrlzIkbfatG949BPYne6H7P147Cuol26oJPrrBMb8ffS6s5DnfLYuTt/HOOlJQAAAFuCSr4mHN9WMRyvnf1VjMYf4srnLxSDloXZ38afrn0Rj4tBh+F4eSzi3+5Wt0W5IiCrWviq/LOJodfjtXffKwZtlr/ln22rGNBJ1r34f+Kr5PeW7p5kOxP/GK8cGI2+xWRfTtVXNKSy7Tb9/grGPoz30+O78dEKYxCVjy+RbOvWhSuVKo5i5UYa2E1n8u5HKyu+qb4kDVKdS7umi0JMX6yqIhjaEYff3ZtVUTV5ez5bd3r2QYzuHCkGmaYu3K8a868/hocelyoasuqYmgqa8n6m042WVy8rV9cUqytqtzE+sS8mi8fQhf3MLL1VXtsuw0m7TCTtUrr+uvi2ebl90t+ZbK/8ln1aofDB0bSNmr85n+f4qrc3fWM6rlaN3VisYkuDu42OL+96FTvixKWk/dq4NpspH++KlXzFc5Sqb9P9xeB1alnVQtXxdXoe8snaI51Mztv1mgqLrFLowEgs1u1nvvs2b7t0pz07u17ytcuSvNdZ+Vg7Oc+ef8ut//NvPT8HK/dfcRvJdVL5XrKNrPotZuo/n2rvo3JVXGnd6ufY8vtofe/39X/+rVRFVvp+i/PQSbt0pZKvw+usU+Xrcp3/Xsp7HhoptVNVxeNKkuM48W4pWdvdKnkAAIDuUcnHFvcPWSXC7vj50cH45uJH8btPq4KWMVcX4Ix4+VgaAJyOW6c/jD+m3ZJVBwHmv4gvL/wh0neZ+wZr3ynun/iXUoApDQ4eSdatBDhTyXaufhK/O/3bYlCxYYigXInw3aNcgcX+wdI70YWFVgHO8vElZn8bvzm1FOBMPb6b7OPF6eLx5d2PrhjaEx9kAbI0EFMJkKXmv47Lpz6L6+nb2DESB5tVJSTSQFcalDl0Kg12Vh9NVaDr7t+Ss5340fNROaMvpm+YP4jp2WR62fKIhYWnpfnU3Ztx8vRUHG+wjTtXL8dU+jtiW7zQ4q39tvYzlbTLwSzAWd8uc0m7fFxpl+4ZHtxW/Hf64uWqZEayvbv34vjFB8nUSPxshUrFto8vDWKmQehEur2PqwLbqbmkrUvb7Ivdr9ZVEuRabwOlAdgj9W16M7te6islunMeOjE8MZolstKA882abZau7aRNT39WG3Dtxn3bYbtUdLRe/uslV7t0RTaW32IhHpYWtMHzr95GPv/W/nNwycJMmkDJZoqSbaTrnUqeVS2SFMUkxqflBF+q9Bw7mY5llhh9paqab73v9w14/lWqyKqPu2JH/Czdn+QYlirVEl36+yWv9q+zHDbo76Vc56GlvnjxxWxyJfP3kmtrKg4daX3vAAAAbCRJPra2cuBwYCAKF0uBx9Zejx8Xg0ijse/M7+P9Sw2+zvyy9DtrvB6vHkgjnNNxq9Xb//NfNBz7qOjF0r5+85cvSvMdGY6fttPF2NCheKUYDPlDXPm0+XaK4amFfy/NbIQsOBSz003etH4clz9Pg5wRg7t+shRUqjd7u42gzNP4Ng24pV2HlRaUusVbLMSf066pBkYqXcyVEy2LC7W/sxI4G+qP8bE9ceLY4Th/9nBcuVSuOlghoNTWfiZWbJeN0TTxUtbu8ZW73FqciavNruMsyFhz3vOut2EKcT2tssnmqpW7Q8tjxfPQtv54bVcWpL7QotqsJkibWPV9m7ddOlwv9/WSs102iudfrY1+/q3152Bi7qsHxWTI4IF9cWJiRwx31CVkoWlXsOXf2yiJs273+0Y8/yrdO44u715z7MfFhP/CzF9rPwu69fdLXu1eZ7ls0N9Lec5DE3MLz7IpAACArUOSj60tCxymXXjVdi3WxNirpbf8O9XJeEBNvPxKGqZYjMK3pfnOZBUbK4xb1P/q7lJ7zNxrGohttyJiLZWDQzVvgNf7tlAKOlYFm+q1XL/icTz6Lv23XAmVjSPz3dO4UwwGLQWctg+mrfcg/lx3LaVdJp44OxlXzrwTk+kYPOlYM8l+tau9/WyzXbqsHBAbPbo/xquDa0M74kTWpVp9EK9e2/tbDo4O7Ipzl5L2bPiVdZVYLe96PaQb56F9WdVYPItHHQTTu3Xfrrnc10u+dtkwnn81Nvr5t+afg6n5e3H89ExML/bF6IF0DL7s588ezpH0a6Dqvl3v+30jnn9LCblm1eMP4lpdQm2jPwfXtn026u+lzs8DAADAD4kkH1taOXD4zVftBezKAb50vKHfHGn9VTPuTzmYmvvt/+F4Pg2UxEI8zRM8brOrs78fLEZCW7RHmxURW0y5aqBUCVUK5BcDZVkgrrS83CVUXXd5xfGDSuO1pN1FTd+4HVOnP4uTyVfavVO527GeVek6bSQmywHj9OtMFmSevd282oTucR7okOdfrR/M86/cvWDyDJq6kTyTkmfWwsBS0u/8sR3drx7byu7eL3avOXhgd4xniyrVlrN/a1iJuJVt2N9LXToP5SQsAADAViLJxxaWP3BYP97Q2ssqEfJWQqw6yFrWXkXEehkcfD6baqBc7VAfRMqh0sVZur2s66diVVTWRVSxS62h5yNtmvSN9aUQcbmKqhDXL5bGwEnHT0rHmplbwy77WrbLmigF9YqVBxWFYoDu5Ke140WtSrm6YfZ2MeDX8utUVXeJeddrZA0qK7pnnc5DReuxJJtZr/s2t1VfL/napUbH19nybvJa8/zr3CZ5/nXr8yx5BqVjRH586nIcT3/29O2YTp9nO/fGB52OBdfivl3v+339n3+P48uZ9LN3adzT4VdHkuNKnvvXvi4taGDTfw7mtHF/L+U7D40V4ttcVcMAAACbkyQfW1jnAbvHC6Xwed+uPdEsBNY/Nrz8e98+ijT00HfgH+Pl0pLlhl5v+jsrlQg5dVaxMRB9DceHG46Xj71X6q5thYqIGMq6W7o0Gec7DRa2oTL+T6PxV4rKXTRF2+OwtDT/NGm9xI+ej/HiW97lLqayrqnSwHoWlGvYFdbig/jybqMW648XsqluWGqXHy+9yV5tqNydYBeN7S+Ok3P99FQpUFz5ulwM0K267au1GnenlbzrNdSFBM5a6MZ5aPu+/Tr+XKyo6Iu3393TvOpnqL/me+t+3+aV+3rJ1y6NdXqdlbvJa3c9z7/GNv/zbzWfZ8NjLar05r+Oj8tjwTVJQDUeO7bxfbve9/uGPP8yc1eni2Mgjr6V3vfZ2Jzpc79BAj13u5T/DmmSyB+e2Bdvr9HxdWQD/17q5Dw0Vh5X9VkHXS7vWLrfj+3IlgEAAGwuknxsXW124VXj7lfxTfrvwC/j0NlD8XJVgKZ/6PV47dgncejor+LV7C3iivl78U0x6jEa+85+mKxXFWZLpl9O1nv/zHvx84kVQr87D8ZrY0s/U9pmsh/ZfGPtV2w8WSjuZLx0NN3H4mRR/9ih+MXZX8W+tHulxEoVEeMHs+6WEoMH9nUciFxR0p7XysH0M4fjxFhVIHVoRxw++04W7OrWOCxLVTI/S8eRqXq7/s5f0qDotvjZK+lcIe5/1WB7A7vig3S8o2w2DSQNj+2P8+l+Zm3aFeXgb9pl49nasdmK2yt33dhFpa6t+uLFmnFw1srSuDvF875sDKn+GJ9IjvNScuzZkpK861WrTeDUjnuXrF99DW6AbpyHTu7bO9dmSoHqdFyw5Fo7XHP82fV95p04Vx30XPf7Nq/810uudqmR/zorfRbVj0nVhOffMj3z/Mt7fQ7tiQ+O7o1zlw6XuuRMrqdqw1XjdzYet60vRo9m28uWtLxv1/t+34Dn35Kv4+qNQnJvjMRrE6UuIpsmLnO3S/Z3SHp81V2qJufx8LHDce5A8Y7eBDby76UOzkMjebr3nBhdut9zJN4BAADWw3NvvLn3+2y6qadPlv9P2vbtw/Hw4Wrfy928HN8WMPZhvH90NAo3PqodP2gl2XrNFGZ/G3/69IvlgdOhQ/HPZ35ZCqw2UJj9Q7LelSYB1+F47eyvKoGEeukYSX+sjBHU+mcrFv8QV07Vb+/1+MWlrFqh3uJ03JoZjH0HIqZPf9jyzejxY5PFqqKSQlw/fTkut/NW9NCeOH9mVwwuzsTJlbpNjP6qYFgjzbc7PFEKiC3c+CyOtxlcrDmmtJu0T7Pun8r7XJx5EFNHbtYEh8rbamgx+fmZiMkDIzF9cSo+rhvnKc9+1u5PnWR709+NxOjODs7JSlptL7OQbPf+5/fjct3b+bmOL9GyTVPJ9q5fuLns+PKuV9HyWJef+3orH2/5ms5x7a7iPJR1fN+uuM1GvyPPfZu3XVbRnonc10uudqmS+zrbEScu7Y3Rdj4/Pf82zfNv5c+FxvJcn8Nje2LiraUkZEPLrp+lezbNgxaHLlym2XGu5/2eaHXvJO3R9edfjez+K06v9DzI0y6Jsf1xJUvE1kvb4trgO8m113jdvNdZHhvx99KSTs5DrfL2W//+WvX7vB7tCwAA0CmVfGxZ/YOlMENhoYMAZ+ruJ/Gb07+NbxZLb/2XpUHKW6f/KX7XKMCZmr8SvzvyUdyaXYy067KKxemYvvhRsl6zAGdqLr489VFMJ+tWK6SBx2SbSwHOVNYN20oaVnB8EX9Mjq1mO8lxfpPs35VTn2Tduq1cEZFWs6Rj+6QWbtxag2Ba6nFcPjUVJy8ubaukEAuzt+Pkke4G8UpvoJdM/6VqfJdy11SpBuPnzF29nOzjg2JwtCINvmZjztwplv100fy9OH76dlyfrb7KsnHZku1dXai5+lZv/q9xrWZbyw0OjMTbR9+JE/UVPjmlbZqOH5UeY03zJe1fPs5G5z7vehVZ204nP18tTZ5dv3i/7UDimujCeej4vk3b48hnMXWj7vpueQ+u7327Grmvl1ztUiX3dVauYkkrYVpX83n+9frzL9/1OXf3Xnxcuf8aXV+fJes1SxAX4v6FdN3a63phdiammibN1vl+X+/nX41yFW5ixUqwnO1y9+ay9i8mv9Jumq8+jodrenzt29i/lzo5D9V2xESarFuciattJvhSxS5Ca84hAADA5qOSrwnHB5BVI0SryqH+GD+WVhekAW9vuK8N54GylaugoDOuqXaVKti000bLcx5Wfe6yKkvPVwAAYDNSyQdAY9n4Na3HvNk81QVblvNAxeO4fCEdFzAd76vVGJNAVw3tiYNpF5WLD1p258oay3Ee0i43Sy/A5K+8LY2L22ScQQAAgA2mkq8JxwdsFS3HwVmmaoybyvg6hZi+eCuu3n1ck2QaHtoRrx0cjbd3pr+7s7Fx6IDzQL2x/XH+6EgMpl35pd3cZYuhc1u7ki/3869KOtbhB0dLY811Mp7bZtaNdllvec5D5Thnq8YO7FT5Gbya3wEAALCGVPIB0Nj8vbhWHPumL0aPvhPnLk3Glaqvc2f2lhJL6Zg6pyUa1ozzQL27N+P46bSiLzFUXAJ0U5rYKX/GZomldDy9rZDg6yldOA/pz+dLzvXH8MT+UoIvfaFCgg8AANikVPI14fgAStK35yfeGomBgb5igK1sYfFB3P/8fnxZV1nG2nAegO4zJl9D2RhsRYuFmP78VnycfMayzjb0POyIE5f2xsDs7fj1p197vgIAAJuWJF8Tjg8AAAAAAIDNSnedAAAAAAAA0GMk+QAAAAAAAKDHSPL9QOmqEwAAAAAAoHdJ8gEAAAAAAECPkeQDAAAAAACAHiPJBwAAAAAAAD1Gkg8AAAAAAAB6jCQfAAAAAAAA9Jjn3nhz7/fZdFNPnzzOppZs3z4cDx/OZXNbz1Y/vtT4scmY3JnNRCEWFp/FtQs34858tggAAAAAAIBNSSUfmb4YHBiJyTP7YzxbAgAAAAAAwOYkyfcDdufTqTh0JPs6fTuuL6ZLt8ULQ8VvAwAAAAAAsElJ8lEy/3V8OVPIZgAAAAAAANjMJPmomFt4lk0BAAAAAACwmUnyUTE8uC2bAgAAAAAAYDOT5KPOs3g0n00CAAAAAACwKUnyAQAAAAAAQI+R5KPOSEye3RPjQ9ksAAAAAAAAm44kHxVzV2/F1GwhFgZ2xeSZybhyaTLOT/Rn3wUAAAAAAGCzkORjmcHsXwAAAAAAADYnST6WjO2OyZ19EYsPYur0Z3HoyFQcv/o4+yYAAAAAAACbhSQfFcOD25L/FuL6hZtxZ15yDwAAAAAAYLOS5KPOs3g0n00CAAAAAACwKUnyUWdbvDCUTQIAAAAAALApSfIBAAAAAABAj5Hko2Ju4Vk2BQAAAAAAwGYmyUfF8OC2bAoAAAAAAIDNTJKPkqEdMXGgL5sBAAAAAABgM5Pk+wEbPzYZVy5lX2f2xmi6cPFBfDlf/DYAAAAAAACblCQfmUIszM7E1IV7MZctAQAAAAAAYHN67o03936fTTf19MnjbGrJ9u3D8fDh1k0HbfXjAwAAAAAAoHep5AMAAAAAAIAeI8kHAAAAAAAAPUaSDwAAAAAAAHqMJF8TxuMDAAAAAABgs5LkAwAAAAAAgB4jyQcAAAAAAAA9RpIPAAAAAAAAeowkHwAAAAAAAPQYST4AAAAAAADoMc+98ebe77Pppp4+eZxNLdm+fTgePpzL5ram8WOTMbkzm4lCLCw+i2sXbsad+WwRAAAAAAAAbACVfG3ri8GBkZg8sz/GsyUAAAAAAACwEVTytWtoRxx+d2+8PVCI66cvx2XVfAAAAAAAAGwQlXztmv86vpwpZDMAAAAAAACwcST5OjC38CybAgAAAAAAgI0jydeB4cFt2RQAAAAAAABsHEm+jj2LR8bjAwAAAAAAYANJ8gEAAAAAAECPkeTr2EhMnt0T40PZLAAAAAAAAKyz/zY88tL/zqab+q//+n/Z1JK/+7tt8Z//+Syb+2F49q/fxX8MDcYLP30p3vyfu+N/Hdwd/+O/P4g//evy9gEAAAAAAIC1opIvh8HsXwAAAAAAANgIknydGNsdkzv7IhYfxNTpz+LQkak4fvVx9k0AAAAAAABYH5J8HRge3Jb8txDXL9yMO/OSewAAAAAAAGwMSb6OPYtH89kkAAAAAAAAbABJvo5tixeGskkAAAAAAADYAJJ8AAAAAAAA0GMk+Towt/AsmwIAAAAAAICNI8nXgeHBbdkUAAAAAAAAbBxJvnYN7YiJA33ZDAAAAAAAAGyc5954c+/32XRTT588zqaWbN8+HA8fzmVzW9P4scmY3JnNlC3OxMlT92JrHzkAAAAAAACbmUq+thViYXYmpi5I8AEAAAAAALCxVPIBAAAAAABAj1HJBwAAAAAAAD1Gkg8AAAAAAAB6jCQfAAAAAAAA9JjcST7j8QEAAAAAAMDGUMkHAAAAAAAAPUaSDwAAAAAAAHqMJB8AAAAAAAD0GEk+AAAAAAAA6DGSfAAAAAAAANBjnnvjzb3fZ9NNPX3yOJuqNX5sMiZ3ZjNRiIXFZ3Htws24M58tAgAAAAAAALqui5V8fTE4MBKTZ/bHeLYEAAAAAAAA6L5VVfLVGNoRh9/dG28PFOL66ctxWTUfAAAAAAAArInuVfLNfx1fzhSyGQAAAAAAAGCtdLG7zoi5hWfZFAAAAAAAALBWuprkGx7clk0BAAAAAAAAa6WrSb6SZ/HIeHwAAAAAAACwZtYgyQcAAAAAAACspTVI8o3E5Nk9MT6UzQIAAAAAAABd9dwbb+79Pptu6umTx9nUSvpj/Ni+OLizLwazJQs3PovjV9tdHwAAAAAAAFjJmnTXWU7wAQAAAAAAAN3X3Uq+sf1x5ehIxOKDmLpwP+7Mq+ADAAAAAACAbutqJd/w4Lbkv4W4fuGmBB8AAAAAAACskTXorvNZPJrPJgEAAAAAAICuW4Mk37Z4YSibBAAAAAAAALpuDZJ8AAAAAAAAwFrqapJvbuFZNgUAAAAAAACsla4m+YYHt2VTAAAAAAAAwFrpXpJvaEdMHOjLZgAAAAAAAIC18twbb+79Pptu6umTx9lUrfFjkzG5M5spW5yJk6fuxVw2CwAAAAAAAHRXF7vrLMTC7ExMXZDgAwAAAAAAgLW0qko+AAAAAAAAYP11sZIPAAAAAAAAWA+SfAAAAAAAANBjJPkAAAAAAACgx0jyAQAAAAAAQI+R5AMAAAAAAIAeI8kHAAAAAAAAPUaSDwAAAAAAAHqMJB8AAAAAAAD0GEk+AAAAAAAA6DGSfAAAAAAAANBjJPkAAAAAAACgx0jyAQAAAAAAQI+R5AMAAAAAAIAeI8kHAAAAAAAAPUaSDwAAAAAAAHqMJB8AAAAAAAD0GEk+AAAAAAAA6DGSfAAAAAAAANBjJPkAAAAAAACgx0jyAQAAAAAAQE+J+P+/WVufAEAaqAAAAABJRU5ErkJggg==;" vertex="1" parent="1">
          <mxGeometry x="480" y="220" width="1200" height="837" as="geometry" />
        </mxCell>
      </root>
    </mxGraphModel>
  </diagram>
</mxfile>
